<svg width="1920" height="2138" viewBox="0 0 1920 2138" fill="none" xmlns="http://www.w3.org/2000/svg">
<path d="M-501 201H2418V2138H-501V201Z" fill="#F2FAFF"/>
<mask id="mask0" mask-type="alpha" maskUnits="userSpaceOnUse" x="-501" y="-15" width="2919" height="2153">
<path d="M-501 -15H2418V2138H-501V-15Z" fill="#F2FAFF"/>
</mask>
<g mask="url(#mask0)">
<path d="M651.952 -725.417C574.834 -822.59 324.709 -850.188 209.286 -851.841C166.16 -853.417 -199.135 -843.165 -329.778 -825.813C-460.422 -808.46 -564.43 -727.896 -610.092 -675.839C-655.754 -623.782 -682.39 -496.119 -676.048 -339.948C-669.706 -183.777 -695.074 -90.8185 -729.32 8.33752C-763.566 107.494 -844.743 226.481 -857.427 326.876C-870.111 427.272 -804.155 512.794 -729.32 590.879C-654.485 668.965 -700.89 780.467 -557.562 925.483C-414.234 1070.5 -153.473 1028.41 -98.9322 1063.11C-44.3916 1097.81 100.204 1110.21 169.966 1096.58C239.727 1082.94 313.293 1080.46 503.551 965.193C693.809 849.924 753.423 664.007 800.353 512.794C847.284 361.581 861.236 212.847 848.552 96.3386C835.868 -20.1698 818.111 -160.228 800.353 -346.145C782.596 -532.063 748.35 -603.951 651.952 -725.417Z" fill="#FAFDFF"/>
<path d="M2099.95 130.583C2022.83 33.4099 1772.71 5.81152 1657.29 4.15894C1614.16 2.58252 1248.87 12.8351 1118.22 30.1874C987.578 47.5397 883.57 128.104 837.908 180.161C792.246 232.218 765.61 359.881 771.952 516.052C778.294 672.223 752.926 765.182 718.68 864.338C684.434 963.494 603.257 1082.48 590.573 1182.88C577.889 1283.27 643.845 1368.79 718.68 1446.88C793.515 1524.96 747.11 1636.47 890.438 1781.48C1033.77 1926.5 1294.53 1884.41 1349.07 1919.11C1403.61 1953.81 1548.2 1966.21 1617.97 1952.58C1687.73 1938.94 1761.29 1936.46 1951.55 1821.19C2141.81 1705.92 2201.42 1520.01 2248.35 1368.79C2295.28 1217.58 2309.24 1068.85 2296.55 952.339C2283.87 835.83 2266.11 695.772 2248.35 509.855C2230.6 323.937 2196.35 252.049 2099.95 130.583Z" fill="#F2FAFF"/>
<path d="M518.926 -464.367C459.827 -528.569 268.141 -546.803 179.686 -547.895C146.637 -548.937 -133.309 -542.163 -233.428 -530.698C-333.548 -519.234 -413.255 -466.005 -448.248 -431.611C-483.241 -397.217 -503.654 -312.871 -498.794 -209.689C-493.933 -106.508 -513.374 -45.0905 -539.619 20.4216C-565.864 85.9336 -628.074 164.548 -637.794 230.879C-647.515 297.21 -596.969 353.714 -539.619 405.305C-482.269 456.895 -517.831 530.565 -407.991 626.376C-298.152 722.187 -98.3156 694.376 -56.5181 717.305C-14.7206 740.235 96.0912 748.424 149.553 739.416C203.015 730.408 259.393 728.77 405.198 652.612C551.003 576.455 596.689 453.62 632.654 353.714C668.619 253.808 679.312 155.54 669.591 78.5635C659.871 1.58691 646.263 -90.9489 632.654 -213.784C619.046 -336.619 592.801 -384.115 518.926 -464.367Z" fill="url(#paint0_linear)"/>
<path d="M1973.93 477.633C1914.83 413.431 1723.14 395.197 1634.69 394.105C1601.64 393.063 1321.69 399.837 1221.57 411.302C1121.45 422.766 1041.75 475.995 1006.75 510.389C971.759 544.783 951.346 629.129 956.206 732.311C961.067 835.492 941.626 896.91 915.381 962.422C889.136 1027.93 826.926 1106.55 817.206 1172.88C807.485 1239.21 858.031 1295.71 915.381 1347.3C972.731 1398.9 937.169 1472.56 1047.01 1568.38C1156.85 1664.19 1356.68 1636.38 1398.48 1659.31C1440.28 1682.23 1551.09 1690.42 1604.55 1681.42C1658.01 1672.41 1714.39 1670.77 1860.2 1594.61C2006 1518.45 2051.69 1395.62 2087.65 1295.71C2123.62 1195.81 2134.31 1097.54 2124.59 1020.56C2114.87 943.587 2101.26 851.051 2087.65 728.216C2074.05 605.381 2047.8 557.885 1973.93 477.633Z" fill="url(#paint1_linear)"/>
</g>
<defs>
<linearGradient id="paint0_linear" x1="591.5" y1="547" x2="359.5" y2="218.5" gradientUnits="userSpaceOnUse">
<stop stop-color="#E9F6FD"/>
<stop offset="1" stop-color="white"/>
</linearGradient>
<linearGradient id="paint1_linear" x1="1472" y1="1685" x2="1472" y2="394" gradientUnits="userSpaceOnUse">
<stop stop-color="#D8EDF9"/>
<stop offset="1" stop-color="white"/>
</linearGradient>
</defs>
</svg>
