<svg width="32" height="37" viewBox="0 0 32 37" fill="none" xmlns="http://www.w3.org/2000/svg">
<path d="M32 21.5352C32 30.4631 24.8366 37 16 37C7.16344 37 0 29.7626 0 20.8347C0 11.9069 7.16344 5.36991 16 5.36991C24.8366 5.36991 32 12.6074 32 21.5352Z" fill="#21A038"/>
<path d="M15.9357 0L25.1733 8.28892L23.2371 7.1142L21.0112 6.17862L18.459 5.55964L16 5.36991L13.3646 5.56794L10.9167 6.12924L8.58705 7.05213L6.48145 8.29028L15.9357 0Z" fill="#21A038"/>
<path fill-rule="evenodd" clip-rule="evenodd" d="M22.9833 20.5119L24.9781 20.3724C25.0253 21.048 24.9959 21.7223 24.8931 22.3832C24.6896 23.6912 24.1988 24.9466 23.446 26.0554C22.3129 27.7244 20.6518 28.9644 18.7294 29.5762C16.807 30.188 14.7348 30.1362 12.8454 29.429C10.9559 28.7219 9.35891 27.4005 8.31058 25.6768C7.26224 23.9532 6.82341 21.9273 7.06452 19.9244C7.30563 17.9214 8.21269 16.0576 9.64012 14.632C11.0676 13.2064 12.9326 12.3017 14.9358 12.0632C16.2666 11.9047 17.6071 12.0463 18.862 12.4672C19.4962 12.6799 20.1085 12.9639 20.6867 13.3166L19.6457 15.0231C18.6066 14.388 17.389 14.0162 16.0857 14.0005C16.0299 13.9998 15.9742 13.9998 15.9183 14.0005C14.0523 14.0218 12.3617 14.7733 11.1188 15.9826C11.0969 16.004 11.0751 16.0255 11.0534 16.0471C11.0361 16.0644 11.0188 16.0818 11.0017 16.0993C9.7816 17.3436 9.02241 19.0414 9.0005 20.9165C8.99982 20.9737 8.99984 21.0309 9.00056 21.088C9.02314 22.9215 9.75063 24.5852 10.9245 25.8208C10.9873 25.8869 11.0513 25.9517 11.1166 26.0152C12.3741 27.2399 14.0906 27.9957 15.9837 28C15.9891 28 15.9946 28 16 28M16.019 28C17.8961 27.995 19.5994 27.2512 20.8536 26.0441C20.9232 25.9771 20.9914 25.9087 21.0582 25.8389C22.2611 24.5818 23 22.8772 23 21C23 20.8359 22.9944 20.6731 22.9833 20.5119" fill="white"/>
<path d="M12 19.5L16.5543 22.168" stroke="white" stroke-width="2"/>
<line x1="15.4" y1="22.2" x2="23.4" y2="16.2" stroke="white" stroke-width="2"/>
</svg>
