<svg width="32" height="37" viewBox="0 0 32 37" fill="none" xmlns="http://www.w3.org/2000/svg">
<path d="M32 21.5352C32 30.4631 24.8366 37 16 37C7.16344 37 0 29.7626 0 20.8347C0 11.9069 7.16344 5.36991 16 5.36991C24.8366 5.36991 32 12.6074 32 21.5352Z" fill="#47A0D4"/>
<path d="M15.9357 0L25.1733 8.28892L23.2371 7.1142L21.0112 6.17862L18.459 5.55964L16 5.36991L13.3646 5.56794L10.9167 6.12924L8.58705 7.05213L6.48145 8.29028L15.9357 0Z" fill="#47A0D4"/>
<path d="M20.5 28.4542H11.5C10.7541 28.4542 10.0387 28.1607 9.51126 27.6384C8.98382 27.116 8.6875 26.4074 8.6875 25.6687V17.8691C8.6875 17.7214 8.74676 17.5797 8.85225 17.4752C8.95774 17.3707 9.10082 17.312 9.25 17.312H20.5C21.2459 17.312 21.9613 17.6055 22.4887 18.1279C23.0162 18.6503 23.3125 19.3588 23.3125 20.0976V25.6687C23.3125 26.4074 23.0162 27.116 22.4887 27.6384C21.9613 28.1607 21.2459 28.4542 20.5 28.4542ZM9.8125 18.4262V25.6687C9.8125 26.1119 9.99029 26.537 10.3068 26.8505C10.6232 27.1639 11.0524 27.34 11.5 27.34H20.5C20.9476 27.34 21.3768 27.1639 21.6932 26.8505C22.0097 26.537 22.1875 26.1119 22.1875 25.6687V20.0976C22.1875 19.6543 22.0097 19.2292 21.6932 18.9158C21.3768 18.6023 20.9476 18.4262 20.5 18.4262H9.8125Z" fill="white"/>
<path d="M21.625 18.4262C21.4758 18.4262 21.3328 18.3675 21.2273 18.263C21.1218 18.1586 21.0625 18.0169 21.0625 17.8691V16.3371C21.0733 16.1419 21.0394 15.9469 20.9635 15.7665C20.8875 15.5861 20.7714 15.425 20.6238 15.2953C20.4911 15.1969 20.3376 15.1297 20.1749 15.0988C20.0121 15.0679 19.8444 15.0741 19.6844 15.117L10.2513 17.2396C10.1244 17.2679 10.0114 17.3389 9.93136 17.4404C9.85136 17.542 9.80938 17.6679 9.81256 17.7967C9.81256 17.9444 9.7533 18.0861 9.64781 18.1906C9.54232 18.2951 9.39924 18.3538 9.25006 18.3538C9.10088 18.3538 8.9578 18.2951 8.85231 18.1906C8.74683 18.0861 8.68756 17.9444 8.68756 17.7967C8.68426 17.4158 8.81239 17.0453 9.05074 16.7464C9.28909 16.4476 9.62335 16.2383 9.99818 16.1532L19.4369 14.0307C19.7615 13.9494 20.1006 13.9427 20.4282 14.0113C20.7558 14.0799 21.0632 14.2218 21.3269 14.4262C21.6057 14.6605 21.8278 14.9539 21.9767 15.2847C22.1257 15.6154 22.1977 15.9751 22.1875 16.3371V17.8691C22.1875 18.0169 22.1283 18.1586 22.0228 18.263C21.9173 18.3675 21.7742 18.4262 21.625 18.4262Z" fill="white"/>
<path d="M22.75 25.1116H18.8125C18.2158 25.1116 17.6435 24.8768 17.2215 24.4589C16.7996 24.041 16.5625 23.4742 16.5625 22.8832C16.5625 22.2922 16.7996 21.7254 17.2215 21.3075C17.6435 20.8896 18.2158 20.6548 18.8125 20.6548H22.75C22.8992 20.6548 23.0423 20.7135 23.1477 20.818C23.2532 20.9224 23.3125 21.0641 23.3125 21.2119V24.5545C23.3125 24.7022 23.2532 24.8439 23.1477 24.9484C23.0423 25.0529 22.8992 25.1116 22.75 25.1116ZM18.8125 21.769C18.5141 21.769 18.228 21.8864 18.017 22.0953C17.806 22.3043 17.6875 22.5877 17.6875 22.8832C17.6875 23.1787 17.806 23.4621 18.017 23.671C18.228 23.88 18.5141 23.9974 18.8125 23.9974H22.1875V21.769H18.8125Z" fill="white"/>
</svg>
