<?xml version="1.0" encoding="UTF-8"?>
<!DOCTYPE svg PUBLIC "-//W3C//DTD SVG 1.1//EN" "http://www.w3.org/Graphics/SVG/1.1/DTD/svg11.dtd">
<!-- Creator: CorelDRAW 2020 (64-Bit) -->
<svg xmlns="http://www.w3.org/2000/svg" xml:space="preserve" width="32px" height="37px" version="1.1" style="shape-rendering:geometricPrecision; text-rendering:geometricPrecision; image-rendering:optimizeQuality; fill-rule:evenodd; clip-rule:evenodd"
viewBox="0 0 2.71 3.13"
 xmlns:xlink="http://www.w3.org/1999/xlink"
 xmlns:xodm="http://www.corel.com/coreldraw/odm/2003">
 <defs>
  <style type="text/css">
   <![CDATA[
    .fil0 {fill:#47A0D4;fill-rule:nonzero}
    .fil1 {fill:white;fill-rule:nonzero}
   ]]>
  </style>
 </defs>
 <g id="Camada_x0020_1">
  <metadata id="CorelCorpID_0Corel-Layer"/>
  <path class="fil0" d="M2.71 1.82c0,0.76 -0.61,1.31 -1.36,1.31 -0.74,0 -1.35,-0.61 -1.35,-1.37 0,-0.45 0.22,-0.83 0.55,-1.06l0 0 0.8 -0.7 0.78 0.7 0 0c0.35,0.25 0.58,0.66 0.58,1.12zm-1.98 -1.22l0 0 0 0 0 0zm0.19 -0.08l0.01 0 -0.01 0 0 0zm0.21 -0.05l0 0 0 0 0 0zm0.43 0l0 0 0 0 0 0zm0.22 0.05l0 0 0 0 0 0zm0.19 0.08l0 0 0 0 0 0z"/>
  <path class="fil1" d="M1.74 2.41l-0.77 0c-0.06,0 -0.12,-0.03 -0.16,-0.07 -0.05,-0.04 -0.07,-0.1 -0.07,-0.17l0 -0.66c0,-0.01 0,-0.02 0.01,-0.03 0.01,-0.01 0.02,-0.01 0.03,-0.01l0.96 0c0.06,0 0.12,0.02 0.16,0.06 0.05,0.05 0.07,0.11 0.07,0.17l0 0.47c0,0.07 -0.02,0.13 -0.07,0.17 -0.04,0.04 -0.1,0.07 -0.16,0.07zm-0.91 -0.85l0 0.61c0,0.04 0.02,0.08 0.04,0.1 0.03,0.03 0.07,0.04 0.1,0.04l0.77 0c0.03,0 0.07,-0.01 0.1,-0.04 0.02,-0.02 0.04,-0.06 0.04,-0.1l0 -0.47c0,-0.04 -0.02,-0.07 -0.04,-0.1 -0.03,-0.03 -0.07,-0.04 -0.1,-0.04l-0.91 0z"/>
  <path class="fil1" d="M1.83 1.56c-0.01,0 -0.02,0 -0.03,-0.01 -0.01,-0.01 -0.02,-0.02 -0.02,-0.04l0 -0.13c0,-0.01 0,-0.03 -0.01,-0.05 0,-0.01 -0.01,-0.02 -0.02,-0.04 -0.02,0 -0.03,-0.01 -0.04,-0.01 -0.02,0 -0.03,0 -0.04,0l-0.8 0.18c-0.01,0 -0.02,0.01 -0.03,0.02 -0.01,0.01 -0.01,0.02 -0.01,0.03 0,0.01 0,0.02 -0.01,0.03 -0.01,0.01 -0.02,0.01 -0.04,0.01 -0.01,0 -0.02,0 -0.03,-0.01 -0.01,-0.01 -0.01,-0.02 -0.01,-0.03 0,-0.04 0.01,-0.07 0.03,-0.09 0.02,-0.03 0.04,-0.05 0.08,-0.05l0.8 -0.18c0.02,-0.01 0.05,-0.01 0.08,0 0.03,0 0.05,0.01 0.08,0.03 0.02,0.02 0.04,0.05 0.05,0.07 0.01,0.03 0.02,0.06 0.02,0.09l0 0.13c0,0.02 -0.01,0.03 -0.02,0.04 0,0.01 -0.02,0.01 -0.03,0.01z"/>
  <path class="fil1" d="M1.93 2.13l-0.34 0c-0.05,0 -0.1,-0.02 -0.13,-0.06 -0.04,-0.03 -0.06,-0.08 -0.06,-0.13 0,-0.05 0.02,-0.1 0.06,-0.14 0.03,-0.03 0.08,-0.05 0.13,-0.05l0.34 0c0.01,0 0.02,0 0.03,0.01 0.01,0.01 0.01,0.02 0.01,0.04l0 0.28c0,0.01 0,0.02 -0.01,0.03 -0.01,0.01 -0.02,0.02 -0.03,0.02zm-0.34 -0.29c-0.02,0 -0.05,0.01 -0.06,0.03 -0.02,0.02 -0.03,0.04 -0.03,0.07 0,0.02 0.01,0.05 0.03,0.06 0.01,0.02 0.04,0.03 0.06,0.03l0.29 0 0 -0.19 -0.29 0z"/>
 </g>
</svg>
