<svg width="42" height="42" viewBox="0 0 42 42" fill="none" xmlns="http://www.w3.org/2000/svg">
<circle cx="21" cy="21" r="20" stroke="white" stroke-width="2"/>
<g clip-path="url(#clip0)">
<path d="M25.8912 20.4537L19.6595 14.2248C19.5144 14.0797 19.3237 14 19.1188 14C18.914 14 18.7205 14.0797 18.5782 14.2248L18.1172 14.6829C17.8184 14.9817 17.8184 15.4683 18.1172 15.7671L23.3501 21L18.1115 26.2358C17.9664 26.3809 17.8867 26.5715 17.8867 26.7764C17.8867 26.9813 17.9664 27.1748 18.1115 27.3171L18.5696 27.7752C18.7148 27.9203 18.9054 28 19.1103 28C19.3152 28 19.5087 27.9203 19.6509 27.7752L25.8912 21.5407C26.0363 21.3955 26.116 21.202 26.1131 20.9972C26.1131 20.7923 26.0363 20.5988 25.8912 20.4537Z" fill="white"/>
</g>
<defs>
<clipPath id="clip0">
<rect width="14" height="14" fill="white" transform="translate(15.001 14)"/>
</clipPath>
</defs>
</svg>
