<svg width="42" height="42" viewBox="0 0 42 42" fill="none" xmlns="http://www.w3.org/2000/svg">
<circle cx="21" cy="21" r="20" stroke="url(#paint0_linear)" stroke-opacity="0.65" stroke-width="2"/>
<path d="M21.0408 30L16.0612 25.0204C13.3129 22.2721 13.3129 17.8095 16.0612 15.0612C18.8095 12.3129 23.2721 12.3129 26.0204 15.0612C28.7687 17.8095 28.7687 22.2721 26.0204 25.0204L21.0408 30ZM21.0408 13.5646C19.381 13.5646 17.7211 14.1905 16.4422 15.4694C13.9116 18 13.9116 22.1088 16.4422 24.6395L21.0408 29.2381L25.6395 24.6395C28.1701 22.1088 28.1701 18 25.6395 15.4694C24.3605 14.1905 22.7007 13.5646 21.0408 13.5646Z" stroke="url(#paint1_linear)"/>
<path d="M21.0404 23.1973C19.3261 23.1973 17.9111 21.7824 17.9111 20.0681C17.9111 18.3538 19.3261 16.9116 21.0404 16.9116C22.7547 16.9116 24.1696 18.3266 24.1696 20.0409C24.1696 21.7552 22.7547 23.1973 21.0404 23.1973ZM21.0404 17.4558C19.6254 17.4558 18.4554 18.6259 18.4554 20.0409C18.4554 21.4558 19.6254 22.6259 21.0404 22.6259C22.4553 22.6259 23.6254 21.4558 23.6254 20.0409C23.6254 18.6259 22.4553 17.4558 21.0404 17.4558Z" stroke="url(#paint2_linear)"/>
<defs>
<linearGradient id="paint0_linear" x1="1.36904e-07" y1="21" x2="42" y2="21" gradientUnits="userSpaceOnUse">
<stop stop-color="#479DD4"/>
<stop offset="1" stop-color="#43C3D1"/>
</linearGradient>
<linearGradient id="paint1_linear" x1="21.0408" y1="13" x2="21.0408" y2="30" gradientUnits="userSpaceOnUse">
<stop stop-color="#86BFE3"/>
<stop offset="1" stop-color="#83D7E1"/>
</linearGradient>
<linearGradient id="paint2_linear" x1="21.0404" y1="16.9116" x2="21.0404" y2="23.1973" gradientUnits="userSpaceOnUse">
<stop stop-color="#86BFE3"/>
<stop offset="1" stop-color="#83D7E1"/>
</linearGradient>
</defs>
</svg>
