<?xml version="1.0" encoding="UTF-8"?>
<!DOCTYPE svg PUBLIC "-//W3C//DTD SVG 1.1//EN" "http://www.w3.org/Graphics/SVG/1.1/DTD/svg11.dtd">
<!-- Creator: CorelDRAW 2020 (64-Bit) -->
<svg xmlns="http://www.w3.org/2000/svg" xml:space="preserve" width="32px" height="37px" version="1.1" style="shape-rendering:geometricPrecision; text-rendering:geometricPrecision; image-rendering:optimizeQuality; fill-rule:evenodd; clip-rule:evenodd"
viewBox="0 0 3.75 4.33"
 xmlns:xlink="http://www.w3.org/1999/xlink"
 xmlns:xodm="http://www.corel.com/coreldraw/odm/2003">
 <defs>
  <style type="text/css">
   <![CDATA[
    .str0 {stroke:white;stroke-width:0.23;stroke-miterlimit:22.9256}
    .fil2 {fill:none}
    .fil1 {fill:white}
    .fil0 {fill:#21A038;fill-rule:nonzero}
   ]]>
  </style>
 </defs>
 <g id="Camada_x0020_1">
  <metadata id="CorelCorpID_0Corel-Layer"/>
  <path class="fil0" d="M3.75 2.52c0,1.05 -0.84,1.81 -1.88,1.81 -1.03,0 -1.87,-0.84 -1.87,-1.89 0,-0.62 0.3,-1.15 0.76,-1.47l0 0 1.11 -0.97 1.08 0.97 0 0c0.48,0.34 0.8,0.91 0.8,1.55zm-2.75 -1.69l0.01 0 0 0 -0.01 0zm0.28 -0.11l0 0 0 0 0 0zm0.28 -0.07l0.01 0 0 0 -0.01 0zm0.6 0l0 0 0 0 0 0zm0.3 0.07l0 0 0 0 0 0zm0.26 0.11l0 0 0 0 0 0z"/>
  <g>
   <path class="fil1" d="M2.69 2.4l0.24 -0.01c0,0.08 0,0.15 -0.01,0.23 -0.03,0.15 -0.09,0.3 -0.17,0.43 -0.14,0.2 -0.33,0.34 -0.56,0.41 -0.22,0.08 -0.46,0.07 -0.69,-0.01 -0.22,-0.09 -0.4,-0.24 -0.53,-0.44 -0.12,-0.2 -0.17,-0.44 -0.14,-0.68 0.03,-0.23 0.13,-0.45 0.3,-0.62 0.17,-0.16 0.38,-0.27 0.62,-0.3 0.16,-0.02 0.31,0 0.46,0.05 0.07,0.03 0.15,0.06 0.21,0.1l-0.12 0.2c-0.12,-0.07 -0.26,-0.12 -0.42,-0.12 0,0 -0.01,0 -0.02,0 -0.21,0 -0.41,0.09 -0.56,0.23 0,0 0,0.01 -0.01,0.01 0,0 0,0 0,0.01 -0.14,0.14 -0.23,0.34 -0.24,0.56 0,0.01 0,0.01 0,0.02 0.01,0.21 0.09,0.41 0.23,0.55 0.01,0.01 0.01,0.02 0.02,0.03 0.15,0.14 0.35,0.23 0.57,0.23 0,0 0,0 0,0l0.82 -0.88zm-0.81 0.88c0.22,0 0.42,-0.09 0.56,-0.23 0.01,-0.01 0.02,-0.02 0.03,-0.02 0.14,-0.15 0.22,-0.35 0.22,-0.57 0,-0.02 0,-0.04 0,-0.06l-0.81 0.88zm0 0l0 0 0 0z"/>
  </g>
  <line class="fil2 str0" x1="1.41" y1="2.28" x2="1.94" y2= "2.6" />
  <line class="fil2 str0" x1="1.8" y1="2.6" x2="2.74" y2= "1.9" />
 </g>
</svg>
