<svg width="1920" height="2534" viewBox="0 0 1920 2534" fill="none" xmlns="http://www.w3.org/2000/svg">
<mask id="mask0" mask-type="alpha" maskUnits="userSpaceOnUse" x="-501" y="-152" width="2919" height="2686">
<path d="M-501 -152H2418V2534H-501V-152Z" fill="#F2FAFF"/>
</mask>
<g mask="url(#mask0)">
<path d="M651.952 -862.417C574.834 -959.59 324.709 -987.188 209.286 -988.841C166.16 -990.417 -199.135 -980.165 -329.778 -962.813C-460.422 -945.46 -564.43 -864.896 -610.092 -812.839C-655.754 -760.782 -682.39 -633.119 -676.048 -476.948C-669.706 -320.777 -695.074 -227.818 -729.32 -128.662C-763.566 -29.5064 -844.743 89.4808 -857.427 189.876C-870.111 290.272 -804.155 375.794 -729.32 453.879C-654.485 531.965 -700.89 643.467 -557.562 788.483C-414.234 933.499 -153.473 891.405 -98.9322 926.11C-44.3916 960.815 100.204 973.209 169.966 959.575C239.727 945.941 313.293 943.462 503.551 828.193C693.809 712.924 753.423 527.007 800.353 375.794C847.284 224.581 861.236 75.8469 848.552 -40.6614C835.868 -157.17 818.111 -297.228 800.353 -483.145C782.596 -669.063 748.35 -740.951 651.952 -862.417Z" fill="#FAFDFF"/>
<path d="M2099.95 -6.41711C2022.83 -103.59 1772.71 -131.188 1657.29 -132.841C1614.16 -134.417 1248.87 -124.165 1118.22 -106.813C987.578 -89.4603 883.57 -8.89612 837.908 43.1609C792.246 95.2178 765.61 222.881 771.952 379.052C778.294 535.223 752.926 628.182 718.68 727.338C684.434 826.494 603.257 945.481 590.573 1045.88C577.889 1146.27 643.845 1231.79 718.68 1309.88C793.515 1387.96 747.11 1499.47 890.438 1644.48C1033.77 1789.5 1294.53 1747.41 1349.07 1782.11C1403.61 1816.81 1548.2 1829.21 1617.97 1815.58C1687.73 1801.94 1761.29 1799.46 1951.55 1684.19C2141.81 1568.92 2201.42 1383.01 2248.35 1231.79C2295.28 1080.58 2309.24 931.847 2296.55 815.339C2283.87 698.83 2266.11 558.772 2248.35 372.855C2230.6 186.937 2196.35 115.049 2099.95 -6.41711Z" fill="#F2FAFF"/>
<path d="M518.926 -601.367C459.827 -665.569 268.141 -683.803 179.686 -684.895C146.637 -685.937 -133.309 -679.163 -233.428 -667.698C-333.548 -656.234 -413.255 -603.005 -448.248 -568.611C-483.241 -534.217 -503.654 -449.871 -498.794 -346.689C-493.933 -243.508 -513.374 -182.09 -539.619 -116.578C-565.864 -51.0664 -628.074 27.548 -637.794 93.8788C-647.515 160.21 -596.969 216.714 -539.619 268.305C-482.269 319.895 -517.831 393.565 -407.991 489.376C-298.152 585.187 -98.3156 557.376 -56.5181 580.305C-14.7206 603.235 96.0912 611.424 149.553 602.416C203.015 593.408 259.393 591.77 405.198 515.612C551.003 439.455 596.689 316.62 632.654 216.714C668.619 116.808 679.312 18.5402 669.591 -58.4365C659.871 -135.413 646.263 -227.949 632.654 -350.784C619.046 -473.619 592.801 -521.115 518.926 -601.367Z" fill="url(#paint0_linear)"/>
<path d="M1973.93 340.633C1914.83 276.431 1723.14 258.197 1634.69 257.105C1601.64 256.063 1321.69 262.837 1221.57 274.302C1121.45 285.766 1041.75 338.995 1006.75 373.389C971.759 407.783 951.346 492.129 956.206 595.311C961.067 698.492 941.626 759.91 915.381 825.422C889.136 890.934 826.926 969.548 817.206 1035.88C807.485 1102.21 858.031 1158.71 915.381 1210.3C972.731 1261.9 937.169 1335.56 1047.01 1431.38C1156.85 1527.19 1356.68 1499.38 1398.48 1522.31C1440.28 1545.23 1551.09 1553.42 1604.55 1544.42C1658.01 1535.41 1714.39 1533.77 1860.2 1457.61C2006 1381.45 2051.69 1258.62 2087.65 1158.71C2123.62 1058.81 2134.31 960.54 2124.59 883.564C2114.87 806.587 2101.26 714.051 2087.65 591.216C2074.05 468.381 2047.8 420.885 1973.93 340.633Z" fill="url(#paint1_linear)"/>
</g>
<defs>
<linearGradient id="paint0_linear" x1="591.5" y1="410" x2="359.5" y2="81.5" gradientUnits="userSpaceOnUse">
<stop stop-color="#E9F6FD"/>
<stop offset="1" stop-color="white"/>
</linearGradient>
<linearGradient id="paint1_linear" x1="1472" y1="1548" x2="1472" y2="257" gradientUnits="userSpaceOnUse">
<stop stop-color="#D8EDF9"/>
<stop offset="1" stop-color="white"/>
</linearGradient>
</defs>
</svg>
