<?xml version="1.0" encoding="UTF-8"?>
<!DOCTYPE svg PUBLIC "-//W3C//DTD SVG 1.1//EN" "http://www.w3.org/Graphics/SVG/1.1/DTD/svg11.dtd">
<!-- Creator: CorelDRAW 2020 (64-Bit) -->
<svg xmlns="http://www.w3.org/2000/svg" xml:space="preserve" width="100px" height="100px" version="1.1" style="shape-rendering:geometricPrecision; text-rendering:geometricPrecision; image-rendering:optimizeQuality; fill-rule:evenodd; clip-rule:evenodd"
viewBox="0 0 11.48 11.48"
 xmlns:xlink="http://www.w3.org/1999/xlink"
 xmlns:xodm="http://www.corel.com/coreldraw/odm/2003">
 <defs>
  <style type="text/css">
   <![CDATA[
    .fil4 {fill:white;fill-rule:nonzero}
    .fil0 {fill:#45BBD3;fill-rule:nonzero;fill-opacity:0.301961}
    .fil1 {fill:#45BBD3;fill-rule:nonzero;fill-opacity:0.501961}
    .fil2 {fill:url(#id0);fill-rule:nonzero}
    .fil3 {fill:url(#id1);fill-rule:nonzero}
   ]]>
  </style>
  <linearGradient id="id0" gradientUnits="userSpaceOnUse" x1="10.32" y1="7.74" x2="2.23" y2="4.21">
   <stop offset="0" style="stop-opacity:1; stop-color:#44C1D2"/>
   <stop offset="1" style="stop-opacity:1; stop-color:#46B4D3"/>
  </linearGradient>
  <linearGradient id="id1" gradientUnits="userSpaceOnUse" xlink:href="#id0" x1="10.96" y1="8.02" x2="1.74" y2="4">
  </linearGradient>
 </defs>
 <g id="Camada_x0020_1">
  <metadata id="CorelCorpID_0Corel-Layer"/>
  <g id="icon-promo-price.svg">
   <path class="fil0" d="M11.48 5.74c0,-3.17 -2.57,-5.74 -5.74,-5.74 -3.17,0 -5.74,2.57 -5.74,5.74 0,3.17 2.57,5.74 5.74,5.74 3.17,0 5.74,-2.57 5.74,-5.74z"/>
   <path class="fil1" d="M10.85 5.74c0,-2.82 -2.29,-5.11 -5.11,-5.11 -2.82,0 -5.11,2.29 -5.11,5.11 0,2.82 2.29,5.11 5.11,5.11 2.82,0 5.11,-2.29 5.11,-5.11z"/>
   <path class="fil2" d="M7.39 1.65c-2.23,-0.98 -4.66,0.12 -5.63,2.35 -0.98,2.23 0.04,4.83 2.27,5.8 2.24,0.98 4.66,-0.12 5.63,-2.35 0.98,-2.23 -0.04,-4.83 -2.27,-5.8z"/>
   <polygon class="fil3" points="11,8.05 9.94,4.82 10.02,5.43 10.01,6.1 9.89,6.81 9.66,7.45 9.32,8.1 8.91,8.65 8.42,9.14 7.88,9.54 "/>
   <path class="fil4" d="M5.93 3.95c-0.05,0.06 -0.12,0.08 -0.2,0.08 -0.08,0 -0.15,-0.02 -0.2,-0.08 -0.05,-0.05 -0.07,-0.12 -0.07,-0.2 0,-0.09 0.02,-0.15 0.07,-0.21 0.05,-0.05 0.12,-0.08 0.2,-0.08 0.08,0 0.15,0.03 0.2,0.08 0.04,0.06 0.07,0.12 0.07,0.21 0,0.08 -0.03,0.15 -0.07,0.2zm-0.33 -0.05c0.03,0.04 0.07,0.06 0.13,0.06 0.06,0 0.1,-0.02 0.13,-0.06 0.03,-0.05 0.05,-0.1 0.05,-0.15 0,-0.06 -0.02,-0.11 -0.05,-0.15 -0.03,-0.04 -0.07,-0.06 -0.13,-0.06 -0.06,0 -0.1,0.02 -0.13,0.06 -0.04,0.04 -0.05,0.09 -0.05,0.15 0,0.05 0.01,0.1 0.05,0.15zm0.72 0.12l-0.08 0 0 -0.47 -0.16 0 0 -0.08 0.4 0 0 0.08 -0.16 0 0 0.47zm-2.7 2.12l-0.39 0 0 -0.86 -0.2 0.2 -0.21 -0.23 0.47 -0.46 0.33 0 0 1.35zm1.17 0l-1 0 0 -0.3c0.2,-0.17 0.33,-0.28 0.41,-0.35 0.07,-0.07 0.12,-0.12 0.15,-0.16 0.03,-0.03 0.04,-0.07 0.04,-0.11 0,-0.03 -0.01,-0.06 -0.04,-0.08 -0.02,-0.02 -0.06,-0.03 -0.1,-0.03 -0.11,0 -0.21,0.04 -0.29,0.13l-0.22 -0.25c0.13,-0.15 0.3,-0.22 0.52,-0.22 0.15,0 0.28,0.04 0.37,0.12 0.1,0.08 0.15,0.19 0.15,0.33 0,0.09 -0.03,0.18 -0.09,0.27 -0.06,0.08 -0.17,0.19 -0.32,0.32l0.42 0 0 0.33zm1.34 -0.07c-0.09,0.07 -0.19,0.1 -0.3,0.1 -0.12,0 -0.22,-0.03 -0.3,-0.1 -0.08,-0.07 -0.14,-0.15 -0.18,-0.26 -0.04,-0.1 -0.06,-0.22 -0.06,-0.34 0,-0.2 0.05,-0.37 0.14,-0.5 0.1,-0.14 0.23,-0.2 0.4,-0.2 0.17,0 0.3,0.06 0.39,0.2 0.1,0.13 0.14,0.3 0.14,0.5 0,0.12 -0.02,0.24 -0.05,0.34 -0.04,0.11 -0.1,0.19 -0.18,0.26zm-0.41 -0.32c0.02,0.05 0.06,0.08 0.11,0.08 0.05,0 0.09,-0.03 0.11,-0.08 0.02,-0.06 0.03,-0.15 0.03,-0.28 0,-0.13 -0.01,-0.23 -0.03,-0.28 -0.02,-0.06 -0.06,-0.08 -0.11,-0.08 -0.05,0 -0.09,0.02 -0.11,0.08 -0.03,0.05 -0.04,0.15 -0.04,0.28 0,0.13 0.01,0.22 0.04,0.28zm1.55 0.32c-0.08,0.07 -0.18,0.1 -0.3,0.1 -0.11,0 -0.21,-0.03 -0.3,-0.1 -0.08,-0.07 -0.14,-0.15 -0.18,-0.26 -0.04,-0.1 -0.05,-0.22 -0.05,-0.34 0,-0.2 0.04,-0.37 0.13,-0.5 0.1,-0.14 0.23,-0.2 0.4,-0.2 0.17,0 0.3,0.06 0.4,0.2 0.09,0.13 0.14,0.3 0.14,0.5 0,0.12 -0.02,0.24 -0.06,0.34 -0.04,0.11 -0.1,0.19 -0.18,0.26zm-0.41 -0.32c0.02,0.05 0.06,0.08 0.11,0.08 0.05,0 0.09,-0.03 0.11,-0.08 0.02,-0.06 0.04,-0.15 0.04,-0.28 0,-0.13 -0.02,-0.23 -0.04,-0.28 -0.02,-0.06 -0.06,-0.08 -0.11,-0.08 -0.05,0 -0.09,0.02 -0.11,0.08 -0.02,0.05 -0.03,0.15 -0.03,0.28 0,0.13 0.01,0.22 0.03,0.28zm1.55 0.32c-0.08,0.07 -0.18,0.1 -0.3,0.1 -0.11,0 -0.21,-0.03 -0.29,-0.1 -0.09,-0.07 -0.15,-0.15 -0.18,-0.26 -0.04,-0.1 -0.06,-0.22 -0.06,-0.34 0,-0.2 0.04,-0.37 0.14,-0.5 0.09,-0.14 0.22,-0.2 0.39,-0.2 0.17,0 0.31,0.06 0.4,0.2 0.09,0.13 0.14,0.3 0.14,0.5 0,0.12 -0.02,0.24 -0.06,0.34 -0.04,0.11 -0.1,0.19 -0.18,0.26zm-0.41 -0.32c0.02,0.05 0.06,0.08 0.11,0.08 0.06,0 0.09,-0.03 0.12,-0.08 0.02,-0.06 0.03,-0.15 0.03,-0.28 0,-0.13 -0.01,-0.23 -0.03,-0.28 -0.03,-0.06 -0.06,-0.08 -0.12,-0.08 -0.05,0 -0.09,0.02 -0.11,0.08 -0.02,0.05 -0.03,0.15 -0.03,0.28 0,0.13 0.01,0.22 0.03,0.28zm-3.56 1.76c-0.07,0 -0.14,-0.03 -0.18,-0.09l0 0.29 -0.09 0 0 -0.76 0.09 0 0 0.09c0.02,-0.03 0.04,-0.06 0.08,-0.07 0.03,-0.02 0.06,-0.03 0.1,-0.03 0.07,0 0.13,0.03 0.18,0.08 0.04,0.05 0.07,0.12 0.07,0.21 0,0.08 -0.03,0.15 -0.07,0.21 -0.05,0.05 -0.11,0.07 -0.18,0.07zm-0.02 -0.07c0.05,0 0.1,-0.02 0.13,-0.06 0.03,-0.04 0.05,-0.09 0.05,-0.15 0,-0.06 -0.02,-0.12 -0.05,-0.15 -0.03,-0.04 -0.08,-0.06 -0.13,-0.06 -0.03,0 -0.06,0.01 -0.09,0.02 -0.03,0.02 -0.06,0.04 -0.07,0.06l0 0.25c0.01,0.03 0.04,0.05 0.07,0.06 0.03,0.02 0.06,0.03 0.09,0.03zm0.37 0.27l0.01 -0.07c0.02,0 0.03,0.01 0.05,0.01 0.02,0 0.04,-0.01 0.05,-0.02 0.01,0 0.02,-0.02 0.03,-0.04l0.04 -0.08 -0.23 -0.56 0.09 0 0.18 0.45 0.18 -0.45 0.1 0 -0.28 0.66c-0.03,0.07 -0.08,0.11 -0.16,0.11 -0.02,0 -0.04,0 -0.06,-0.01zm0.69 -0.33c0.03,0.04 0.08,0.06 0.13,0.06 0.06,0 0.1,-0.02 0.13,-0.06 0.04,-0.04 0.05,-0.09 0.05,-0.15 0,-0.06 -0.01,-0.11 -0.05,-0.15 -0.03,-0.04 -0.07,-0.06 -0.13,-0.06 -0.05,0 -0.1,0.02 -0.13,0.06 -0.03,0.04 -0.05,0.09 -0.05,0.15 0,0.06 0.02,0.11 0.05,0.15zm0.13 0.13c-0.08,0 -0.15,-0.02 -0.19,-0.08 -0.05,-0.06 -0.08,-0.14 -0.08,-0.23 0,-0.13 0.03,-0.22 0.07,-0.28 0.05,-0.07 0.12,-0.11 0.22,-0.12 0.06,-0.01 0.1,-0.02 0.12,-0.02 0.02,-0.01 0.03,-0.02 0.03,-0.03l0.08 0c0,0.02 0,0.04 -0.01,0.05 -0.02,0.02 -0.04,0.03 -0.06,0.04 -0.02,0.01 -0.05,0.01 -0.07,0.02 -0.02,0 -0.04,0.01 -0.07,0.01 -0.08,0.01 -0.13,0.03 -0.16,0.06 -0.04,0.04 -0.06,0.08 -0.07,0.13 0.05,-0.08 0.12,-0.12 0.21,-0.12 0.07,0 0.13,0.03 0.18,0.08 0.05,0.06 0.07,0.13 0.07,0.21 0,0.08 -0.02,0.15 -0.07,0.2 -0.05,0.06 -0.12,0.08 -0.2,0.08zm0.35 0l0 -0.07c0.03,0 0.05,-0.01 0.07,-0.05 0.01,-0.03 0.03,-0.09 0.04,-0.17l0.03 -0.27 0.38 0 0 0.55 -0.08 0 0 -0.47 -0.22 0 -0.03 0.2c-0.01,0.1 -0.03,0.18 -0.06,0.22 -0.03,0.04 -0.07,0.06 -0.13,0.06zm0.94 0c-0.08,0 -0.15,-0.02 -0.2,-0.07 -0.06,-0.06 -0.08,-0.13 -0.08,-0.21 0,-0.08 0.02,-0.15 0.08,-0.21 0.05,-0.05 0.11,-0.08 0.19,-0.08 0.08,0 0.14,0.03 0.19,0.08 0.05,0.06 0.07,0.13 0.07,0.21l0 0.03 -0.44 0c0,0.05 0.02,0.09 0.06,0.13 0.03,0.04 0.08,0.05 0.13,0.05 0.07,0 0.13,-0.02 0.17,-0.06l0.04 0.05c-0.05,0.06 -0.12,0.08 -0.21,0.08zm0.17 -0.32c0,-0.04 -0.02,-0.09 -0.05,-0.12 -0.03,-0.04 -0.08,-0.06 -0.13,-0.06 -0.06,0 -0.1,0.02 -0.13,0.06 -0.03,0.03 -0.05,0.08 -0.05,0.12l0.36 0zm0.3 0.31l-0.08 0 0 -0.55 0.08 0 0 0.42 0.29 -0.42 0.08 0 0 0.55 -0.08 0 0 -0.42 -0.29 0.42zm0.34 -0.71c-0.05,0.07 -0.11,0.1 -0.2,0.1 -0.08,0 -0.14,-0.03 -0.19,-0.1l0.04 -0.03c0.04,0.05 0.09,0.08 0.15,0.08 0.07,0 0.12,-0.03 0.16,-0.08l0.04 0.03z"/>
  </g>
 </g>
</svg>
