<svg width="1920" height="1080" viewBox="0 0 1920 1080" fill="none" xmlns="http://www.w3.org/2000/svg">
<rect width="1920" height="1080" fill="#E9F5FC"/>
<mask id="mask0" mask-type="alpha" maskUnits="userSpaceOnUse" x="0" y="3" width="1920" height="1077">
<rect y="3" width="1920" height="1077" fill="#F2FAFF"/>
</mask>
<g mask="url(#mask0)">
<path d="M1614.95 1300.42C1537.83 1397.59 1287.71 1425.19 1172.29 1426.84C1129.16 1428.42 763.865 1418.16 633.222 1400.81C502.578 1383.46 398.57 1302.9 352.908 1250.84C307.246 1198.78 280.61 1071.12 286.952 914.948C293.294 758.777 267.926 665.818 233.68 566.662C199.434 467.506 118.257 348.519 105.573 248.124C92.8892 147.728 158.845 62.2062 233.68 -15.8792C308.515 -93.9646 262.11 -205.467 405.438 -350.483C548.766 -495.499 809.527 -453.405 864.068 -488.11C918.608 -522.815 1063.2 -535.209 1132.97 -521.575C1202.73 -507.941 1276.29 -505.462 1466.55 -390.193C1656.81 -274.924 1716.42 -89.0069 1763.35 62.2061C1810.28 213.419 1824.24 362.153 1811.55 478.661C1798.87 595.17 1781.11 735.228 1763.35 921.145C1745.6 1107.06 1711.35 1178.95 1614.95 1300.42Z" fill="#F2FAFF"/>
<path d="M1488.93 953.367C1429.83 1017.57 1238.14 1035.8 1149.69 1036.9C1116.64 1037.94 836.691 1031.16 736.572 1019.7C636.452 1008.23 556.745 955.005 521.752 920.611C486.759 886.217 466.346 801.871 471.206 698.689C476.067 595.508 456.626 534.09 430.381 468.578C404.136 403.066 341.926 324.452 332.206 258.121C322.485 191.79 373.031 135.286 430.381 83.6955C487.731 32.1048 452.169 -41.5647 562.009 -137.376C671.848 -233.187 871.684 -205.376 913.482 -228.305C955.279 -251.235 1066.09 -259.424 1119.55 -250.416C1173.01 -241.408 1229.39 -239.77 1375.2 -163.612C1521 -87.4547 1566.69 35.3803 1602.65 135.286C1638.62 235.192 1649.31 333.46 1639.59 410.436C1629.87 487.413 1616.26 579.949 1602.65 702.784C1589.05 825.619 1562.8 873.115 1488.93 953.367Z" fill="url(#paint0_linear)"/>
</g>
<defs>
<linearGradient id="paint0_linear" x1="987" y1="-254" x2="987" y2="1037" gradientUnits="userSpaceOnUse">
<stop stop-color="#D8EDF9"/>
<stop offset="1" stop-color="white"/>
</linearGradient>
</defs>
</svg>
