<svg width="1920" height="1080" viewBox="0 0 1920 1080" fill="none" xmlns="http://www.w3.org/2000/svg">
<path d="M653.952 -905.417C576.834 -1002.59 326.709 -1030.19 211.286 -1031.84C168.16 -1033.42 -197.135 -1023.16 -327.778 -1005.81C-458.422 -988.46 -562.43 -907.896 -608.092 -855.839C-653.754 -803.782 -680.39 -676.119 -674.048 -519.948C-667.706 -363.777 -693.074 -270.818 -727.32 -171.662C-761.566 -72.5064 -842.743 46.4808 -855.427 146.876C-868.111 247.272 -802.155 332.794 -727.32 410.879C-652.485 488.965 -698.89 600.467 -555.562 745.483C-412.234 890.499 -151.473 848.405 -96.9322 883.11C-42.3916 917.815 102.204 930.209 171.966 916.575C241.727 902.941 315.293 900.462 505.551 785.193C695.809 669.924 755.423 484.007 802.353 332.794C849.284 181.581 863.236 32.8469 850.552 -83.6614C837.868 -200.17 820.111 -340.228 802.353 -526.145C784.596 -712.063 750.35 -783.951 653.952 -905.417Z" fill="#FAFDFF"/>
<path d="M2101.95 -49.4171C2024.83 -146.59 1774.71 -174.188 1659.29 -175.841C1616.16 -177.417 1250.87 -167.165 1120.22 -149.813C989.578 -132.46 885.57 -51.8961 839.908 0.160889C794.246 52.2178 767.61 179.881 773.952 336.052C780.294 492.223 754.926 585.182 720.68 684.338C686.434 783.494 605.257 902.481 592.573 1002.88C579.889 1103.27 645.845 1188.79 720.68 1266.88C795.515 1344.96 749.11 1456.47 892.438 1601.48C1035.77 1746.5 1296.53 1704.41 1351.07 1739.11C1405.61 1773.81 1550.2 1786.21 1619.97 1772.58C1689.73 1758.94 1763.29 1756.46 1953.55 1641.19C2143.81 1525.92 2203.42 1340.01 2250.35 1188.79C2297.28 1037.58 2311.24 888.847 2298.55 772.339C2285.87 655.83 2268.11 515.772 2250.35 329.855C2232.6 143.937 2198.35 72.0491 2101.95 -49.4171Z" fill="#F2FAFF"/>
<path d="M520.926 -644.367C461.827 -708.569 270.141 -726.803 181.686 -727.895C148.637 -728.937 -131.309 -722.163 -231.428 -710.698C-331.548 -699.234 -411.255 -646.005 -446.248 -611.611C-481.241 -577.217 -501.654 -492.871 -496.794 -389.689C-491.933 -286.508 -511.374 -225.09 -537.619 -159.578C-563.864 -94.0664 -626.074 -15.452 -635.794 50.8788C-645.515 117.21 -594.969 173.714 -537.619 225.305C-480.269 276.895 -515.831 350.565 -405.991 446.376C-296.152 542.187 -96.3156 514.376 -54.5181 537.305C-12.7206 560.235 98.0912 568.424 151.553 559.416C205.015 550.408 261.393 548.77 407.198 472.612C553.003 396.455 598.689 273.62 634.654 173.714C670.619 73.8081 681.312 -24.4598 671.591 -101.436C661.871 -178.413 648.263 -270.949 634.654 -393.784C621.046 -516.619 594.801 -564.115 520.926 -644.367Z" fill="url(#paint0_linear)"/>
<path d="M1975.93 297.633C1916.83 233.431 1725.14 215.197 1636.69 214.105C1603.64 213.063 1323.69 219.837 1223.57 231.302C1123.45 242.766 1043.75 295.995 1008.75 330.389C973.759 364.783 953.346 449.129 958.206 552.311C963.067 655.492 943.626 716.91 917.381 782.422C891.136 847.934 828.926 926.548 819.206 992.879C809.485 1059.21 860.031 1115.71 917.381 1167.3C974.731 1218.9 939.169 1292.56 1049.01 1388.38C1158.85 1484.19 1358.68 1456.38 1400.48 1479.31C1442.28 1502.23 1553.09 1510.42 1606.55 1501.42C1660.01 1492.41 1716.39 1490.77 1862.2 1414.61C2008 1338.45 2053.69 1215.62 2089.65 1115.71C2125.62 1015.81 2136.31 917.54 2126.59 840.564C2116.87 763.587 2103.26 671.051 2089.65 548.216C2076.05 425.381 2049.8 377.885 1975.93 297.633Z" fill="url(#paint1_linear)"/>
<defs>
<linearGradient id="paint0_linear" x1="593.5" y1="367" x2="361.5" y2="38.5" gradientUnits="userSpaceOnUse">
<stop stop-color="#E9F6FD"/>
<stop offset="1" stop-color="white"/>
</linearGradient>
<linearGradient id="paint1_linear" x1="1474" y1="1505" x2="1474" y2="214" gradientUnits="userSpaceOnUse">
<stop stop-color="#D8EDF9"/>
<stop offset="1" stop-color="white"/>
</linearGradient>
</defs>
</svg>
