<svg width="211" height="130" viewBox="0 0 211 130" fill="none" xmlns="http://www.w3.org/2000/svg">
<path d="M8.876 66.6665H7.714V58.3645H2.254V66.6665H1.092V57.3285H8.876V66.6665ZM14.3488 66.8345C13.3968 66.8345 12.6361 66.4378 12.0668 65.6445V69.2425H11.0168V59.9045H12.0668V60.9125C12.3188 60.5578 12.6455 60.2732 13.0468 60.0585C13.4481 59.8438 13.8821 59.7365 14.3488 59.7365C15.2448 59.7365 15.9681 60.0585 16.5188 60.7025C17.0788 61.3372 17.3588 62.1958 17.3588 63.2785C17.3588 64.3612 17.0788 65.2245 16.5188 65.8685C15.9681 66.5125 15.2448 66.8345 14.3488 66.8345ZM14.0828 65.8965C14.7455 65.8965 15.2728 65.6538 15.6648 65.1685C16.0568 64.6738 16.2528 64.0438 16.2528 63.2785C16.2528 62.5132 16.0568 61.8878 15.6648 61.4025C15.2728 60.9172 14.7455 60.6745 14.0828 60.6745C13.6815 60.6745 13.2895 60.7818 12.9068 60.9965C12.5335 61.2018 12.2535 61.4538 12.0668 61.7525V64.8045C12.2535 65.1125 12.5335 65.3738 12.9068 65.5885C13.2895 65.7938 13.6815 65.8965 14.0828 65.8965ZM24.4045 65.8125C23.7978 66.4938 22.9905 66.8345 21.9825 66.8345C20.9745 66.8345 20.1625 66.4938 19.5465 65.8125C18.9398 65.1312 18.6365 64.2865 18.6365 63.2785C18.6365 62.2705 18.9398 61.4305 19.5465 60.7585C20.1625 60.0772 20.9745 59.7365 21.9825 59.7365C22.9905 59.7365 23.7978 60.0772 24.4045 60.7585C25.0205 61.4305 25.3285 62.2705 25.3285 63.2785C25.3285 64.2865 25.0205 65.1312 24.4045 65.8125ZM20.3305 65.1405C20.7412 65.6445 21.2918 65.8965 21.9825 65.8965C22.6732 65.8965 23.2192 65.6445 23.6205 65.1405C24.0218 64.6272 24.2225 64.0065 24.2225 63.2785C24.2225 62.5505 24.0218 61.9345 23.6205 61.4305C23.2192 60.9265 22.6732 60.6745 21.9825 60.6745C21.2918 60.6745 20.7412 60.9312 20.3305 61.4445C19.9292 61.9485 19.7285 62.5598 19.7285 63.2785C19.7285 64.0065 19.9292 64.6272 20.3305 65.1405ZM26.2422 68.3885V65.7985C26.5876 65.7332 26.8582 65.5278 27.0542 65.1825C27.2502 64.8278 27.4089 64.1792 27.5302 63.2365L27.9642 59.9045H32.6682V65.7425H33.4522V68.3885H32.4022V66.6665H27.2922V68.3885H26.2422ZM28.8882 60.8285L28.5802 63.3625C28.4216 64.5478 28.0949 65.3412 27.6002 65.7425H31.6182V60.8285H28.8882ZM40.1659 66.6665H39.1159V65.8965C38.5466 66.5218 37.7999 66.8345 36.8759 66.8345C36.2506 66.8345 35.6999 66.6338 35.2239 66.2325C34.7479 65.8312 34.5099 65.2852 34.5099 64.5945C34.5099 63.8852 34.7432 63.3392 35.2099 62.9565C35.6859 62.5645 36.2412 62.3685 36.8759 62.3685C37.8372 62.3685 38.5839 62.6765 39.1159 63.2925V62.0745C39.1159 61.6265 38.9572 61.2765 38.6399 61.0245C38.3226 60.7725 37.9119 60.6465 37.4079 60.6465C36.6146 60.6465 35.9239 60.9592 35.3359 61.5845L34.8459 60.8565C35.5646 60.1098 36.4652 59.7365 37.5479 59.7365C38.3226 59.7365 38.9526 59.9232 39.4379 60.2965C39.9232 60.6698 40.1659 61.2438 40.1659 62.0185V66.6665ZM37.2539 66.0785C38.0939 66.0785 38.7146 65.7985 39.1159 65.2385V63.9645C38.7146 63.4045 38.0939 63.1245 37.2539 63.1245C36.7686 63.1245 36.3672 63.2645 36.0499 63.5445C35.7419 63.8152 35.5879 64.1698 35.5879 64.6085C35.5879 65.0378 35.7419 65.3925 36.0499 65.6725C36.3672 65.9432 36.7686 66.0785 37.2539 66.0785ZM42.7607 66.6665H41.4167L44.4267 62.9705L41.4307 59.9045H42.7607L45.6727 62.8865V59.9045H46.7227V62.8725L49.6347 59.9045H50.9647L47.9547 62.9705L50.9787 66.6665H49.6347L47.1987 63.6285L46.7227 64.1045V66.6665H45.6727V64.1045L45.1967 63.6285L42.7607 66.6665ZM57.5018 66.6665H56.4518V65.8965C55.8825 66.5218 55.1358 66.8345 54.2118 66.8345C53.5865 66.8345 53.0358 66.6338 52.5598 66.2325C52.0838 65.8312 51.8458 65.2852 51.8458 64.5945C51.8458 63.8852 52.0792 63.3392 52.5458 62.9565C53.0218 62.5645 53.5772 62.3685 54.2118 62.3685C55.1732 62.3685 55.9198 62.6765 56.4518 63.2925V62.0745C56.4518 61.6265 56.2932 61.2765 55.9758 61.0245C55.6585 60.7725 55.2478 60.6465 54.7438 60.6465C53.9505 60.6465 53.2598 60.9592 52.6718 61.5845L52.1818 60.8565C52.9005 60.1098 53.8012 59.7365 54.8838 59.7365C55.6585 59.7365 56.2885 59.9232 56.7738 60.2965C57.2592 60.6698 57.5018 61.2438 57.5018 62.0185V66.6665ZM54.5898 66.0785C55.4298 66.0785 56.0505 65.7985 56.4518 65.2385V63.9645C56.0505 63.4045 55.4298 63.1245 54.5898 63.1245C54.1045 63.1245 53.7032 63.2645 53.3858 63.5445C53.0778 63.8152 52.9238 64.1698 52.9238 64.6085C52.9238 65.0378 53.0778 65.3925 53.3858 65.6725C53.7032 65.9432 54.1045 66.0785 54.5898 66.0785ZM61.0206 66.3305C61.0206 66.7412 60.9133 67.1332 60.6986 67.5065C60.484 67.8892 60.2086 68.2018 59.8726 68.4445L59.3546 68.0105C59.588 67.8612 59.7886 67.6605 59.9566 67.4085C60.134 67.1658 60.2366 66.9325 60.2646 66.7085C60.2273 66.7272 60.162 66.7365 60.0686 66.7365C59.8726 66.7365 59.7093 66.6712 59.5786 66.5405C59.4573 66.4005 59.3966 66.2278 59.3966 66.0225C59.3966 65.8172 59.4666 65.6398 59.6066 65.4905C59.756 65.3412 59.9333 65.2665 60.1386 65.2665C60.3813 65.2665 60.5866 65.3645 60.7546 65.5605C60.932 65.7472 61.0206 66.0038 61.0206 66.3305ZM65.6446 68.3885V65.7985C65.9899 65.7332 66.2606 65.5278 66.4566 65.1825C66.6526 64.8278 66.8112 64.1792 66.9326 63.2365L67.3666 59.9045H72.0706V65.7425H72.8546V68.3885H71.8046V66.6665H66.6946V68.3885H65.6446ZM68.2906 60.8285L67.9826 63.3625C67.8239 64.5478 67.4972 65.3412 67.0026 65.7425H71.0206V60.8285H68.2906ZM79.6662 65.8125C79.0596 66.4938 78.2522 66.8345 77.2442 66.8345C76.2362 66.8345 75.4242 66.4938 74.8082 65.8125C74.2016 65.1312 73.8982 64.2865 73.8982 63.2785C73.8982 62.2705 74.2016 61.4305 74.8082 60.7585C75.4242 60.0772 76.2362 59.7365 77.2442 59.7365C78.2522 59.7365 79.0596 60.0772 79.6662 60.7585C80.2822 61.4305 80.5902 62.2705 80.5902 63.2785C80.5902 64.2865 80.2822 65.1312 79.6662 65.8125ZM75.5922 65.1405C76.0029 65.6445 76.5536 65.8965 77.2442 65.8965C77.9349 65.8965 78.4809 65.6445 78.8822 65.1405C79.2836 64.6272 79.4842 64.0065 79.4842 63.2785C79.4842 62.5505 79.2836 61.9345 78.8822 61.4305C78.4809 60.9265 77.9349 60.6745 77.2442 60.6745C76.5536 60.6745 76.0029 60.9312 75.5922 61.4445C75.1909 61.9485 74.9902 62.5598 74.9902 63.2785C74.9902 64.0065 75.1909 64.6272 75.5922 65.1405ZM85.284 66.8345C84.2853 66.8345 83.4733 66.4985 82.848 65.8265C82.2226 65.1452 81.91 64.2958 81.91 63.2785C81.91 62.2612 82.2226 61.4165 82.848 60.7445C83.4733 60.0725 84.2853 59.7365 85.284 59.7365C86.3293 59.7365 87.1553 60.1285 87.762 60.9125L87.062 61.5565C86.6326 60.9685 86.0586 60.6745 85.34 60.6745C84.6306 60.6745 84.0613 60.9172 83.632 61.4025C83.212 61.8878 83.002 62.5132 83.002 63.2785C83.002 64.0438 83.212 64.6738 83.632 65.1685C84.0613 65.6538 84.6306 65.8965 85.34 65.8965C86.0493 65.8965 86.6233 65.6025 87.062 65.0145L87.762 65.6585C87.1553 66.4425 86.3293 66.8345 85.284 66.8345ZM91.5156 66.6665H90.4656V60.8285H88.5056V59.9045H93.4896V60.8285H91.5156V66.6665ZM100.144 66.6665H99.0944V65.8965C98.5251 66.5218 97.7784 66.8345 96.8544 66.8345C96.2291 66.8345 95.6784 66.6338 95.2024 66.2325C94.7264 65.8312 94.4884 65.2852 94.4884 64.5945C94.4884 63.8852 94.7217 63.3392 95.1884 62.9565C95.6644 62.5645 96.2197 62.3685 96.8544 62.3685C97.8157 62.3685 98.5624 62.6765 99.0944 63.2925V62.0745C99.0944 61.6265 98.9357 61.2765 98.6184 61.0245C98.3011 60.7725 97.8904 60.6465 97.3864 60.6465C96.5931 60.6465 95.9024 60.9592 95.3144 61.5845L94.8244 60.8565C95.5431 60.1098 96.4437 59.7365 97.5264 59.7365C98.3011 59.7365 98.9311 59.9232 99.4164 60.2965C99.9017 60.6698 100.144 61.2438 100.144 62.0185V66.6665ZM97.2324 66.0785C98.0724 66.0785 98.6931 65.7985 99.0944 65.2385V63.9645C98.6931 63.4045 98.0724 63.1245 97.2324 63.1245C96.7471 63.1245 96.3457 63.2645 96.0284 63.5445C95.7204 63.8152 95.5664 64.1698 95.5664 64.6085C95.5664 65.0378 95.7204 65.3925 96.0284 65.6725C96.3457 65.9432 96.7471 66.0785 97.2324 66.0785ZM106.043 66.6665H102.249V59.9045H105.973C106.561 59.9045 107.023 60.0632 107.359 60.3805C107.705 60.6978 107.877 61.1178 107.877 61.6405C107.877 62.0232 107.77 62.3545 107.555 62.6345C107.35 62.9052 107.093 63.0872 106.785 63.1805C107.131 63.2645 107.42 63.4652 107.653 63.7825C107.896 64.0998 108.017 64.4498 108.017 64.8325C108.017 65.3832 107.84 65.8265 107.485 66.1625C107.14 66.4985 106.659 66.6665 106.043 66.6665ZM105.833 65.7425C106.169 65.7425 106.435 65.6492 106.631 65.4625C106.827 65.2758 106.925 65.0238 106.925 64.7065C106.925 64.4172 106.827 64.1698 106.631 63.9645C106.435 63.7592 106.169 63.6565 105.833 63.6565H103.299V65.7425H105.833ZM105.791 62.7325C106.109 62.7325 106.356 62.6485 106.533 62.4805C106.711 62.3032 106.799 62.0745 106.799 61.7945C106.799 61.4958 106.711 61.2625 106.533 61.0945C106.356 60.9172 106.109 60.8285 105.791 60.8285H103.299V62.7325H105.791ZM115.951 66.6665H114.607L112.171 63.6285L111.051 64.7345V66.6665H110.001V59.9045H111.051V63.5025L114.607 59.9045H115.937L112.941 62.9705L115.951 66.6665ZM122.471 66.6665H121.421V65.8965C120.851 66.5218 120.105 66.8345 119.181 66.8345C118.555 66.8345 118.005 66.6338 117.529 66.2325C117.053 65.8312 116.815 65.2852 116.815 64.5945C116.815 63.8852 117.048 63.3392 117.515 62.9565C117.991 62.5645 118.546 62.3685 119.181 62.3685C120.142 62.3685 120.889 62.6765 121.421 63.2925V62.0745C121.421 61.6265 121.262 61.2765 120.945 61.0245C120.627 60.7725 120.217 60.6465 119.713 60.6465C118.919 60.6465 118.229 60.9592 117.641 61.5845L117.151 60.8565C117.869 60.1098 118.77 59.7365 119.853 59.7365C120.627 59.7365 121.257 59.9232 121.743 60.2965C122.228 60.6698 122.471 61.2438 122.471 62.0185V66.6665ZM119.559 66.0785C120.399 66.0785 121.019 65.7985 121.421 65.2385V63.9645C121.019 63.4045 120.399 63.1245 119.559 63.1245C119.073 63.1245 118.672 63.2645 118.355 63.5445C118.047 63.8152 117.893 64.1698 117.893 64.6085C117.893 65.0378 118.047 65.3925 118.355 65.6725C118.672 65.9432 119.073 66.0785 119.559 66.0785ZM125.989 66.3305C125.989 66.7412 125.882 67.1332 125.667 67.5065C125.453 67.8892 125.177 68.2018 124.841 68.4445L124.323 68.0105C124.557 67.8612 124.757 67.6605 124.925 67.4085C125.103 67.1658 125.205 66.9325 125.233 66.7085C125.196 66.7272 125.131 66.7365 125.037 66.7365C124.841 66.7365 124.678 66.6712 124.547 66.5405C124.426 66.4005 124.365 66.2278 124.365 66.0225C124.365 65.8172 124.435 65.6398 124.575 65.4905C124.725 65.3412 124.902 65.2665 125.107 65.2665C125.35 65.2665 125.555 65.3645 125.723 65.5605C125.901 65.7472 125.989 66.0038 125.989 66.3305ZM131.033 69.3125L131.201 68.3605C131.369 68.4352 131.561 68.4725 131.775 68.4725C132.018 68.4725 132.219 68.4212 132.377 68.3185C132.536 68.2158 132.671 68.0292 132.783 67.7585L133.231 66.7365L130.403 59.9045H131.537L133.791 65.4485L136.031 59.9045H137.179L133.791 68.0385C133.418 68.9345 132.755 69.3918 131.803 69.4105C131.523 69.4105 131.267 69.3778 131.033 69.3125ZM141.257 66.8345C140.258 66.8345 139.446 66.4985 138.821 65.8265C138.195 65.1452 137.883 64.2958 137.883 63.2785C137.883 62.2612 138.195 61.4165 138.821 60.7445C139.446 60.0725 140.258 59.7365 141.257 59.7365C142.302 59.7365 143.128 60.1285 143.735 60.9125L143.035 61.5565C142.605 60.9685 142.031 60.6745 141.313 60.6745C140.603 60.6745 140.034 60.9172 139.605 61.4025C139.185 61.8878 138.975 62.5132 138.975 63.2785C138.975 64.0438 139.185 64.6738 139.605 65.1685C140.034 65.6538 140.603 65.8965 141.313 65.8965C142.022 65.8965 142.596 65.6025 143.035 65.0145L143.735 65.6585C143.128 66.4425 142.302 66.8345 141.257 66.8345ZM147.488 66.6665H146.438V60.8285H144.478V59.9045H149.462V60.8285H147.488V66.6665ZM156.117 66.6665H155.067V65.8965C154.498 66.5218 153.751 66.8345 152.827 66.8345C152.202 66.8345 151.651 66.6338 151.175 66.2325C150.699 65.8312 150.461 65.2852 150.461 64.5945C150.461 63.8852 150.694 63.3392 151.161 62.9565C151.637 62.5645 152.192 62.3685 152.827 62.3685C153.788 62.3685 154.535 62.6765 155.067 63.2925V62.0745C155.067 61.6265 154.908 61.2765 154.591 61.0245C154.274 60.7725 153.863 60.6465 153.359 60.6465C152.566 60.6465 151.875 60.9592 151.287 61.5845L150.797 60.8565C151.516 60.1098 152.416 59.7365 153.499 59.7365C154.274 59.7365 154.904 59.9232 155.389 60.2965C155.874 60.6698 156.117 61.2438 156.117 62.0185V66.6665ZM153.205 66.0785C154.045 66.0785 154.666 65.7985 155.067 65.2385V63.9645C154.666 63.4045 154.045 63.1245 153.205 63.1245C152.72 63.1245 152.318 63.2645 152.001 63.5445C151.693 63.8152 151.539 64.1698 151.539 64.6085C151.539 65.0378 151.693 65.3925 152.001 65.6725C152.318 65.9432 152.72 66.0785 153.205 66.0785ZM159.272 66.6665H158.222V59.9045H159.272V62.7185H162.8V59.9045H163.85V66.6665H162.8V63.6425H159.272V66.6665ZM171.322 65.8125C170.716 66.4938 169.908 66.8345 168.9 66.8345C167.892 66.8345 167.08 66.4938 166.464 65.8125C165.858 65.1312 165.554 64.2865 165.554 63.2785C165.554 62.2705 165.858 61.4305 166.464 60.7585C167.08 60.0772 167.892 59.7365 168.9 59.7365C169.908 59.7365 170.716 60.0772 171.322 60.7585C171.938 61.4305 172.246 62.2705 172.246 63.2785C172.246 64.2865 171.938 65.1312 171.322 65.8125ZM167.248 65.1405C167.659 65.6445 168.21 65.8965 168.9 65.8965C169.591 65.8965 170.137 65.6445 170.538 65.1405C170.94 64.6272 171.14 64.0065 171.14 63.2785C171.14 62.5505 170.94 61.9345 170.538 61.4305C170.137 60.9265 169.591 60.6745 168.9 60.6745C168.21 60.6745 167.659 60.9312 167.248 61.4445C166.847 61.9485 166.646 62.5598 166.646 63.2785C166.646 64.0065 166.847 64.6272 167.248 65.1405ZM177.752 66.6665H173.958V59.9045H177.682C178.27 59.9045 178.732 60.0632 179.068 60.3805C179.414 60.6978 179.586 61.1178 179.586 61.6405C179.586 62.0232 179.479 62.3545 179.264 62.6345C179.059 62.9052 178.802 63.0872 178.494 63.1805C178.84 63.2645 179.129 63.4652 179.362 63.7825C179.605 64.0998 179.726 64.4498 179.726 64.8325C179.726 65.3832 179.549 65.8265 179.194 66.1625C178.849 66.4985 178.368 66.6665 177.752 66.6665ZM177.542 65.7425C177.878 65.7425 178.144 65.6492 178.34 65.4625C178.536 65.2758 178.634 65.0238 178.634 64.7065C178.634 64.4172 178.536 64.1698 178.34 63.9645C178.144 63.7592 177.878 63.6565 177.542 63.6565H175.008V65.7425H177.542ZM177.5 62.7325C177.818 62.7325 178.065 62.6485 178.242 62.4805C178.42 62.3032 178.508 62.0745 178.508 61.7945C178.508 61.4958 178.42 61.2625 178.242 61.0945C178.065 60.9172 177.818 60.8285 177.5 60.8285H175.008V62.7325H177.5ZM187.66 66.6665H186.316L183.88 63.6285L182.76 64.7345V66.6665H181.71V59.9045H182.76V63.5025L186.316 59.9045H187.646L184.65 62.9705L187.66 66.6665ZM194.18 66.6665H193.13V65.8965C192.56 66.5218 191.814 66.8345 190.89 66.8345C190.264 66.8345 189.714 66.6338 189.238 66.2325C188.762 65.8312 188.524 65.2852 188.524 64.5945C188.524 63.8852 188.757 63.3392 189.224 62.9565C189.7 62.5645 190.255 62.3685 190.89 62.3685C191.851 62.3685 192.598 62.6765 193.13 63.2925V62.0745C193.13 61.6265 192.971 61.2765 192.654 61.0245C192.336 60.7725 191.926 60.6465 191.422 60.6465C190.628 60.6465 189.938 60.9592 189.35 61.5845L188.86 60.8565C189.578 60.1098 190.479 59.7365 191.562 59.7365C192.336 59.7365 192.966 59.9232 193.452 60.2965C193.937 60.6698 194.18 61.2438 194.18 62.0185V66.6665ZM191.268 66.0785C192.108 66.0785 192.728 65.7985 193.13 65.2385V63.9645C192.728 63.4045 192.108 63.1245 191.268 63.1245C190.782 63.1245 190.381 63.2645 190.064 63.5445C189.756 63.8152 189.602 64.1698 189.602 64.6085C189.602 65.0378 189.756 65.3925 190.064 65.6725C190.381 65.9432 190.782 66.0785 191.268 66.0785ZM7 83.6665H5.656L3.22 80.6285L2.1 81.7345V83.6665H1.05V76.9045H2.1V80.5025L5.656 76.9045H6.986L3.99 79.9705L7 83.6665ZM13.5194 83.6665H12.4694V82.8965C11.9001 83.5218 11.1534 83.8345 10.2294 83.8345C9.60407 83.8345 9.05341 83.6338 8.57741 83.2325C8.10141 82.8312 7.86341 82.2852 7.86341 81.5945C7.86341 80.8852 8.09674 80.3392 8.56341 79.9565C9.03941 79.5645 9.59474 79.3685 10.2294 79.3685C11.1907 79.3685 11.9374 79.6765 12.4694 80.2925V79.0745C12.4694 78.6265 12.3107 78.2765 11.9934 78.0245C11.6761 77.7725 11.2654 77.6465 10.7614 77.6465C9.96807 77.6465 9.27741 77.9592 8.68941 78.5845L8.19941 77.8565C8.91807 77.1098 9.81874 76.7365 10.9014 76.7365C11.6761 76.7365 12.3061 76.9232 12.7914 77.2965C13.2767 77.6698 13.5194 78.2438 13.5194 79.0185V83.6665ZM10.6074 83.0785C11.4474 83.0785 12.0681 82.7985 12.4694 82.2385V80.9645C12.0681 80.4045 11.4474 80.1245 10.6074 80.1245C10.1221 80.1245 9.72074 80.2645 9.40341 80.5445C9.09541 80.8152 8.94141 81.1698 8.94141 81.6085C8.94141 82.0378 9.09541 82.3925 9.40341 82.6725C9.72074 82.9432 10.1221 83.0785 10.6074 83.0785ZM18.9562 83.8345C18.0042 83.8345 17.2436 83.4378 16.6742 82.6445V86.2425H15.6242V76.9045H16.6742V77.9125C16.9262 77.5578 17.2529 77.2732 17.6542 77.0585C18.0556 76.8438 18.4896 76.7365 18.9562 76.7365C19.8522 76.7365 20.5756 77.0585 21.1262 77.7025C21.6862 78.3372 21.9662 79.1958 21.9662 80.2785C21.9662 81.3612 21.6862 82.2245 21.1262 82.8685C20.5756 83.5125 19.8522 83.8345 18.9562 83.8345ZM18.6902 82.8965C19.3529 82.8965 19.8802 82.6538 20.2722 82.1685C20.6642 81.6738 20.8602 81.0438 20.8602 80.2785C20.8602 79.5132 20.6642 78.8878 20.2722 78.4025C19.8802 77.9172 19.3529 77.6745 18.6902 77.6745C18.2889 77.6745 17.8969 77.7818 17.5142 77.9965C17.1409 78.2018 16.8609 78.4538 16.6742 78.7525V81.8045C16.8609 82.1125 17.1409 82.3738 17.5142 82.5885C17.8969 82.7938 18.2889 82.8965 18.6902 82.8965ZM29.5859 83.6665H28.2419L25.8059 80.6285L24.6859 81.7345V83.6665H23.6359V76.9045H24.6859V80.5025L28.2419 76.9045H29.5719L26.5759 79.9705L29.5859 83.6665ZM36.1053 83.6665H35.0553V82.8965C34.486 83.5218 33.7393 83.8345 32.8153 83.8345C32.19 83.8345 31.6393 83.6338 31.1633 83.2325C30.6873 82.8312 30.4493 82.2852 30.4493 81.5945C30.4493 80.8852 30.6827 80.3392 31.1493 79.9565C31.6253 79.5645 32.1807 79.3685 32.8153 79.3685C33.7767 79.3685 34.5233 79.6765 35.0553 80.2925V79.0745C35.0553 78.6265 34.8967 78.2765 34.5793 78.0245C34.262 77.7725 33.8513 77.6465 33.3473 77.6465C32.554 77.6465 31.8633 77.9592 31.2753 78.5845L30.7853 77.8565C31.504 77.1098 32.4047 76.7365 33.4873 76.7365C34.262 76.7365 34.892 76.9232 35.3773 77.2965C35.8627 77.6698 36.1053 78.2438 36.1053 79.0185V83.6665ZM33.1933 83.0785C34.0333 83.0785 34.654 82.7985 35.0553 82.2385V80.9645C34.654 80.4045 34.0333 80.1245 33.1933 80.1245C32.708 80.1245 32.3067 80.2645 31.9893 80.5445C31.6813 80.8152 31.5273 81.1698 31.5273 81.6085C31.5273 82.0378 31.6813 82.3925 31.9893 82.6725C32.3067 82.9432 32.708 83.0785 33.1933 83.0785ZM41.1922 83.8345C40.1935 83.8345 39.3815 83.4985 38.7562 82.8265C38.1308 82.1452 37.8182 81.2958 37.8182 80.2785C37.8182 79.2612 38.1308 78.4165 38.7562 77.7445C39.3815 77.0725 40.1935 76.7365 41.1922 76.7365C42.2375 76.7365 43.0635 77.1285 43.6702 77.9125L42.9702 78.5565C42.5408 77.9685 41.9668 77.6745 41.2482 77.6745C40.5388 77.6745 39.9695 77.9172 39.5402 78.4025C39.1202 78.8878 38.9102 79.5132 38.9102 80.2785C38.9102 81.0438 39.1202 81.6738 39.5402 82.1685C39.9695 82.6538 40.5388 82.8965 41.2482 82.8965C41.9575 82.8965 42.5315 82.6025 42.9702 82.0145L43.6702 82.6585C43.0635 83.4425 42.2375 83.8345 41.1922 83.8345ZM46.1918 83.6665H45.1418V76.9045H46.1918V79.7185H49.7198V76.9045H50.7698V83.6665H49.7198V80.6425H46.1918V83.6665ZM52.8664 76.9045H53.9164V79.5225H56.4504C57.1224 79.5225 57.6451 79.7232 58.0184 80.1245C58.3917 80.5165 58.5784 81.0065 58.5784 81.5945C58.5784 82.1825 58.3871 82.6772 58.0044 83.0785C57.6311 83.4705 57.1131 83.6665 56.4504 83.6665H52.8664V76.9045ZM56.3384 80.4465H53.9164V82.7425H56.3384C56.7117 82.7425 56.9964 82.6398 57.1924 82.4345C57.3977 82.2198 57.5004 81.9398 57.5004 81.5945C57.5004 81.2492 57.3977 80.9738 57.1924 80.7685C56.9964 80.5538 56.7117 80.4465 56.3384 80.4465ZM60.7344 83.6665H59.6844V76.9045H60.7344V83.6665ZM68.4332 83.6665H67.2152L65.1852 80.8945L63.1552 83.6665H61.9512L64.5412 80.1945L62.0912 76.9045H63.3092L65.1852 79.4805L67.0612 76.9045H68.2792L65.8292 80.1945L68.4332 83.6665ZM74.5532 82.1405C74.9638 82.6445 75.5145 82.8965 76.2052 82.8965C76.8958 82.8965 77.4418 82.6445 77.8432 82.1405C78.2445 81.6272 78.4452 81.0018 78.4452 80.2645C78.4452 79.5458 78.2445 78.9345 77.8432 78.4305C77.4418 77.9265 76.8958 77.6745 76.2052 77.6745C75.5145 77.6745 74.9638 77.9265 74.5532 78.4305C74.1518 78.9345 73.9512 79.5458 73.9512 80.2645C73.9512 81.0018 74.1518 81.6272 74.5532 82.1405ZM76.2052 83.8345C75.1878 83.8345 74.3758 83.4752 73.7692 82.7565C73.1625 82.0378 72.8592 81.1092 72.8592 79.9705C72.8592 78.3652 73.1485 77.1798 73.7272 76.4145C74.3058 75.6398 75.1972 75.1732 76.4012 75.0145C77.1198 74.9025 77.6145 74.7952 77.8852 74.6925C78.1652 74.5898 78.3052 74.4685 78.3052 74.3285H79.3272C79.3272 74.5898 79.2478 74.8185 79.0892 75.0145C78.9305 75.2012 78.7018 75.3505 78.4032 75.4625C78.1138 75.5745 77.8385 75.6632 77.5772 75.7285C77.3252 75.7845 77.0218 75.8358 76.6672 75.8825C75.7338 76.0132 75.0572 76.2698 74.6372 76.6525C74.2265 77.0352 73.9558 77.5438 73.8252 78.1785C74.4412 77.2172 75.2905 76.7365 76.3732 76.7365C77.3065 76.7365 78.0672 77.0772 78.6552 77.7585C79.2432 78.4398 79.5372 79.2752 79.5372 80.2645C79.5372 81.2725 79.2338 82.1218 78.6272 82.8125C78.0205 83.4938 77.2132 83.8345 76.2052 83.8345ZM86.6093 83.6665H85.5593V82.8965C84.9899 83.5218 84.2433 83.8345 83.3193 83.8345C82.6939 83.8345 82.1433 83.6338 81.6673 83.2325C81.1913 82.8312 80.9533 82.2852 80.9533 81.5945C80.9533 80.8852 81.1866 80.3392 81.6533 79.9565C82.1293 79.5645 82.6846 79.3685 83.3193 79.3685C84.2806 79.3685 85.0273 79.6765 85.5593 80.2925V79.0745C85.5593 78.6265 85.4006 78.2765 85.0833 78.0245C84.7659 77.7725 84.3553 77.6465 83.8513 77.6465C83.0579 77.6465 82.3673 77.9592 81.7793 78.5845L81.2893 77.8565C82.0079 77.1098 82.9086 76.7365 83.9913 76.7365C84.7659 76.7365 85.3959 76.9232 85.8813 77.2965C86.3666 77.6698 86.6093 78.2438 86.6093 79.0185V83.6665ZM83.6973 83.0785C84.5373 83.0785 85.1579 82.7985 85.5593 82.2385V80.9645C85.1579 80.4045 84.5373 80.1245 83.6973 80.1245C83.2119 80.1245 82.8106 80.2645 82.4933 80.5445C82.1853 80.8152 82.0312 81.1698 82.0312 81.6085C82.0312 82.0378 82.1853 82.3925 82.4933 82.6725C82.8106 82.9432 83.2119 83.0785 83.6973 83.0785ZM91.6961 83.8345C90.6974 83.8345 89.8854 83.4985 89.2601 82.8265C88.6347 82.1452 88.3221 81.2958 88.3221 80.2785C88.3221 79.2612 88.6347 78.4165 89.2601 77.7445C89.8854 77.0725 90.6974 76.7365 91.6961 76.7365C92.7414 76.7365 93.5674 77.1285 94.1741 77.9125L93.4741 78.5565C93.0447 77.9685 92.4707 77.6745 91.7521 77.6745C91.0427 77.6745 90.4734 77.9172 90.0441 78.4025C89.6241 78.8878 89.4141 79.5132 89.4141 80.2785C89.4141 81.0438 89.6241 81.6738 90.0441 82.1685C90.4734 82.6538 91.0427 82.8965 91.7521 82.8965C92.4614 82.8965 93.0354 82.6025 93.4741 82.0145L94.1741 82.6585C93.5674 83.4425 92.7414 83.8345 91.6961 83.8345ZM98.6277 83.8345C97.629 83.8345 96.817 83.4985 96.1917 82.8265C95.5664 82.1452 95.2537 81.2958 95.2537 80.2785C95.2537 79.2612 95.5664 78.4165 96.1917 77.7445C96.817 77.0725 97.629 76.7365 98.6277 76.7365C99.673 76.7365 100.499 77.1285 101.106 77.9125L100.406 78.5565C99.9764 77.9685 99.4024 77.6745 98.6837 77.6745C97.9744 77.6745 97.405 77.9172 96.9757 78.4025C96.5557 78.8878 96.3457 79.5132 96.3457 80.2785C96.3457 81.0438 96.5557 81.6738 96.9757 82.1685C97.405 82.6538 97.9744 82.8965 98.6837 82.8965C99.393 82.8965 99.967 82.6025 100.406 82.0145L101.106 82.6585C100.499 83.4425 99.673 83.8345 98.6277 83.8345ZM105.629 83.8345C104.621 83.8345 103.795 83.5078 103.151 82.8545C102.507 82.1918 102.185 81.3332 102.185 80.2785C102.185 79.2892 102.503 78.4538 103.137 77.7725C103.772 77.0818 104.565 76.7365 105.517 76.7365C106.516 76.7365 107.305 77.0818 107.883 77.7725C108.471 78.4538 108.765 79.3172 108.765 80.3625V80.6285H103.291C103.338 81.2912 103.581 81.8465 104.019 82.2945C104.458 82.7425 105.027 82.9665 105.727 82.9665C106.567 82.9665 107.263 82.6818 107.813 82.1125L108.317 82.7985C107.627 83.4892 106.731 83.8345 105.629 83.8345ZM107.729 79.8585C107.72 79.2798 107.524 78.7618 107.141 78.3045C106.759 77.8378 106.213 77.6045 105.503 77.6045C104.831 77.6045 104.299 77.8332 103.907 78.2905C103.525 78.7478 103.319 79.2705 103.291 79.8585H107.729ZM111.474 83.6665H110.466V76.9045H111.516V82.0705L115.058 76.9045H116.094V83.6665H115.044V78.4025L111.474 83.6665ZM115.73 74.9025C115.123 75.7238 114.307 76.1345 113.28 76.1345C112.263 76.1345 111.441 75.7238 110.816 74.9025L111.334 74.4545C111.819 75.1265 112.468 75.4625 113.28 75.4625C114.101 75.4625 114.745 75.1265 115.212 74.4545L115.73 74.9025ZM119.241 83.6665H118.191V76.9045H119.241V79.7185H122.769V76.9045H123.819V83.6665H122.769V80.6425H119.241V83.6665ZM131.291 82.8125C130.685 83.4938 129.877 83.8345 128.869 83.8345C127.861 83.8345 127.049 83.4938 126.433 82.8125C125.827 82.1312 125.523 81.2865 125.523 80.2785C125.523 79.2705 125.827 78.4305 126.433 77.7585C127.049 77.0772 127.861 76.7365 128.869 76.7365C129.877 76.7365 130.685 77.0772 131.291 77.7585C131.907 78.4305 132.215 79.2705 132.215 80.2785C132.215 81.2865 131.907 82.1312 131.291 82.8125ZM127.217 82.1405C127.628 82.6445 128.179 82.8965 128.869 82.8965C129.56 82.8965 130.106 82.6445 130.507 82.1405C130.909 81.6272 131.109 81.0065 131.109 80.2785C131.109 79.5505 130.909 78.9345 130.507 78.4305C130.106 77.9265 129.56 77.6745 128.869 77.6745C128.179 77.6745 127.628 77.9312 127.217 78.4445C126.816 78.9485 126.615 79.5598 126.615 80.2785C126.615 81.0065 126.816 81.6272 127.217 82.1405ZM137.721 83.6665H133.927V76.9045H137.651C138.239 76.9045 138.701 77.0632 139.037 77.3805C139.382 77.6978 139.555 78.1178 139.555 78.6405C139.555 79.0232 139.448 79.3545 139.233 79.6345C139.028 79.9052 138.771 80.0872 138.463 80.1805C138.808 80.2645 139.098 80.4652 139.331 80.7825C139.574 81.0998 139.695 81.4498 139.695 81.8325C139.695 82.3832 139.518 82.8265 139.163 83.1625C138.818 83.4985 138.337 83.6665 137.721 83.6665ZM137.511 82.7425C137.847 82.7425 138.113 82.6492 138.309 82.4625C138.505 82.2758 138.603 82.0238 138.603 81.7065C138.603 81.4172 138.505 81.1698 138.309 80.9645C138.113 80.7592 137.847 80.6565 137.511 80.6565H134.977V82.7425H137.511ZM137.469 79.7325C137.786 79.7325 138.034 79.6485 138.211 79.4805C138.388 79.3032 138.477 79.0745 138.477 78.7945C138.477 78.4958 138.388 78.2625 138.211 78.0945C138.034 77.9172 137.786 77.8285 137.469 77.8285H134.977V79.7325H137.469ZM146.492 83.6665H145.33V74.3285H146.492V83.6665ZM156.408 83.6665H155.288L149.842 76.2185V83.6665H148.68V74.3285H149.87L155.246 81.6225V74.3285H156.408V83.6665ZM162.064 83.6665H160.902V75.3645H157.948V74.3285H165.032V75.3645H162.064V83.6665ZM172.694 83.6665H166.576V74.3285H172.694V75.3645H167.738V78.3745H172.596V79.4105H167.738V82.6305H172.694V83.6665ZM182.401 83.6665H181.001L178.019 79.6905L175.037 83.6665H173.623L177.263 78.8785L173.833 74.3285H175.247L178.019 78.0665L180.777 74.3285H182.191L178.775 78.8645L182.401 83.6665Z" fill="#F2FAFF"/>
<path d="M137.199 0.012207H153.5L182.987 41.9741H165.91L137.199 0.012207Z" fill="white"/>
<path d="M182.801 0.012207H166.5L136.992 41.9739H154L182.801 0.012207Z" fill="white"/>
<path d="M106 0.012207H120V42.0122H106V0.012207Z" fill="white"/>
<path d="M106 0.012207H120V42.0122H106V0.012207Z" fill="white"/>
<path d="M133.945 0.012207L133.945 10.0122L106 10.0122L106 0.0122058L133.945 0.012207Z" fill="white"/>
<path d="M133.945 0.012207L133.945 10.0122L106 10.0122L106 0.0122058L133.945 0.012207Z" fill="white"/>
<path d="M134 16.0122L134 26.0122L106 26.0122L106 16.0122L134 16.0122Z" fill="white"/>
<path d="M134 16.0122L134 26.0122L106 26.0122L106 16.0122L134 16.0122Z" fill="white"/>
<path d="M133.945 32.0049L133.945 42.0122L106 42.0122L106 32.0049L133.945 32.0049Z" fill="white"/>
<path d="M133.945 32.0049L133.945 42.0122L106 42.0122L106 32.0049L133.945 32.0049Z" fill="white"/>
<path d="M77 3.43323e-05L91 0V42.0122L77 42.0122V3.43323e-05Z" fill="white"/>
<path d="M77 3.43323e-05L91 0V42.0122L77 42.0122V3.43323e-05Z" fill="white"/>
<path d="M103 0.0122087L103 11.0122L64 11.0122L64 0.0122053L103 0.0122087Z" fill="white"/>
<path d="M103 0.0122087L103 11.0122L64 11.0122L64 0.0122053L103 0.0122087Z" fill="white"/>
<path d="M18 0.012207H31.9722L60.9722 42.0122H47L18 0.012207Z" fill="white"/>
<path d="M47 0.012207H60.9722V42.0122H47V0.012207Z" fill="white"/>
<path d="M18 0.012207H31.9722L60.9722 42.0122H47L18 0.012207Z" fill="white"/>
<path d="M18 0.012207H31.9722V42.0122H18L18 0.012207Z" fill="white"/>
<path d="M1 0.012207H14.9722V42.0122H1V0.012207Z" fill="white"/>
</svg>
