<svg width="73" height="78" viewBox="0 0 73 78" fill="none" xmlns="http://www.w3.org/2000/svg">
<path d="M64 43.0704C64 60.9261 49.6731 74 32 74C14.3269 74 0 59.5251 0 41.6694C0 23.8137 14.3269 10.7398 32 10.7398C49.6731 10.7398 64 25.2147 64 43.0704Z" fill="#44C1D2" fill-opacity="0.2"/>
<path d="M31.8715 0L50.3467 16.5778L46.4742 14.2284L42.0224 12.3572L36.9179 11.1193L32 10.7398L26.7292 11.1359L21.8333 12.2585L17.1741 14.1043L12.9629 16.5806L31.8715 0Z" fill="#44C1D2" fill-opacity="0.2"/>
<circle cx="32" cy="41" r="20" stroke="url(#paint0_linear)" stroke-opacity="0.65" stroke-width="2"/>
<circle cx="52" cy="57" r="20" fill="url(#paint1_linear)" stroke="url(#paint2_linear)" stroke-width="2"/>
<path d="M52.6581 49.4343C52.6886 49.4034 52.7497 49.4034 52.7802 49.4343L57.8482 51.7857C57.9704 51.8475 57.9704 52.0022 57.8482 52.0332L52.7802 54.3845C52.7497 54.4155 52.6886 54.4155 52.6581 54.3845L47.5901 52.0332C47.468 51.9713 47.468 51.8166 47.5901 51.7857L52.6581 49.4343Z" fill="white"/>
<path d="M58.9473 53.3635C59.0388 53.3326 59.1304 53.3945 59.1304 53.4873V60.8496C59.1304 60.9114 59.0999 60.9424 59.0388 60.9733L53.7266 63.448C53.635 63.4789 53.5435 63.4171 53.5435 63.3243V55.962C53.5435 55.9001 53.574 55.8692 53.635 55.8382L58.9473 53.3635Z" fill="white"/>
<path d="M51.8951 55.9617V63.324C51.8951 63.4168 51.8035 63.5096 51.7119 63.4477L46.3997 60.973C46.3386 60.9421 46.3081 60.9112 46.3081 60.8493V53.487C46.3081 53.3942 46.3997 53.3014 46.4913 53.3633L51.8035 55.838C51.8646 55.8689 51.8951 55.8999 51.8951 55.9617Z" fill="white"/>
<path d="M37.0881 55.7142C37.2102 55.4668 37.485 55.3121 37.7598 55.3121H39.5305C40.08 48.4136 45.7891 43 52.7195 43C60.0467 43 66 49.0323 66 56.4567C66 62.7055 61.6342 68.2429 55.6198 69.5731C55.5587 69.604 55.4672 69.604 55.4061 69.604C54.9481 69.604 54.5207 69.2637 54.4291 68.7997C54.307 68.2429 54.6428 67.686 55.1924 67.5623C60.2909 66.4177 63.985 61.7465 63.985 56.4257C63.985 50.146 58.9476 45.0417 52.75 45.0417C46.9188 45.0417 42.1255 49.5582 41.576 55.3121H43.2246C43.4994 55.3121 43.7742 55.4668 43.8963 55.7142C44.0184 55.9617 44.0184 56.2711 43.8352 56.5185L41.1181 60.4782C40.9654 60.6948 40.7517 60.8185 40.5075 60.8185C40.2632 60.8185 40.019 60.6948 39.8969 60.4782L37.1186 56.5185C36.966 56.2711 36.966 55.9617 37.0881 55.7142Z" fill="white"/>
<path d="M50.8265 67.6548C50.9181 67.6858 51.0402 67.6858 51.1318 67.7167C51.4371 67.7477 51.7424 67.7786 52.0477 67.8095C52.5972 67.8405 53.0247 68.3355 52.9941 68.8924C52.9636 69.4493 52.5056 69.8516 51.9866 69.8516C51.9561 69.8516 51.9561 69.8516 51.9256 69.8516C51.5592 69.8206 51.1929 69.7897 50.857 69.7278C50.7349 69.6969 50.6128 69.6969 50.4907 69.6659C49.9411 69.5731 49.5748 69.0162 49.6664 68.4593C49.758 67.9024 50.2464 67.562 50.8265 67.6548Z" fill="white"/>
<path d="M43.6216 63.108C43.8659 63.4483 44.1406 63.7885 44.4154 64.0979C44.7818 64.5309 44.7512 65.1805 44.3543 65.5517C44.1712 65.7373 43.9269 65.8301 43.6827 65.8301C43.4079 65.8301 43.1332 65.7063 42.9195 65.4898C42.5836 65.1186 42.2783 64.7474 42.0036 64.3453C41.6677 63.8813 41.7899 63.2317 42.2173 62.9224C42.6752 62.5512 43.2858 62.675 43.6216 63.108Z" fill="white"/>
<path d="M46.7659 66.1087C47.1017 66.3252 47.4681 66.5417 47.865 66.7272C48.384 66.9746 48.5672 67.593 48.3534 68.0878C48.1703 68.4588 47.8039 68.6753 47.4375 68.6753C47.2849 68.6753 47.1322 68.6444 47.0101 68.5825C46.5827 68.3661 46.1553 68.1187 45.7278 67.8713C45.2394 67.5621 45.1172 66.9436 45.392 66.4489C45.6668 65.9541 46.3079 65.7995 46.7659 66.1087Z" fill="white"/>
<path d="M36.7952 41.375H32.8702V45.825H31.1202V41.375H27.1952V39.75H31.1202V35.475H32.8702V39.75H36.7952V41.375Z" fill="#4DC5D4"/>
<defs>
<linearGradient id="paint0_linear" x1="11" y1="41" x2="53" y2="41" gradientUnits="userSpaceOnUse">
<stop stop-color="#479DD4"/>
<stop offset="1" stop-color="#43C3D1"/>
</linearGradient>
<linearGradient id="paint1_linear" x1="31" y1="57" x2="73" y2="57" gradientUnits="userSpaceOnUse">
<stop stop-color="#479DD4"/>
<stop offset="1" stop-color="#43C3D1"/>
</linearGradient>
<linearGradient id="paint2_linear" x1="31" y1="57" x2="73" y2="57" gradientUnits="userSpaceOnUse">
<stop stop-color="#479DD4"/>
<stop offset="1" stop-color="#43C3D1"/>
</linearGradient>
</defs>
</svg>
