<?xml version="1.0" encoding="UTF-8"?>
<!DOCTYPE svg PUBLIC "-//W3C//DTD SVG 1.1//EN" "http://www.w3.org/Graphics/SVG/1.1/DTD/svg11.dtd">
<!-- Creator: CorelDRAW 2020 (64-Bit) -->
<svg xmlns="http://www.w3.org/2000/svg" xml:space="preserve" width="13px" height="17px" version="1.1" style="shape-rendering:geometricPrecision; text-rendering:geometricPrecision; image-rendering:optimizeQuality; fill-rule:evenodd; clip-rule:evenodd"
viewBox="0 0 0.97 1.26"
 xmlns:xlink="http://www.w3.org/1999/xlink"
 xmlns:xodm="http://www.corel.com/coreldraw/odm/2003">
 <defs>
  <style type="text/css">
   <![CDATA[
    .fil1 {fill:#47A0D4}
    .fil0 {fill:#C4C0C0}
   ]]>
  </style>
 </defs>
 <rect class="fil0" x="-137.56" y="-72.43" width="262.1" height="185.33"/>
 <g id="Camada_x0020_1">
  <metadata id="CorelCorpID_0Corel-Layer"/>
  <path class="fil1" d="M0.3 1.11l0.08 0 0 0.07 -0.08 0 0 -0.07zm-0.07 0l0.07 0 0 0.07 -0.07 0 0 -0.07zm0.07 -0.08l0.08 0 0 0.08 -0.08 0 0 -0.08zm-0.07 0l0.07 0 0 0.08 -0.07 0 0 -0.08zm0.07 -0.07l0.08 0 0 0.07 -0.08 0 0 -0.07zm-0.07 0l0.07 0 0 0 0 0.07 -0.07 0 0 -0.07zm0.3 0l0.07 0 0 0.07 -0.07 0 0 -0.07zm-0.08 0l0.08 0 0 0.07 -0.08 0 0 -0.07zm-0.15 -0.08l0.08 0 0 0.07 -0.08 0 0 -0.07zm-0.07 0l0.07 0 0 0.07 -0.07 0 0 -0.07zm0.07 -0.07l0.08 0 -0.01 0.07 -0.07 0 0 -0.07zm-0.07 0l0.07 0 0 0.07 -0.07 0 0 -0.07zm0.07 -0.08l0.08 0 0 0.07 -0.08 0 0 -0.07zm-0.07 0l0.07 0 0 0.07 0 0 -0.07 0 0 -0.07zm0.45 -0.08l0.07 0 0 0.08 -0.07 0 0 -0.08zm-0.07 0l0.07 0 0 0.08 -0.08 0 0.01 -0.08zm-0.08 0l0.07 0 0 0.08 -0.07 0 0 -0.08zm-0.08 0l0.08 0 0 0.08 -0.08 0 0 -0.08zm-0.07 0l0.07 0 0 0.08 -0.07 0 0 -0.08zm-0.08 0l0.08 0 0 0.08 -0.08 0 0 -0.08zm-0.07 0l0.07 0 0 0.08 -0.07 0 0 -0.08zm0.52 -0.07l0.08 0 0 0.07 -0.08 0 0 -0.07zm-0.07 0l0.07 0 0 0.07 -0.07 0 0 -0.07zm-0.38 0l0.08 0 -0.01 0.07 -0.07 0 0 -0.07zm-0.07 0l0.07 0 0 0.07 -0.07 0 0 -0.07zm0.6 -0.07l0.07 0 0 0.07 -0.07 0 0 -0.07zm-0.08 0l0.08 0 0 0.07 -0.08 0 0 -0.07zm-0.45 0l0.08 0 0 0.07 -0.08 0 0 -0.07zm-0.07 0l0.07 0 0 0.07 -0.07 0 0 -0.07zm0.6 -0.08l0.07 0 0 0.07 -0.07 0 0 -0.07zm-0.53 0l0.08 0 -0.01 0.07 -0.07 0 0 -0.07zm-0.07 0l0.07 0 0 0.07 -0.07 0 0 -0.07zm0.6 -0.08l0.07 0 0 0.08 -0.07 0 0 -0.08zm-0.53 0l0.08 0 0 0.08 -0.08 0 0 -0.08zm-0.07 0l0.07 0 0 0.08 0 0 -0.07 0 0 -0.08zm0.6 -0.07l0.07 0 0 0.07 -0.07 0 0 -0.07zm-0.53 0l0.08 0 0 0.07 -0.08 0 0 -0.07zm-0.07 0l0.07 0 0 0.07 -0.07 0 0 -0.07zm0.6 -0.08l0.07 0 0 0.08 -0.07 0 0 -0.08zm-0.08 0l0.08 0 0 0.08 -0.08 0 0 -0.08zm-0.45 0l0.08 0 0 0.08 -0.08 0 0 -0.08zm-0.07 0l0.07 0 0 0.08 -0.07 0 0 -0.08zm0.52 -0.07l0.08 0 0 0.07 -0.08 0 0 -0.07zm-0.07 0l0.07 0 0 0.07 -0.07 0 0 -0.07zm-0.23 0.05l0 0 0 -0.05 0.08 0 0 0.05 0 0 0 -0.05 0.07 0c0,0.01 0,0.04 0.01,0.05l-0.01 0 0.01 -0.05 0.07 0 0 0.07c-0.01,0 -0.01,0 -0.01,0l0 0.01c0.01,0 0,0 0,0l0.01 0c0,0 0,0 0,-0.01l0.07 0 0 0.08c0,0 -0.01,-0.01 -0.01,0l0.01 0 0 0.04 0 0 0 0c0.01,-0.01 0,-0.03 0,-0.04l0.08 0 0 0.07c-0.02,0 -0.06,0 -0.07,0l0.07 0 0 0.08 -0.07 0c0.01,0 0.05,0 0.07,0l0 0.07 -0.08 0c0,-0.01 0.01,-0.03 0,-0.04l0 0 0 0 0 0.04 -0.02 0.01 0 0 0.02 0 0 0.07c-0.01,0 -0.03,0 -0.04,0 -0.04,0 -0.03,0 -0.03,-0.01l-0.01 0c0,0 0.01,0 0,0l-0.01 0.01c0.01,0 0.01,0 0.02,0l0 0.07 -0.08 0 -0.07 0 0 -0.05 0 0 0 0.05 -0.08 0 0 -0.05 0 0 0 0.05 -0.07 0 0 -0.07c0,-0.02 -0.01,-0.05 0,-0.07 0,-0.02 -0.01,-0.05 0,-0.08 0,-0.02 -0.01,-0.05 0,-0.07 0,-0.03 -0.01,-0.05 0,-0.08 0,-0.02 -0.01,-0.05 0,-0.07 0,-0.01 0,0 0,-0.01l0 -0.07 0.07 0 0 0.05zm-0.15 -0.05l0.08 0 0 0.07 -0.08 0 0 -0.07zm-0.07 0l0.07 0 0 0.07 -0.07 0 0 -0.07zm0.45 -0.08l0.07 0 0 0.08 -0.07 0 0 -0.08zm-0.08 0l0.08 0 0 0.08 -0.08 0 0 -0.08zm-0.07 0l0.07 0 0 0.08 -0.07 0 0 -0.08zm-0.08 0l0.08 0 0 0.08 -0.08 0 0 -0.08zm-0.07 0l0.07 0 0 0.08 -0.07 0 0 -0.08zm-0.08 0l0.08 0 0 0.08 -0.08 0 0 -0.08zm-0.07 0l0.07 0 0 0.08 -0.07 0 0 -0.08zm-0.06 0l0 0 0.06 0 0 0.08 -0.06 0 0 0 0.06 0 0 0.07 -0.06 0 0 0 0.06 0 0 0.08 -0.06 0 0 0 0.06 0 0 0.07 -0.06 0 0 0 0.06 0 0 0.08 -0.06 0 0 0 0.06 0 0 0.07 -0.06 0 0 0.01 0.06 0 0 0.07 -0.06 0 0 0 0.06 0 -0.01 0.07 -0.05 0 0 0 0.06 0 0 0.08 -0.06 0 0 0 0.06 0 0 0.07 -0.06 0 0 0.01 0.06 0 0 0.07 -0.05 0c0,0 -0.01,0 0,0l0.05 0 0 0.07 -0.08 0 -0.07 0 0 -0.07c-0.01,0.01 -0.01,0.06 -0.01,0.07l-0.07 0 0 -0.07 0 0.15c0,-0.01 0,0 0,-0.01l0 -0.06 0.07 0 0.08 0 0.08 0 0 0.07 -0.06 0 0 0 0.06 0 0 0.08 -0.06 0 0 0 0.06 0 0 0.07 -0.06 0 0 0 0.06 0 0 0.08 0 0 0 -0.08 0.07 0 0 0.08 0 0 0 -0.08 0.08 0 0 0.08 0 0 0 -0.08c0,0 0,0 0,0l0 -0.07c0,-0.02 -0.01,-0.05 0,-0.07 0,-0.02 0,0 0,-0.02l0 -0.06 0.07 0 0 0.07 -0.06 0 0.28 0 0 0 -0.07 0 0.01 -0.07 0.07 0 0 -0.01 -0.08 0 0 -0.07 0 0 0 0.07 -0.07 0 0 -0.07 0 0 0 0.07 -0.08 0 0 -0.07 0 0 0 0.07 -0.07 0 0 -0.07 0 0c0,0 0,0 0,-0.01l0 -0.06 0 0 0 -0.01 0 0 0 -0.07 0.07 0 0 0.05 0 0 0 -0.05 0.08 0 0 0.05 0 0 0 -0.05 0.07 0 0 0.05 0 0 0.01 -0.05 0.07 0 0 0.05 0 0c0,-0.02 0,-0.04 0,-0.05l0.07 0 0 0.03 0 0 0 -0.01 0 -0.02 0.05 0 0 0c0,-0.01 -0.04,0 -0.05,0l0 -0.08 0.08 0c0,0.02 -0.01,0.05 0,0.06l0 -0.06 0.06 0c-0.01,0 -0.05,0 -0.06,0l0 -0.07 0.07 0 0 0.05 0.01 0 0 0 0 -0.05 0.02 0 0 0 -0.02 0 0 -0.07 0.05 0 0 -0.01 -0.05 0 0 -0.07 0.06 0 0 0 -0.06 0 0 -0.08 0.06 0 0 0 -0.06 0 0 -0.07 0.05 0 0 0c-0.01,-0.01 -0.04,0 -0.05,0l0 -0.08 0.02 0 0 0 -0.02 0 0 -0.04 0 -0.01 -0.01 0 0 0.05 -0.07 0 0 -0.07 0.06 0 0 0 -0.01 0 -0.05 0 0 -0.06 0 0 0 0.06 -0.08 0 0 -0.08c0.02,0 0.04,0.01 0.05,0l0 0 -0.05 0 0 -0.02c0,0 0,0.01 0,0.02l-0.07 0c0,-0.01 0,-0.03 0,-0.04l0 0 0 0.04 -0.08 0 -0.07 0 -0.08 0 -0.07 0 -0.08 0 0 -0.05c0,0.01 0,0.04 0,0.05l-0.07 0 0 -0.05c-0.01,0.01 0,0.04 0,0.05l-0.06 0zm0 0l0.06 0c0,-0.01 -0.01,-0.04 0,-0.05l0 0.05 0.07 0c0,-0.01 0,-0.04 0,-0.05l0 0.05 0.08 0 0.07 0 0.08 0 0.07 0 0.08 0 0 -0.04 -0.01 0 0 -0.01 -0.01 0 -0.01 0 -0.47 0 -0.01 0.05zm0.01 0.83l-0.17 0c-0.01,0 -0.01,0 -0.01,0l0 0.07 0.07 0c0,-0.01 0,-0.06 0.01,-0.07l0 0.07 0.07 0 0.08 0 0 -0.07 -0.05 0c-0.01,0 0,0 0,0zm-0.18 0.15c0.01,0 0.15,0 0.17,0l0.06 0 0 -0.07 -0.08 0 -0.08 0 -0.07 0 0 0.06c0,0.01 0,0 0,0.01zm0.45 -0.43l-0.07 0 0 -0.42 0.07 0 0 -0.05 -0.07 0 0 0.07c0,0.01 0,0 0,0.01 -0.01,0.02 0,0.05 0,0.07 -0.01,0.03 0,0.05 0,0.08 -0.01,0.02 0,0.05 0,0.07 -0.01,0.03 0,0.06 0,0.08 -0.01,0.02 0,0.05 0,0.07l0 0.07 0.07 0 0 -0.05zm0.2 -0.02c0,0.01 0,0.01 -0.01,0.01l0 0 0 0 0 0 -0.01 0 -0.01 0 -0.01 0 -0.08 0.01 0 0.05 0.07 0 0.08 0 0 -0.07c-0.01,0 -0.01,0 -0.02,0l-0.01 0zm0.28 0l0.01 0 0 -0.03 0.01 0 0 -0.02 0 -0.01 0 0 0.01 -0.01 0 -0.01 0 0 0 -0.02 0.01 -0.01 0 0 0 -0.01 0 -0.03 -0.06 0 0 0.07 0.05 0 0 0.01 -0.05 0 0 0.07 0.02 0zm-0.55 0.68l0 -0.01c0,-0.01 0,-0.21 0.01,-0.22l0.06 0 0 -0.07 -0.07 0 0 0.06c0,0.02 0,0 0,0.02 -0.01,0.02 0,0.05 0,0.07l0 0.07c0,0 0,0 0,0l0 0.08zm-0.15 -0.76l0.07 0 0 -0.07 -0.07 0 0 0.07zm0 0.23l0.07 0 0 -0.08 -0.07 0 0 0.08zm0 0.22l0.07 0 0 -0.07 -0.07 0 0 0.07zm0.3 -0.07l-0.08 0 0 0.07 0.08 0 0 -0.07zm0.07 0l-0.07 0 0 0.07 0.07 0 0 -0.07zm-0.37 -0.23l0.07 0 0 -0.07 -0.07 0 0 0.07zm0.52 0l0.08 0 0 -0.07 -0.08 0 0 0.07zm0.08 -0.15l0.07 0 0 -0.07 -0.07 0 0 0.07zm-0.38 0.53l0.08 0 0 -0.07 -0.08 0 0 0.07zm0 -0.9l0.08 0 0 -0.08 -0.08 0 0 0.08zm0.08 0.6l0.07 0 0 -0.08 -0.07 0 0 0.08zm0.3 -0.3l0.07 0 0 -0.08 -0.07 0 0 0.08zm-0.15 -0.3l0.07 0 0 -0.08 -0.07 0 0 0.08zm0 0.07l0.07 0 0 -0.07 -0.07 0 0 0.07zm-0.45 -0.07l0.07 0 0 -0.08 -0.07 0 0 0.08zm0 0.98l0.07 0 0 -0.08 -0.07 0 0 0.08zm0 -0.68l0.07 0 0 0 0 -0.08 -0.07 0 0 0.08zm0.15 0.3l0.07 0 0 -0.08 -0.07 0 0 0.08zm0.07 0l0.08 0 0 -0.08 -0.08 0 0 0.08zm0.23 0l0.07 0 0 -0.08 -0.07 0 0 0.08zm0 -0.08l0.07 0 0 -0.07 -0.07 0 0 0.07zm-0.3 -0.52l0.07 0 0 -0.08 -0.07 0 0 0.08zm-0.15 0.9l0.07 0 0 -0.07 0 0 -0.07 0 0 0.07zm0.6 -0.68l0.07 0 0 -0.07 -0.07 0 0 0.07zm-0.08 -0.15l0.08 0 0 -0.07 -0.08 0 0 0.07zm-0.22 0.83l0.07 0 0 -0.07 -0.07 0 0 0.07zm-0.3 0.23l0.07 0 0 -0.08 -0.07 0 0 0.08zm0 -0.91l0.07 0 0 -0.07 -0.07 0 0 0.07zm0.22 0.53c-0.01,0 -0.06,0 -0.07,0l0 0 0 0 0 0.07 0.07 0 0 -0.07zm0.08 -0.75l0.07 0 0 -0.08 -0.07 0 0 0.08zm-0.3 0.07l0.07 0 0 -0.07 -0.07 0 0 0.07zm0 0.6l0.07 0 0 0 0 -0.07 -0.07 0 0 0.07zm0.53 -0.36c0,0.01 0,0 -0.01,0l0 0.02c0.01,0.01 0,0.03 0,0.04l0.08 0 0 -0.07c-0.02,0 -0.06,0 -0.07,0 0,0 0,0 0,0.01zm-0.01 -0.12l0 0.02 0.01 0c0,0.01 0,0.01 0,0.01 0.01,0 0.05,0 0.07,0l0 -0.07 -0.08 0c0,0.01 0.01,0.03 0,0.04zm-0.45 0.94l0.08 0 0 -0.08 -0.08 0 0 0.08zm-0.07 -0.98l0.07 0 0 -0.08 -0.07 0 0 0.08zm0.07 -0.08l0.08 0 0 -0.07 -0.08 0 0 0.07zm-0.07 0.68l0.07 0 0 -0.07 -0.07 0 0 0.07zm0.6 -0.3l0.07 0 0 -0.07 -0.07 0 0 0.07zm-0.23 -0.45l0.08 0 0 -0.08 -0.08 0 0 0.08zm-0.3 0.3l0.08 0 0 -0.08 -0.08 0 0 0.08zm0.45 -0.15l0.08 0 0 -0.08 -0.08 0 0 0.08zm0.08 0l0.07 0 0 -0.08 -0.07 0 0 0.08zm-0.53 0.52l0.08 0 0 -0.07 -0.08 0 0 0.07zm0 -0.45l0.08 0 0 -0.07 -0.08 0 0 0.07zm0 0.68l0.08 0 0 -0.07 -0.08 0 0 0.07zm0.6 -0.88l0 0 0 -0.01c0,0 0,0 0,0l0 0c-0.01,0 -0.01,0 -0.01,0l0 -0.01 0 0 -0.06 0 0 0.07 0.07 0 0 -0.05zm-0.01 0.5l0 0c0,0 0,0 0,0l0 -0.01 0.01 0 0.01 -0.01 -0.01 0 0 -0.05 -0.07 0 0 0.07c0.01,0 0.05,0 0.06,0zm-0.14 -0.07l0.08 0 0 -0.07 -0.08 0 0 0.07zm-0.15 0.15l0.08 0 0 -0.08 -0.07 0 -0.01 0.08zm-0.3 -0.6l0.08 0 0 -0.08 -0.08 0 0 0.08zm0 0.6l0.08 0 0 -0.08 -0.08 0 0 0.08zm0 -0.08l0.07 0 0.01 -0.07 -0.08 0 0 0.07zm0 0.46l0.08 0 0 -0.08 -0.08 0 0 0.08zm0 -0.16l0.08 0 0 -0.07 -0.08 0 0 0.07zm0.53 -0.88l0 0 -0.01 -0.01 0 0 -0.02 -0.01c-0.01,0.01 -0.03,0 -0.05,0l0 0.08 0.08 0 0 -0.06zm-0.6 1.11l0.07 0 0 -0.07 -0.07 0 0 0.07zm0.57 -0.45l0.02 -0.01c0,0 0,0 0,0l0 0 0.01 -0.01 0 0c-0.01,-0.01 0,-0.04 0,-0.06l-0.08 0 0 0.08c0.01,0 0.05,-0.01 0.05,0zm-0.5 -0.23l0.07 0 0.01 -0.07 -0.08 0 0 0.07zm0.38 0.45l0 -0.07 -0.08 0 0 0.07 0.08 0zm-0.45 -0.37l0.07 0 0 -0.07 -0.07 0 0 0.07zm0.44 0.45l0.01 -0.07 -0.07 0 -0.01 0.07 0.07 0zm-0.37 0.15l0.08 0 0 -0.07 -0.08 0 0 0.07zm0 -0.6l0.08 0 0 -0.07 -0.08 0 0 0.07zm0 -0.3l0.08 0 0 -0.08 -0.08 0 0 0.08zm0.46 0.15l0.07 0 0 -0.08 -0.07 0c0,0.01 0,0.07 0,0.08zm-0.46 0.45l0.07 0 0.01 -0.07 -0.08 0 0 0.07zm0.67 -0.45l0 -0.08 -0.06 0 0 0.08 0.06 0zm-0.37 -0.25l0.01 0 0.01 0.01 0.02 0 0 0 0.02 0.01 0.01 0 0 0c0,0 0,0 0.01,0l0 -0.07 -0.07 0 -0.01 0.05zm0.37 0.17l0 -0.01 0 -0.01 0 -0.01 0 -0.01 0 0 -0.01 -0.01 0 -0.02 0 0 -0.05 0 0 0.07 0.06 0zm-0.44 0.25l-0.08 0 0 0.05 0.08 0 0 -0.05zm-0.08 -0.42l0.08 0 0 -0.05 -0.08 0 0 0.05zm0.08 0l0.06 0 0.01 0 0.01 0c-0.01,-0.01 -0.01,-0.04 -0.01,-0.05l-0.07 0 0 0.05zm-0.36 0.55l0.06 0 0 -0.08 -0.06 0 0 0.08zm0.06 0.53l0 -0.08 -0.06 0 0 0.08 0.06 0zm-0.06 -1.13l0.06 0 0 -0.08 -0.06 0 0 0.08zm0 0.3l0.06 0 0 -0.08 -0.06 0 0 0.08zm0 0.07l0.06 0 0 -0.07 -0.06 0 0 0.07zm0 0.3l0.06 0 0 -0.07 -0.06 0 0 0.07zm0 -0.6l0.06 0 0 -0.07 -0.06 0 0 0.07zm0 0.91l0.06 0 0 -0.08 -0.06 0 0 0.08zm0 -0.76l0.06 0 0 -0.07 -0.06 0 0 0.07zm0 0.3l0.05 0 0.01 -0.07 -0.06 0 0 0.07zm0.21 0.15l0 -0.02c0.01,0 0.06,0 0.07,0l0 -0.05 -0.07 0 0 0.07 0 0zm-0.21 -0.22l0.06 0 0 -0.07 -0.06 0 0 0.07zm0 0.6l0.06 0 0 -0.07 -0.06 0 0 0.07zm0 -0.9l0.06 0 0 -0.08 -0.06 0 0 0.08zm0.01 0.6l0.05 0 0 -0.07 -0.06 0 0.01 0.07zm0.27 -0.1l0.08 0 0 -0.05 -0.08 0 0 0.05zm0.08 0l0.07 0 0 -0.05 -0.07 0 0 0.05zm0.07 0l0.03 0 0.01 0 0.02 0 0.01 0 0 0 0.01 0 0 -0.05 -0.07 0 -0.01 0.05zm0.13 -0.27l0 0 -0.01 0.02 0 0 -0.01 0 0 0.01 0 0 0 0 -0.02 0.02 0 0 0 0 -0.01 0.01c0,0 0,0 0,0l0 0c0,0.01 -0.01,0.01 0.03,0.01 0.01,0 0.03,0 0.04,0l0 -0.07 -0.02 0 0 0zm-0.05 -0.3l0 0c0,0 0,0 0,0l0.01 0.01 0 0 0 0 0 0 0.02 0.02c0,0 0,0 0,0l0 0 0.01 0.01 0 0 0 0.01 0.01 0 0 0 0 0.01c0,0 0,0 0.01,0.01 0,-0.01 0.01,0 0.01,0l0 -0.08 -0.07 0c0,0.01 0,0.01 0,0.01zm0.28 0.07l0 -0.01 0 -0.01 0 0 -0.01 -0.01 0 0c0,0 0,0 0,0l0 -0.01c-0.01,0 0,0 0,-0.01l0 0 -0.01 0 0 -0.01 0 0 0 -0.02 -0.01 0 -0.02 0 0 0.08c0.01,0 0.04,-0.01 0.05,0zm-0.21 -0.25c-0.01,-0.01 -0.03,-0.02 -0.04,-0.02l-0.01 0 -0.02 0c0,0.01 0,0.03 0,0.04l0.07 0c0,-0.01 0,-0.02 0,-0.02zm-0.07 0.75l0 0 0.01 -0.01 0 0 0.01 0 0 0 0.01 0 0 0 0.01 0 0 0 0.01 -0.01 0 0 0 0 0.01 0 0.01 0 0 0 0 -0.03 -0.07 0c0,0.01 0,0.03 0,0.05zm0.15 -0.07l0 0 0 0 0.01 0 0.01 -0.01c0,-0.01 0,-0.01 0,-0.01l0 0 0 0 0.01 0 0 0 0 -0.01 0 0 0.01 0 0 0c0,-0.01 0,-0.01 0,-0.01l0.01 -0.01 0 0 0 0 0.01 -0.01 -0.06 0 0 0.06zm0.05 -0.58l0 -0.01 0 -0.01 -0.01 0 0 0 -0.03 -0.03 0 0 0 0 -0.01 -0.01 0 0.06 0.05 0zm-0.43 0.75l0 0 0.08 0 0 0 0.07 0 0 0 0.08 0 0 0.07 0 0.01 -0.01 0.07 0 0c0.01,0 0.01,0 0.01,-0.01l0 -0.14 -0.3 0c0.01,0 0.06,0 0.07,0zm-0.07 -0.08l0 0.01 0 0.07 0 0 0 -0.1c0.03,0 0.24,0.01 0.25,0l-0.03 0 0 0 -0.07 0 0 0 -0.08 0 0 0c-0.01,0 -0.06,0 -0.07,0l0 0.02zm0.53 -0.17l0 -0.01 0.01 -0.01 0 -0.01c0,0 0,0 0,0l0.01 -0.02 -0.02 0 0 0.05zm0.02 -0.43l0 0c0,0 0,0 0,0l0 0c0,0 0,0 0,-0.01l0 0c0,0 0,0 0,0l0 0c-0.01,0 -0.01,0 -0.01,-0.01l0 -0.01c-0.01,0 0,0 -0.01,0l0 -0.01 0 0 0 0 0 0.04 0.02 0zm-0.18 0.55l0.01 0 0.01 0 0 0 0 0c0,0 0,0 0,0l0.02 -0.01c0,0 0,0 0,0l0 0c0,-0.01 0,0 0,0l0.01 -0.01 -0.05 0 0 0.02zm0.05 -0.7l0 0c-0.02,-0.01 -0.03,-0.02 -0.05,-0.02l0 0.02 0.05 0zm-0.05 0.42l0 0 0 0 0 0.01 -0.02 0.03 0.02 -0.01 0 -0.04 0 0 0 0.01zm-0.37 0.41l0 -0.07 0 0 0 0.06c0,0.01 0,0.01 0,0.01zm0.36 -0.59l0 0 0 0.01c0.01,0 0.01,-0.01 0.01,0l0 0 0 0.01 0 0 0 0 0 0.01 0 0 0 -0.04 -0.01 0 0 0.01zm0.01 0.15c0.01,0 0.01,0.01 0.01,0 -0.01,0 -0.01,-0.01 -0.01,0zm-0.09 0.34l-0.02 0c0.01,0 0.01,0 0.02,0zm0.01 -0.57c0,0 0.01,0 0,0 0,0 0,0 0,0zm0 0.36c0,0 0,0 0,0 0.01,0 0,0 0,0zm0.27 0.01l-0.01 0 0 0c0.01,0 0.01,0 0.01,0zm-0.02 0.02c0,0 0,0 0,0 0.01,0 0,0 0,0zm0 -0.43c0,0 0,0 -0.01,0 0.01,0 0,0 0.01,0zm0.01 0.02c0,-0.01 0,-0.01 -0.01,-0.01 0,0.01 0,0.01 0.01,0.01zm-0.14 0.55c0,0 0,-0.01 0,0 0.01,0 0,0 0,0zm0.14 -0.54c0,0 0,0 0,0 0,0 0,0 0,0zm0 -0.01c0,0 0,0 0,0 0,0 0,0 0,0zm0 0.01c0,-0.01 0,-0.01 0,-0.01 0,0.01 0,0.01 0,0.01zm-0.02 -0.05c0,0 0,0 -0.01,0l0 0 0.01 0zm-0.16 0.31l0 0 0 0 0 0zm0.19 -0.26c0,0 0,0 -0.01,0l0 0 0.01 0zm-0.19 0.12l0 0 0 0 0 0zm0.08 -0.25c0,0 0,0 0,0l0 0 0 0zm-0.09 0.22l0 0c0,0 0,0 0,0zm0.21 -0.05l0 -0.01c0,0.01 -0.01,0.01 0,0.01zm-0.2 0.06c0,-0.01 0,0 -0.01,0l0.01 0zm0 0.46l-0.01 0c0.01,0 0.01,0 0.01,0zm0.2 -0.51l0 0c0,0 0,0 0,0zm-0.31 0.34c0,0 0,-0.01 0,0l0 0zm0.04 -0.38c0,0 0,0 0,0l0 0zm0.08 0.54l-0.01 0 0 0.01 0.01 -0.01zm-0.09 -0.55l-0.01 0c0,0.01 0,0 0.01,0zm0.22 0.45c0,0 0,0 0,0l0 0zm-0.12 0.1c0,0 0,0 0,0l0 0zm-0.12 -0.17l-0.01 0.01c0.01,0 0.01,0 0.01,-0.01zm0.03 -0.01l0 0c0,0 0,0 0,0zm0.05 -0.06c0,0 0,0 0,0l0 0zm0.17 -0.37l0 0c0,0 0,0 0,0zm0.01 0.02c0,0 0,0 0,0l0 0zm-0.14 0.59l0 0c0,0 0,0 0,0zm0.05 -0.03c0,0 0,0 0,0l0 0zm-0.09 -0.46l-0.01 0c0,0 0,0 0.01,0zm-0.02 -0.02c0,0 0,0 0,0l0 0zm0.02 0.03l0 -0.01c0,0.01 0,0.01 0,0.01zm0.11 -0.19c0,0 0,0 0,0l0 0zm0.03 0.59c0,0 0,0 0,0.01l0 -0.01zm-0.02 0.02c0,0 0,0 0,0.01l0 -0.01zm-0.14 -0.45l0 0c0,0 0,0 0,0zm0.08 0.5c0,0 0,0 0,0l0 0zm0.1 -0.6c0,-0.01 0,-0.01 0,-0.01l0 0.01zm-0.09 -0.09l0 0 0 0 0 0zm-0.11 0.17l0 0c0,0 0,0 0,0zm0.21 -0.08l-0.01 0c0,0 0,0 0.01,0zm-0.01 -0.01l-0.01 -0.01 0 0.01 0.01 0zm-0.02 -0.02l0 0 0 0zm0.01 0l-0.01 0 0.01 0zm-0.17 -0.1l-0.01 0 0.01 0zm-0.11 0.17l-0.01 0 0.01 0zm0.02 0.01l-0.01 -0.01 0.01 0.01zm0.02 0l0 0 0 0zm0.07 0.34l0 0.01 0 -0.01zm0 0.01l0 0 0 0zm0 0l0 0 0 0zm0.15 0.15l-0.01 0 0.01 0zm-0.01 0l0 0 0 0zm0 0l0 0 0 0zm-0.18 -0.68l0 -0.01 0 0.01zm0.17 0.7l-0.01 0 0.01 0zm0.02 -0.03l0 0.01 0 -0.01zm-0.03 0.03l0 0 0 0zm0 0l-0.01 0.01 0.01 -0.01zm0.03 -0.03l0 0 0 0zm0.11 -0.21l0 -0.01 0 0.01zm-0.25 0.3l-0.01 0 0.01 0zm-0.02 0l-0.01 0 0.01 0zm-0.01 0l-0.01 0.01 0.01 -0.01zm-0.02 0.01l0 0 0 0zm0.08 -0.31l0 0 0 0zm0 0l0 0.01 0 -0.01zm-0.03 0.06l0 0 0 0zm0.24 -0.05l0.01 -0.01 -0.01 0.01zm-0.25 0.29l-0.01 0 0.01 0zm0.19 -0.13l-0.01 0 0.01 0zm0.02 -0.03l-0.01 0.01 0.01 -0.01zm0.05 -0.3l-0.01 -0.01 0.01 0.01zm-0.35 0.28l-0.01 0 0.01 0zm0.02 0l-0.01 0 0.01 0zm0.09 0.17l0 0 0 0zm0.02 -0.45l0 -0.01 0 0.01zm0.21 0.19l0 0 0 0zm-0.08 0.16l0 0 0 0zm-0.13 -0.35l0 0 0 0zm0.21 -0.03l0 0 0 0zm-0.08 0.38l0 0 0 0zm0.07 -0.14l0.01 -0.01 -0.01 0.01zm0 0l0 0.01 0 -0.01zm0.01 -0.25l0 -0.01 0 0.01zm-0.1 0.42l0 0 0 0zm0.11 -0.37l0 -0.01 0 0.01zm0 0.02l0 -0.01 0 0.01zm-0.01 -0.08l-0.01 -0.01 0.01 0.01zm-0.24 -0.01l0 0 0 0zm0.04 0.09l-0.01 0 0.01 0zm0.06 -0.28l0 0 0 0zm-0.09 0.7l-0.01 0.01 0.01 -0.01zm0.14 -0.08l0 0 0 0zm-0.21 -0.68l-0.01 0 0.01 0zm0.03 0.56l0 0 0 0zm0.26 -0.33l-0.01 0 0.01 0zm-0.26 -0.01l0 0 0 0zm0 0l0 0 0 0zm0 0.34l0 0 0 0zm0.25 -0.34l0 0 0 0zm-0.1 -0.14l0 0 0 0zm0.03 0.6l-0.01 0 0.01 0zm0.08 -0.13l-0.01 0 0.01 0z"/>
 </g>
</svg>
