<svg width="42" height="42" viewBox="0 0 42 42" fill="none" xmlns="http://www.w3.org/2000/svg">
<circle r="20" transform="matrix(-1 0 0 1 21 21)" stroke="url(#paint0_linear)" stroke-width="2"/>
<g clip-path="url(#clip0)">
<path d="M16.11 21.5463L22.3417 27.7752C22.4869 27.9203 22.6775 28 22.8824 28C23.0873 28 23.2808 27.9203 23.423 27.7752L23.884 27.3171C24.1828 27.0183 24.1828 26.5317 23.884 26.2329L18.6511 21L23.8897 15.7642C24.0348 15.6191 24.1145 15.4285 24.1145 15.2236C24.1145 15.0187 24.0348 14.8252 23.8897 14.6829L23.4316 14.2248C23.2865 14.0797 23.0958 14 22.8909 14C22.686 14 22.4926 14.0797 22.3503 14.2248L16.11 20.4593C15.9649 20.6045 15.8852 20.798 15.8881 21.0028C15.8881 21.2077 15.9649 21.4012 16.11 21.5463Z" fill="url(#paint1_linear)"/>
</g>
<defs>
<linearGradient id="paint0_linear" x1="1.36904e-07" y1="21" x2="42" y2="21" gradientUnits="userSpaceOnUse">
<stop stop-color="#479DD4"/>
<stop offset="1" stop-color="#43C3D1"/>
</linearGradient>
<linearGradient id="paint1_linear" x1="20.0013" y1="28" x2="20.0013" y2="14" gradientUnits="userSpaceOnUse">
<stop stop-color="#47A4D4"/>
<stop offset="1" stop-color="#44BFD2"/>
</linearGradient>
<clipPath id="clip0">
<rect width="14" height="14" fill="white" transform="translate(27 28) rotate(-180)"/>
</clipPath>
</defs>
</svg>
