<?xml version="1.0" encoding="UTF-8"?>
<!DOCTYPE svg PUBLIC "-//W3C//DTD SVG 1.1//EN" "http://www.w3.org/Graphics/SVG/1.1/DTD/svg11.dtd">
<!-- Creator: CorelDRAW 2020 (64-Bit) -->
<svg xmlns="http://www.w3.org/2000/svg" xml:space="preserve" width="32px" height="37px" version="1.1" style="shape-rendering:geometricPrecision; text-rendering:geometricPrecision; image-rendering:optimizeQuality; fill-rule:evenodd; clip-rule:evenodd"
viewBox="0 0 36.27 41.93"
 xmlns:xlink="http://www.w3.org/1999/xlink"
 xmlns:xodm="http://www.corel.com/coreldraw/odm/2003">
 <defs>
  <style type="text/css">
   <![CDATA[
    .fil0 {fill:#80C029;fill-rule:nonzero}
    .fil1 {fill:white;fill-rule:nonzero}
   ]]>
  </style>
 </defs>
 <g id="Camada_x0020_1">
  <metadata id="CorelCorpID_0Corel-Layer"/>
  <path class="fil0" d="M36.27 24.41c0,10.11 -8.12,17.52 -18.14,17.52 -10.01,0 -18.13,-8.2 -18.13,-18.32 0,-6.04 2.89,-11.11 7.35,-14.22l0 0.01 10.71 -9.4 10.47 9.39 -0.02 -0.01c4.69,3.32 7.76,8.81 7.76,15.03zm-26.55 -16.41l0.02 -0.01 -0.01 0 -0.01 0.01zm2.64 -1.05l0.02 -0.01 -0.01 0.01 -0.01 0zm2.77 -0.64l0.03 0 -0.01 0 -0.02 0zm5.79 -0.01l0 0 0 0 0 0zm2.88 0.7l0.03 0.01 -0.02 -0.01 -0.01 0zm2.53 1.06l0.01 0.01 0 -0.01 -0.01 0z"/>
  <path class="fil1" d="M24.55 16.29c-1.7,-1.73 -3.97,-2.69 -6.38,-2.69 -4.97,0 -9.03,4.11 -9.03,9.18 0,1.63 0.42,3.2 1.2,4.6l-1.27 4.76 4.78 -1.28c1.33,0.74 2.82,1.13 4.32,1.13 4.97,0 9.03,-4.11 9.03,-9.19 0,-2.47 -0.94,-4.77 -2.65,-6.51zm-6.38 14.13c-1.34,0 -2.67,-0.37 -3.83,-1.07l-0.27 -0.17 -2.83 0.78 0.76 -2.82 -0.18 -0.3c-0.74,-1.22 -1.14,-2.62 -1.14,-4.06 -0.02,-4.2 3.36,-7.63 7.49,-7.63 2.01,0 3.88,0.79 5.31,2.23 1.42,1.44 2.2,3.36 2.2,5.4 0,4.21 -3.38,7.64 -7.51,7.64zm4.12 -5.72c-0.22,-0.11 -1.35,-0.66 -1.54,-0.74 -0.2,-0.07 -0.37,-0.11 -0.51,0.12 -0.15,0.22 -0.58,0.73 -0.71,0.9 -0.13,0.15 -0.27,0.17 -0.49,0.06 -0.22,-0.12 -0.96,-0.36 -1.81,-1.15 -0.67,-0.61 -1.13,-1.36 -1.25,-1.59 -0.13,-0.22 -0.02,-0.34 0.09,-0.46 0.11,-0.11 0.21,-0.27 0.34,-0.4 0.11,-0.13 0.15,-0.22 0.22,-0.39 0.07,-0.15 0.04,-0.29 -0.02,-0.41 -0.05,-0.11 -0.51,-1.23 -0.69,-1.69 -0.18,-0.44 -0.36,-0.39 -0.51,-0.39 -0.12,0 -0.29,0 -0.43,0 -0.15,0 -0.4,0.06 -0.6,0.3 -0.2,0.22 -0.8,0.79 -0.8,1.91 0,1.13 0.82,2.22 0.93,2.38 0.11,0.15 1.59,2.47 3.86,3.47 0.54,0.24 0.96,0.37 1.29,0.48 0.54,0.17 1.03,0.15 1.41,0.09 0.44,-0.07 1.34,-0.55 1.52,-1.09 0.19,-0.53 0.19,-0.99 0.13,-1.08 -0.05,-0.15 -0.2,-0.21 -0.43,-0.32z"/>
 </g>
</svg>
