<svg width="64" height="64" viewBox="0 0 64 64" fill="none" xmlns="http://www.w3.org/2000/svg">
<circle cx="32" cy="32" r="31" fill="url(#paint0_linear)" stroke="url(#paint1_linear)" stroke-width="2"/>
<path d="M21.3333 34.7429C21.3333 32.4186 21.9143 30.1999 23.0765 28.0869C24.2915 25.9739 25.8498 24.2306 27.7515 22.8572L30.6833 25.2343C29.4155 26.0795 28.2798 27.2153 27.2761 28.6416C26.2724 30.015 25.7178 31.3357 25.6121 32.6035H26.0083C26.2724 32.5506 26.4837 32.5242 26.6422 32.5242C27.7515 32.5242 28.6496 32.9204 29.3363 33.7128C30.0759 34.4524 30.4456 35.4032 30.4456 36.5654C30.4456 37.7275 30.023 38.7312 29.1778 39.5764C28.3854 40.3688 27.4082 40.765 26.246 40.765C24.8726 40.765 23.7104 40.2367 22.7595 39.1802C21.8087 38.0709 21.3333 36.5918 21.3333 34.7429ZM34.0113 34.7429C34.0113 32.4186 34.5924 30.1999 35.7546 28.0869C36.9696 25.9739 38.5279 24.2306 40.4296 22.8572L43.3614 25.2343C42.0936 26.0795 40.9579 27.2153 39.9542 28.6416C39.0033 30.015 38.4487 31.3357 38.2902 32.6035H38.6864C38.9505 32.5506 39.1618 32.5242 39.3203 32.5242C40.4296 32.5242 41.3541 32.9204 42.0936 33.7128C42.8332 34.4524 43.203 35.4032 43.203 36.5654C43.203 37.7275 42.7804 38.7312 41.9352 39.5764C41.0899 40.3688 40.0863 40.765 38.9241 40.765C37.5506 40.765 36.3885 40.2367 35.4376 39.1802C34.4868 38.0709 34.0113 36.5918 34.0113 34.7429Z" fill="white"/>
<defs>
<linearGradient id="paint0_linear" x1="0" y1="32" x2="64" y2="32" gradientUnits="userSpaceOnUse">
<stop stop-color="#479DD4"/>
<stop offset="1" stop-color="#43C3D1"/>
</linearGradient>
<linearGradient id="paint1_linear" x1="2.08616e-07" y1="32" x2="64" y2="32" gradientUnits="userSpaceOnUse">
<stop stop-color="#479DD4"/>
<stop offset="1" stop-color="#43C3D1"/>
</linearGradient>
</defs>
</svg>
