<svg width="73" height="78" viewBox="0 0 73 78" fill="none" xmlns="http://www.w3.org/2000/svg">
<path d="M64 43.0704C64 60.9261 49.6731 74 32 74C14.3269 74 0 59.5251 0 41.6694C0 23.8137 14.3269 10.7398 32 10.7398C49.6731 10.7398 64 25.2147 64 43.0704Z" fill="#44C1D2" fill-opacity="0.2"/>
<path d="M31.8715 0L50.3467 16.5778L46.4742 14.2284L42.0224 12.3572L36.9179 11.1193L32 10.7398L26.7292 11.1359L21.8333 12.2585L17.1741 14.1043L12.9629 16.5806L31.8715 0Z" fill="#44C1D2" fill-opacity="0.2"/>
<circle cx="32" cy="41" r="20" stroke="url(#paint0_linear)" stroke-opacity="0.65" stroke-width="2"/>
<circle cx="52" cy="57" r="20" fill="url(#paint1_linear)" stroke="url(#paint2_linear)" stroke-width="2"/>
<g clip-path="url(#clip0)">
<path d="M63.6692 54.2716L61.8442 53.9621C61.6541 53.3483 61.4097 52.7563 61.111 52.1914L62.1864 50.687C62.6426 50.0461 62.572 49.1716 62.0126 48.6176L60.3941 46.9991C60.0899 46.6949 59.688 46.5266 59.2589 46.5266C58.9222 46.5266 58.6017 46.6297 58.3301 46.8253L56.8202 47.9007C56.2337 47.5911 55.6199 47.3358 54.9844 47.1457L54.6803 45.3425C54.5499 44.5658 53.8819 44.001 53.0943 44.001H50.8077C50.0202 44.001 49.3521 44.5658 49.2218 45.3425L48.9068 47.1892C48.2985 47.3793 47.7064 47.6291 47.1416 47.9333L45.648 46.8579C45.3764 46.6623 45.0505 46.5591 44.7138 46.5591C44.2847 46.5591 43.8773 46.7275 43.5786 47.0317L41.9547 48.6502C41.4007 49.2042 41.3246 50.0786 41.7808 50.7195L42.8671 52.2458C42.5684 52.816 42.3294 53.4081 42.1447 54.0218L40.3415 54.326C39.5649 54.4563 39 55.1244 39 55.9119V58.1985C39 58.986 39.5649 59.6541 40.3415 59.7845L42.1882 60.0995C42.3783 60.7078 42.6281 61.2998 42.9323 61.8647L41.8623 63.3528C41.4061 63.9937 41.4767 64.8682 42.0361 65.4222L43.6547 67.0407C43.9588 67.3449 44.3607 67.5133 44.7898 67.5133C45.1266 67.5133 45.447 67.4101 45.7186 67.2145L47.2448 66.1283C47.7933 66.4161 48.3691 66.6497 48.9611 66.8343L49.2652 68.6593C49.3956 69.436 50.0636 70.0008 50.8512 70.0008H53.1432C53.9308 70.0008 54.5988 69.436 54.7292 68.6593L55.0388 66.8343C55.6525 66.6442 56.2445 66.3998 56.8094 66.1011L58.3139 67.1765C58.5854 67.372 58.9113 67.4752 59.248 67.4752C59.6771 67.4752 60.079 67.3069 60.3832 67.0027L62.0017 65.3842C62.5557 64.8302 62.6318 63.9557 62.1755 63.3148L61.1001 61.8049C61.3989 61.2346 61.6487 60.6426 61.8334 60.0343L63.6583 59.7301C64.435 59.5998 64.9998 58.9317 64.9998 58.1442V55.8576C65.0107 55.0701 64.4458 54.402 63.6692 54.2716ZM63.5442 58.1442C63.5442 58.2148 63.4954 58.2745 63.4247 58.2854L61.1436 58.6656C60.8557 58.7145 60.6276 58.9263 60.557 59.2033C60.3506 60.0017 60.0356 60.7675 59.6119 61.479C59.4653 61.7289 59.4762 62.0385 59.6445 62.2774L60.9861 64.1675C61.0241 64.2219 61.0187 64.3033 60.9698 64.3522L59.3512 65.9708C59.3132 66.0088 59.2752 66.0142 59.248 66.0142C59.2155 66.0142 59.1883 66.0033 59.1666 65.987L57.2819 64.6455C57.0484 64.4771 56.7333 64.4663 56.4835 64.6129C55.772 65.0366 55.0062 65.3516 54.2078 65.558C53.9253 65.6286 53.7135 65.8621 53.6701 66.1446L53.2844 68.4257C53.2736 68.4963 53.2138 68.5452 53.1432 68.5452H50.8566C50.786 68.5452 50.7263 68.4963 50.7154 68.4257L50.3352 66.1446C50.2863 65.8567 50.0745 65.6286 49.7975 65.558C49.0208 65.357 48.2713 65.0474 47.5707 64.6455C47.4566 64.5803 47.3262 64.5477 47.2013 64.5477C47.0547 64.5477 46.9026 64.5912 46.7777 64.6835L44.8767 66.0359C44.8496 66.0522 44.8224 66.0631 44.7952 66.0631C44.7735 66.0631 44.7301 66.0577 44.692 66.0196L43.0735 64.4011C43.0246 64.3522 43.0192 64.2762 43.0572 64.2164L44.3933 62.3426C44.5617 62.1036 44.5726 61.7886 44.4259 61.5388C44.0023 60.8327 43.6764 60.0669 43.47 59.2685C43.394 58.9915 43.1658 58.7797 42.8834 58.7308L40.586 58.3397C40.5153 58.3289 40.4665 58.2691 40.4665 58.1985V55.9119C40.4665 55.8413 40.5153 55.7816 40.586 55.7707L42.8508 55.3905C43.1387 55.3416 43.3722 55.1298 43.4428 54.8474C43.6438 54.049 43.9534 53.2777 44.3716 52.5662C44.5182 52.3164 44.502 52.0068 44.3336 51.7732L42.9812 49.8723C42.9432 49.8179 42.9486 49.7365 42.9975 49.6876L44.616 48.0691C44.654 48.031 44.692 48.0256 44.7192 48.0256C44.7518 48.0256 44.7789 48.0365 44.8007 48.0528L46.6745 49.3889C46.9135 49.5572 47.2285 49.5681 47.4783 49.4215C48.1844 48.9978 48.9502 48.6719 49.7486 48.4655C50.0256 48.3895 50.2374 48.1614 50.2863 47.879L50.6774 45.5815C50.6882 45.5109 50.748 45.462 50.8186 45.462H53.1052C53.1758 45.462 53.2355 45.5109 53.2464 45.5815L53.6266 47.8464C53.6755 48.1342 53.8873 48.3678 54.1697 48.4384C54.9899 48.6448 55.772 48.9652 56.4998 49.3943C56.7496 49.5409 57.0592 49.5301 57.2982 49.3617L59.172 48.0147C59.1992 47.9984 59.2263 47.9876 59.2535 47.9876C59.2752 47.9876 59.3187 47.993 59.3567 48.031L60.9752 49.6496C61.0241 49.6985 61.0295 49.7745 60.9915 49.8342L59.65 51.7189C59.4816 51.9525 59.4707 52.2675 59.6174 52.5173C60.041 53.2288 60.356 53.9946 60.5624 54.7931C60.633 55.0755 60.8666 55.2873 61.149 55.3308L63.4302 55.7164C63.5008 55.7272 63.5497 55.787 63.5497 55.8576V58.1442H63.5442Z" fill="white"/>
<path d="M52.0027 51.3867C48.9068 51.3867 46.3921 53.9014 46.3921 56.9973C46.3921 60.0932 48.9068 62.6079 52.0027 62.6079C55.0985 62.6079 57.6132 60.0932 57.6132 56.9973C57.6132 53.9014 55.0985 51.3867 52.0027 51.3867ZM52.0027 61.1414C49.7161 61.1414 47.8586 59.2839 47.8586 56.9973C47.8586 54.7107 49.7161 52.8532 52.0027 52.8532C54.2893 52.8532 56.1468 54.7107 56.1468 56.9973C56.1468 59.2839 54.2893 61.1414 52.0027 61.1414Z" fill="white"/>
</g>
<defs>
<linearGradient id="paint0_linear" x1="11" y1="41" x2="53" y2="41" gradientUnits="userSpaceOnUse">
<stop stop-color="#479DD4"/>
<stop offset="1" stop-color="#43C3D1"/>
</linearGradient>
<linearGradient id="paint1_linear" x1="31" y1="57" x2="73" y2="57" gradientUnits="userSpaceOnUse">
<stop stop-color="#479DD4"/>
<stop offset="1" stop-color="#43C3D1"/>
</linearGradient>
<linearGradient id="paint2_linear" x1="31" y1="57" x2="73" y2="57" gradientUnits="userSpaceOnUse">
<stop stop-color="#479DD4"/>
<stop offset="1" stop-color="#43C3D1"/>
</linearGradient>
<clipPath id="clip0">
<rect width="26" height="26" fill="white" transform="translate(39 44)"/>
</clipPath>
</defs>
</svg>
