<svg width="25" height="28" viewBox="0 0 25 28" fill="none" xmlns="http://www.w3.org/2000/svg">
<path d="M22.9085 15.5754C22.2608 20.9311 18.3498 21.2734 17.6274 21.518C17.3284 21.6158 14.4637 22.325 10.9014 22.1049L7.01533 26.3356V21.4691H6.99042C1.78404 20.0018 1.95841 14.5483 2.00823 11.6871C2.05806 8.82588 2.6061 6.47821 4.20039 4.88864C7.06515 2.29642 12.9441 2.6877 12.9441 2.6877C17.9263 2.71216 20.2928 4.20391 20.8409 4.71746C22.6594 6.28257 23.606 10.0486 22.9085 15.5754ZM22.1861 3.34798C21.5384 2.76107 18.8978 0.829128 13.0189 0.804673C13.0189 0.804673 6.09362 0.38894 2.70574 3.49471C0.837422 5.37774 0.164828 8.14115 0.115006 11.5648C0.0402732 14.9885 -0.0344595 21.4202 6.11853 23.1565V25.822C6.11853 25.822 6.06871 26.8981 6.79113 27.1182C7.6381 27.3872 8.13632 26.5557 8.95838 25.6753C9.40677 25.1862 10.0295 24.477 10.4779 23.939C14.6879 24.3058 17.9263 23.4744 18.3 23.3521C19.1469 23.0831 23.9547 22.4473 24.7519 16.0401C25.549 9.43726 24.3533 5.23101 22.1861 3.34798Z" fill="white" fill-opacity="0.65"/>
<path d="M18.4244 16.382C18.4244 16.382 17.6273 15.7217 17.2536 15.4283C16.8799 15.1593 16.307 14.7925 15.9832 14.6213C15.4102 14.3034 14.8123 14.499 14.5632 14.8169L14.065 15.4527C13.8159 15.7707 13.3924 15.7217 13.2928 15.6973C12.5454 15.5017 11.7483 15.0615 10.9262 14.2789C10.1042 13.4964 9.60596 12.6649 9.43159 11.8334L9.40668 11.7845C9.35685 11.4421 9.40668 11.271 9.55614 11.0264L9.58105 11.0019C9.9298 10.684 10.5526 10.3172 10.6522 9.95039C10.9013 9.31456 9.80525 7.994 9.65579 7.7739C9.65579 7.7739 8.85864 6.7468 8.58462 6.55116C8.28569 6.30661 7.81238 6.15988 7.33907 6.45334H7.31416C5.94406 7.35817 5.47075 7.87172 5.59531 8.65428L5.67004 8.97219C6.36755 11.0998 7.68782 13.3985 9.6807 15.4283C11.6487 17.4091 13.791 18.6074 15.8835 19.4389C16.4316 19.6101 17.0045 19.4633 17.5775 18.9742C18.0258 18.5585 18.3746 18.1183 18.6237 17.6537C18.8977 17.1646 18.7981 16.6999 18.4244 16.382Z" fill="white" fill-opacity="0.65"/>
<path d="M15.1608 11.6873C15.0861 11.6873 15.0114 11.6139 15.0114 11.5405C14.9864 10.9781 14.837 10.5623 14.563 10.2689C14.2889 9.97543 13.8904 9.8287 13.3672 9.80424C13.2925 9.80424 13.2178 9.73088 13.2178 9.63306C13.2178 9.53524 13.2925 9.48633 13.3922 9.48633C14.0149 9.51078 14.4882 9.70642 14.8121 10.0488C15.1359 10.3912 15.3103 10.8803 15.3601 11.5161C15.3352 11.6139 15.2605 11.6873 15.1608 11.6873Z" fill="white" fill-opacity="0.65"/>
<path d="M16.7055 12.225C16.6058 12.225 16.556 12.1517 16.556 12.0539C16.5809 11.0023 16.2571 10.0975 15.6094 9.38827C15.2855 9.02145 14.887 8.75245 14.4386 8.55681C13.9902 8.36117 13.4671 8.23889 12.8692 8.18998C12.7945 8.18998 12.7197 8.11662 12.7197 8.0188C12.7197 7.92098 12.7945 7.87207 12.8941 7.87207C14.1396 7.96989 15.1361 8.41008 15.8336 9.16818C16.5311 9.95074 16.8798 10.9045 16.8549 12.0539C16.8798 12.1517 16.8051 12.225 16.7055 12.225Z" fill="white" fill-opacity="0.65"/>
<path d="M18.2999 12.8365C18.2252 12.8365 18.1505 12.7632 18.1505 12.6898C18.1505 11.7605 18.001 10.9046 17.727 10.171C17.453 9.43732 17.0295 8.80149 16.4814 8.26348C15.9334 7.72547 15.3106 7.30974 14.638 7.04074C13.9654 6.77173 13.1932 6.625 12.3711 6.625C12.2964 6.625 12.2217 6.55164 12.2217 6.47827C12.2217 6.38045 12.2964 6.33154 12.3711 6.33154C14.09 6.356 15.5348 6.91846 16.7056 8.06784C17.2786 8.6303 17.727 9.31504 18.0259 10.0976C18.3249 10.8802 18.4743 11.7605 18.4743 12.7387C18.4743 12.7632 18.3996 12.8365 18.2999 12.8365Z" fill="white" fill-opacity="0.65"/>
</svg>
