<svg width="64" height="64" viewBox="0 0 64 64" fill="none" xmlns="http://www.w3.org/2000/svg">
<circle cx="32" cy="32" r="31" fill="url(#paint0_linear)" stroke="url(#paint1_linear)" stroke-width="2"/>
<path d="M31.66 43.42C29.6767 43.42 27.915 43.07 26.375 42.37C24.8583 41.67 23.68 40.76 22.84 39.64L25.045 36.945C25.7917 37.8083 26.7483 38.4967 27.915 39.01C29.0817 39.5233 30.2833 39.78 31.52 39.78C33.0367 39.78 34.2267 39.465 35.09 38.835C35.9533 38.1817 36.385 37.3067 36.385 36.21C36.385 34.0167 34.6583 32.92 31.205 32.92C29.6417 32.92 28.7433 32.9317 28.51 32.955V29.28C28.79 29.3033 29.6883 29.315 31.205 29.315C32.6517 29.315 33.8067 29.0583 34.67 28.545C35.5567 28.0317 36 27.2617 36 26.235C36 25.185 35.5567 24.38 34.67 23.82C33.7833 23.2367 32.6517 22.945 31.275 22.945C28.9883 22.945 26.9817 23.8083 25.255 25.535L23.155 22.98C25.2317 20.53 28.0667 19.305 31.66 19.305C34.2033 19.305 36.245 19.8767 37.785 21.02C39.325 22.14 40.095 23.6683 40.095 25.605C40.095 27.0517 39.5817 28.2533 38.555 29.21C37.5517 30.1433 36.3733 30.7267 35.02 30.96C36.35 31.0767 37.5867 31.6367 38.73 32.64C39.8733 33.6433 40.445 34.9733 40.445 36.63C40.445 38.6367 39.64 40.27 38.03 41.53C36.4433 42.79 34.32 43.42 31.66 43.42Z" fill="white"/>
<defs>
<linearGradient id="paint0_linear" x1="0" y1="32" x2="64" y2="32" gradientUnits="userSpaceOnUse">
<stop stop-color="#479DD4"/>
<stop offset="1" stop-color="#43C3D1"/>
</linearGradient>
<linearGradient id="paint1_linear" x1="2.08616e-07" y1="32" x2="64" y2="32" gradientUnits="userSpaceOnUse">
<stop stop-color="#479DD4"/>
<stop offset="1" stop-color="#43C3D1"/>
</linearGradient>
</defs>
</svg>
