<svg width="42" height="42" viewBox="0 0 42 42" fill="none" xmlns="http://www.w3.org/2000/svg">
<circle cx="21" cy="21.001" r="20" transform="rotate(-90 21 21.001)" stroke="white" stroke-width="2"/>
<g clip-path="url(#clip0)">
<path d="M20.4537 16.1103L14.2248 22.342C14.0797 22.4871 14 22.6778 14 22.8826C14 23.0875 14.0797 23.281 14.2248 23.4233L14.6829 23.8843C14.9817 24.183 15.4683 24.183 15.7671 23.8843L21 18.6513L26.2358 23.8899C26.3809 24.0351 26.5715 24.1147 26.7764 24.1147C26.9813 24.1147 27.1748 24.0351 27.3171 23.8899L27.7752 23.4318C27.9203 23.2867 28 23.096 28 22.8912C28 22.6863 27.9203 22.4928 27.7752 22.3505L21.5407 16.1103C21.3955 15.9652 21.202 15.8855 20.9972 15.8883C20.7923 15.8883 20.5988 15.9652 20.4537 16.1103Z" fill="white"/>
</g>
<defs>
<clipPath id="clip0">
<rect width="14" height="14" fill="white" transform="translate(14 27) rotate(-90)"/>
</clipPath>
</defs>
</svg>
