<svg width="16" height="22" viewBox="0 0 16 22" fill="none" xmlns="http://www.w3.org/2000/svg">
<path d="M5.81419 21.7062H2.2019V0H9.58918C11.6285 0 13.2015 0.650861 14.3079 1.95258C15.4361 3.23261 16.0002 4.82722 16.0002 6.73642C16.0002 8.6673 15.4361 10.2836 14.3079 11.5853C13.2015 12.8654 11.6285 13.5054 9.58918 13.5054H5.81419V21.7062ZM9.16612 10.3162C10.1207 10.3162 10.8801 9.99072 11.4441 9.33986C12.0299 8.689 12.3228 7.82118 12.3228 6.73642C12.3228 5.65165 12.0299 4.78383 11.4441 4.13297C10.8801 3.48211 10.1207 3.15668 9.16612 3.15668H5.81419V10.3162H9.16612Z" fill="white"/>
<path fill-rule="evenodd" clip-rule="evenodd" d="M11.7155 17.8011L-2.276e-07 17.8011L0 15.1976L11.7155 15.1976L11.7155 17.8011Z" fill="white"/>
</svg>
