<svg width="73" height="78" viewBox="0 0 73 78" fill="none" xmlns="http://www.w3.org/2000/svg">
<path d="M64 43.0704C64 60.9261 49.6731 74 32 74C14.3269 74 0 59.5251 0 41.6694C0 23.8137 14.3269 10.7398 32 10.7398C49.6731 10.7398 64 25.2147 64 43.0704Z" fill="#44C1D2" fill-opacity="0.2"/>
<path d="M31.8715 0L50.3467 16.5778L46.4742 14.2284L42.0224 12.3572L36.9179 11.1193L32 10.7398L26.7292 11.1359L21.8333 12.2585L17.1741 14.1043L12.9629 16.5806L31.8715 0Z" fill="#44C1D2" fill-opacity="0.2"/>
<circle cx="32" cy="41" r="20" stroke="url(#paint0_linear)" stroke-opacity="0.65" stroke-width="2"/>
<circle cx="52" cy="57" r="20" fill="url(#paint1_linear)" stroke="url(#paint2_linear)" stroke-width="2"/>
<path d="M50.8142 68.7062H47.2019V47H54.5892C56.6285 47 58.2015 47.6509 59.3079 48.9526C60.4361 50.2326 61.0002 51.8272 61.0002 53.7364C61.0002 55.6673 60.4361 57.2836 59.3079 58.5853C58.2015 59.8654 56.6285 60.5054 54.5892 60.5054H50.8142V68.7062ZM54.1661 57.3162C55.1207 57.3162 55.8801 56.9907 56.4441 56.3399C57.0299 55.689 57.3228 54.8212 57.3228 53.7364C57.3228 52.6516 57.0299 51.7838 56.4441 51.133C55.8801 50.4821 55.1207 50.1567 54.1661 50.1567H50.8142V57.3162H54.1661Z" fill="white"/>
<path fill-rule="evenodd" clip-rule="evenodd" d="M56.7155 64.8011L45 64.8011L45 62.1976L56.7155 62.1976L56.7155 64.8011Z" fill="white"/>
<defs>
<linearGradient id="paint0_linear" x1="11" y1="41" x2="53" y2="41" gradientUnits="userSpaceOnUse">
<stop stop-color="#479DD4"/>
<stop offset="1" stop-color="#43C3D1"/>
</linearGradient>
<linearGradient id="paint1_linear" x1="31" y1="57" x2="73" y2="57" gradientUnits="userSpaceOnUse">
<stop stop-color="#479DD4"/>
<stop offset="1" stop-color="#43C3D1"/>
</linearGradient>
<linearGradient id="paint2_linear" x1="31" y1="57" x2="73" y2="57" gradientUnits="userSpaceOnUse">
<stop stop-color="#479DD4"/>
<stop offset="1" stop-color="#43C3D1"/>
</linearGradient>
</defs>
</svg>
