<svg width="1430" height="874" viewBox="0 0 1430 874" fill="none" xmlns="http://www.w3.org/2000/svg">
<path d="M1510.95 1257.42C1433.83 1354.59 1183.71 1382.19 1068.29 1383.84C1025.16 1385.42 659.865 1375.16 529.222 1357.81C398.578 1340.46 294.57 1259.9 248.908 1207.84C203.246 1155.78 176.61 1028.12 182.952 871.948C189.294 715.777 163.926 622.818 129.68 523.662C95.4337 424.506 14.2569 305.519 1.57304 205.124C-11.1108 104.728 54.8453 19.2062 129.68 -58.8792C204.515 -136.965 158.11 -248.467 301.438 -393.483C444.766 -538.499 705.527 -496.405 760.068 -531.11C814.608 -565.815 959.204 -578.209 1028.97 -564.575C1098.73 -550.941 1172.29 -548.462 1362.55 -433.193C1552.81 -317.924 1612.42 -132.007 1659.35 19.2061C1706.28 170.419 1720.24 319.153 1707.55 435.661C1694.87 552.17 1677.11 692.228 1659.35 878.145C1641.6 1064.06 1607.35 1135.95 1510.95 1257.42Z" fill="white"/>
</svg>
