<svg width="351" height="55" viewBox="0 0 351 55" fill="none" xmlns="http://www.w3.org/2000/svg">
<rect x="1" y="2.11523" width="16.9344" height="49.7397" rx="3" fill="white"/>
<rect x="0.5" y="1.61523" width="17.9344" height="50.7397" rx="3.5" stroke="black" stroke-opacity="0.5"/>
<rect x="2.53955" y="3.66919" width="13.8554" height="46.631" fill="#2C2C2C"/>
<path d="M12.3027 8.85068C12.3027 10.296 11.1436 11.4594 9.72375 11.4594C8.30395 11.4594 7.14478 10.296 7.14478 8.85068C7.14478 7.40537 8.30395 6.24194 9.72375 6.24194C11.1436 6.24194 12.3027 7.40537 12.3027 8.85068Z" fill="#1C1C1C" stroke="#F3F3F3"/>
<path d="M12.303 15.5865C12.303 17.0318 11.1438 18.1952 9.724 18.1952C8.30419 18.1952 7.14502 17.0318 7.14502 15.5865C7.14502 14.1412 8.30419 12.9778 9.724 12.9778C11.1438 12.9778 12.303 14.1412 12.303 15.5865Z" fill="#1C1C1C" stroke="#F3F3F3"/>
<path d="M12.303 22.8402C12.303 24.2855 11.1438 25.4489 9.724 25.4489C8.30419 25.4489 7.14502 24.2855 7.14502 22.8402C7.14502 21.3949 8.30419 20.2314 9.724 20.2314C11.1438 20.2314 12.303 21.3949 12.303 22.8402Z" fill="#1C1C1C" stroke="#F3F3F3"/>
<path d="M12.303 30.0936C12.303 31.5389 11.1438 32.7023 9.724 32.7023C8.30419 32.7023 7.14502 31.5389 7.14502 30.0936C7.14502 28.6483 8.30419 27.4849 9.724 27.4849C11.1438 27.4849 12.303 28.6483 12.303 30.0936Z" fill="#1C1C1C" stroke="#F3F3F3"/>
<path d="M12.303 37.3475C12.303 38.7928 11.1438 39.9562 9.724 39.9562C8.30419 39.9562 7.14502 38.7928 7.14502 37.3475C7.14502 35.9022 8.30419 34.7388 9.724 34.7388C11.1438 34.7388 12.303 35.9022 12.303 37.3475Z" fill="#1C1C1C" stroke="#F3F3F3"/>
<path d="M12.303 44.6012C12.303 46.0465 11.1438 47.2099 9.724 47.2099C8.30419 47.2099 7.14502 46.0465 7.14502 44.6012C7.14502 43.1559 8.30419 41.9924 9.724 41.9924C11.1438 41.9924 12.303 43.1559 12.303 44.6012Z" fill="#1C1C1C" stroke="#F3F3F3"/>
<path d="M20.5 2.63354H36.9212L65.6584 52.3733H49.2372L20.5 2.63354Z" fill="white"/>
<path d="M49.2372 6.18014C49.2372 4.52328 50.5803 3.18014 52.2372 3.18014H62.6584C64.3152 3.18014 65.6584 4.52328 65.6584 6.18014V52.3733H49.2372V6.18014Z" fill="white"/>
<path d="M20.5 2.63354H36.9212L65.6584 52.3733H49.2372L20.5 2.63354Z" fill="white"/>
<path d="M20.5 2.63354H36.9212V48.8267C36.9212 50.4835 35.5781 51.8267 33.9212 51.8267H23.5C21.8431 51.8267 20.5 50.4835 20.5 48.8267V2.63354Z" fill="white"/>
<path d="M19.6337 2.13354L20 2.7676V48.8267C20 50.7597 21.567 52.3267 23.5 52.3267H33.9212C35.8542 52.3267 37.4212 50.7597 37.4212 48.8267V32.9212L48.7372 52.5073V52.8733H48.9486H49.2372H65.6584H66.1584H66.5247L66.1584 52.2392V6.18014C66.1584 4.24714 64.5914 2.68014 62.6584 2.68014H52.2372C50.3042 2.68014 48.7372 4.24714 48.7372 6.18014V22.0857L37.4212 2.49949V2.13354H37.2098H36.9212H20.5H20H19.6337Z" stroke="black" stroke-opacity="0.5"/>
<path d="M21.5271 3.66943H35.3825L64.3763 50.8185H50.5208L21.5271 3.66943Z" fill="#2C2C2C"/>
<path d="M50.5208 4.18756H64.3763V50.8185H50.5208V4.18756Z" fill="#2C2C2C"/>
<path d="M21.5271 3.66943H35.3825L64.3763 50.8185H50.5208L21.5271 3.66943Z" fill="#2C2C2C"/>
<path d="M21.5271 3.66943H35.3825V50.3004H21.5271V3.66943Z" fill="#2C2C2C"/>
<path d="M31.2905 9.88705C31.2905 11.3324 30.1314 12.4958 28.7115 12.4958C27.2917 12.4958 26.1326 11.3324 26.1326 9.88705C26.1326 8.44174 27.2917 7.27832 28.7115 7.27832C30.1314 7.27832 31.2905 8.44174 31.2905 9.88705Z" fill="#1C1C1C" stroke="#F3F3F3"/>
<path d="M60.0269 9.88705C60.0269 11.3324 58.8677 12.4958 57.4479 12.4958C56.0281 12.4958 54.8689 11.3324 54.8689 9.88705C54.8689 8.44174 56.0281 7.27832 57.4479 7.27832C58.8677 7.27832 60.0269 8.44174 60.0269 9.88705Z" fill="#1C1C1C" stroke="#F3F3F3"/>
<path d="M36.7051 13.7806C37.488 14.9864 37.1531 16.6017 35.9628 17.3895C34.7724 18.1774 33.1718 17.8432 32.3889 16.6374C31.606 15.4316 31.9409 13.8164 33.1312 13.0285C34.3216 12.2406 35.9222 12.5749 36.7051 13.7806Z" fill="#1C1C1C" stroke="#F3F3F3"/>
<path d="M31.2895 16.6229C31.2895 18.0682 30.1304 19.2316 28.7106 19.2316C27.2908 19.2316 26.1316 18.0682 26.1316 16.6229C26.1316 15.1776 27.2908 14.0142 28.7106 14.0142C30.1304 14.0142 31.2895 15.1776 31.2895 16.6229Z" fill="#1C1C1C" stroke="#F3F3F3"/>
<path d="M60.0269 16.6229C60.0269 18.0682 58.8677 19.2316 57.4479 19.2316C56.0281 19.2316 54.8689 18.0682 54.8689 16.6229C54.8689 15.1776 56.0281 14.0142 57.4479 14.0142C58.8677 14.0142 60.0269 15.1776 60.0269 16.6229Z" fill="#1C1C1C" stroke="#F3F3F3"/>
<path d="M40.3628 19.9318C41.1456 21.1375 40.8108 22.7528 39.6205 23.5407C38.4301 24.3285 36.8295 23.9943 36.0466 22.7885C35.2637 21.5827 35.5986 19.9675 36.7889 19.1796C37.9793 18.3917 39.5799 18.726 40.3628 19.9318Z" fill="#1C1C1C" stroke="#F3F3F3"/>
<path d="M31.2895 23.8766C31.2895 25.3219 30.1304 26.4853 28.7106 26.4853C27.2908 26.4853 26.1316 25.3219 26.1316 23.8766C26.1316 22.4312 27.2908 21.2678 28.7106 21.2678C30.1304 21.2678 31.2895 22.4312 31.2895 23.8766Z" fill="#1C1C1C" stroke="#F3F3F3"/>
<path d="M60.0269 23.8766C60.0269 25.3219 58.8677 26.4853 57.4479 26.4853C56.0281 26.4853 54.8689 25.3219 54.8689 23.8766C54.8689 22.4312 56.0281 21.2678 57.4479 21.2678C58.8677 21.2678 60.0269 22.4312 60.0269 23.8766Z" fill="#1C1C1C" stroke="#F3F3F3"/>
<path d="M44.8144 26.5162C45.5973 27.722 45.2625 29.3373 44.0721 30.1251C42.8818 30.913 41.2812 30.5788 40.4983 29.373C39.7154 28.1672 40.0502 26.552 41.2406 25.7641C42.431 24.9762 44.0315 25.3104 44.8144 26.5162Z" fill="#1C1C1C" stroke="#F3F3F3"/>
<path d="M31.2895 31.1305C31.2895 32.5758 30.1304 33.7392 28.7106 33.7392C27.2908 33.7392 26.1316 32.5758 26.1316 31.1305C26.1316 29.6852 27.2908 28.5217 28.7106 28.5217C30.1304 28.5217 31.2895 29.6852 31.2895 31.1305Z" fill="#1C1C1C" stroke="#F3F3F3"/>
<path d="M60.0269 31.1305C60.0269 32.5758 58.8677 33.7392 57.4479 33.7392C56.0281 33.7392 54.8689 32.5758 54.8689 31.1305C54.8689 29.6852 56.0281 28.5217 57.4479 28.5217C58.8677 28.5217 60.0269 29.6852 60.0269 31.1305Z" fill="#1C1C1C" stroke="#F3F3F3"/>
<path d="M49.2663 33.1009C50.0492 34.3067 49.7144 35.922 48.524 36.7099C47.3336 37.4977 45.7331 37.1635 44.9502 35.9577C44.1673 34.7519 44.5021 33.1367 45.6925 32.3488C46.8828 31.5609 48.4834 31.8952 49.2663 33.1009Z" fill="#1C1C1C" stroke="#F3F3F3"/>
<path d="M31.2895 38.3839C31.2895 39.8292 30.1304 40.9926 28.7106 40.9926C27.2908 40.9926 26.1316 39.8292 26.1316 38.3839C26.1316 36.9386 27.2908 35.7751 28.7106 35.7751C30.1304 35.7751 31.2895 36.9386 31.2895 38.3839Z" fill="#1C1C1C" stroke="#F3F3F3"/>
<path d="M60.0269 38.3839C60.0269 39.8292 58.8677 40.9926 57.4479 40.9926C56.0281 40.9926 54.8689 39.8292 54.8689 38.3839C54.8689 36.9386 56.0281 35.7751 57.4479 35.7751C58.8677 35.7751 60.0269 36.9386 60.0269 38.3839Z" fill="#1C1C1C" stroke="#F3F3F3"/>
<path d="M53.7187 39.6852C54.5016 40.891 54.1668 42.5062 52.9764 43.2941C51.7861 44.0819 50.1855 43.7477 49.4026 42.5419C48.6197 41.3361 48.9545 39.7209 50.1449 38.933C51.3353 38.1452 52.9358 38.4794 53.7187 39.6852Z" fill="#1C1C1C" stroke="#F3F3F3"/>
<path d="M31.2895 45.6378C31.2895 47.0831 30.1304 48.2465 28.7106 48.2465C27.2908 48.2465 26.1316 47.0831 26.1316 45.6378C26.1316 44.1925 27.2908 43.0291 28.7106 43.0291C30.1304 43.0291 31.2895 44.1925 31.2895 45.6378Z" fill="#1C1C1C" stroke="#F3F3F3"/>
<path d="M60.0269 45.6378C60.0269 47.0831 58.8677 48.2465 57.4479 48.2465C56.0281 48.2465 54.8689 47.0831 54.8689 45.6378C54.8689 44.1925 56.0281 43.0291 57.4479 43.0291C58.8677 43.0291 60.0269 44.1925 60.0269 45.6378Z" fill="#1C1C1C" stroke="#F3F3F3"/>
<path d="M80.5057 6.66983C80.5057 5.01297 81.8488 3.66983 83.5057 3.66983H94.4401C96.0969 3.66983 97.4401 5.01298 97.4401 6.66983V50.4095C97.4401 52.0664 96.0969 53.4095 94.4401 53.4095H83.5057C81.8488 53.4095 80.5057 52.0664 80.5057 50.4095V6.66983Z" fill="white"/>
<path d="M80.5057 4.70608C80.5057 3.84762 81.1949 3.15171 82.0452 3.15171H95.9006C96.7508 3.15171 97.4401 3.84762 97.4401 4.70608V51.337C97.4401 52.1955 96.7508 52.8914 95.9006 52.8914H82.0452C81.1949 52.8914 80.5057 52.1955 80.5057 51.337V4.70608Z" fill="white"/>
<path d="M107.28 2.63355C108.13 2.63355 108.82 3.32946 108.82 4.18791L108.82 16.6228C108.82 17.4813 108.13 18.1772 107.28 18.1772L69.7292 18.1772C68.8789 18.1772 68.1897 17.4813 68.1897 16.6228V4.18791C68.1897 3.32946 68.879 2.63354 69.7292 2.63354L107.28 2.63355Z" fill="white"/>
<path d="M107.973 2.63355C108.674 2.63355 109.243 3.26619 109.243 4.04661V16.7641C109.243 17.5446 108.674 18.1772 107.973 18.1772L69.8826 18.1772C69.1814 18.1772 68.6129 17.5446 68.6129 16.7641L68.6129 4.0466C68.6129 3.26619 69.1814 2.63354 69.8826 2.63354L107.973 2.63355Z" fill="white"/>
<path d="M97.9401 50.4095V18.6772H107.28C107.28 18.6772 107.28 18.6772 107.28 18.6772H107.973C108.999 18.6772 109.743 17.769 109.743 16.7641V4.04661C109.743 3.04171 108.999 2.13355 107.973 2.13355H107.28L69.8826 2.13354C69.8826 2.13354 69.8825 2.13354 69.8824 2.13354H69.7292C68.5983 2.13354 67.6897 3.05786 67.6897 4.18791V16.6228C67.6897 17.7529 68.5983 18.6772 69.7292 18.6772H69.8826H80.0057V50.4095V51.337C80.0057 52.3114 80.6812 53.1328 81.5922 53.3407C82.1422 53.7004 82.7995 53.9095 83.5057 53.9095H94.4401C95.1462 53.9095 95.8036 53.7004 96.3535 53.3407C97.2646 53.1328 97.9401 52.3114 97.9401 51.337V50.4095Z" stroke="black" stroke-opacity="0.5"/>
<path d="M82.0449 5.22412H95.9003V51.8551H82.0449V5.22412Z" fill="#2C2C2C"/>
<path d="M82.0449 5.22412H95.9003V51.8551H82.0449V5.22412Z" fill="#2C2C2C"/>
<path d="M107.703 4.70605L107.703 16.6229L69.2159 16.6229L69.2159 4.70605L107.703 4.70605Z" fill="#2C2C2C"/>
<path d="M107.703 4.70605L107.703 16.6229L69.2159 16.6229L69.2159 4.70605L107.703 4.70605Z" fill="#2C2C2C"/>
<path d="M91.2949 10.4054C91.2949 11.8507 90.1357 13.0141 88.7159 13.0141C87.2961 13.0141 86.137 11.8507 86.137 10.4054C86.137 8.96005 87.2961 7.79663 88.7159 7.79663C90.1357 7.79663 91.2949 8.96005 91.2949 10.4054Z" fill="#1C1C1C" stroke="#F3F3F3"/>
<path d="M97.9661 10.4054C97.9661 11.8507 96.8069 13.0141 95.3871 13.0141C93.9673 13.0141 92.8081 11.8507 92.8081 10.4054C92.8081 8.96005 93.9673 7.79663 95.3871 7.79663C96.8069 7.79663 97.9661 8.96005 97.9661 10.4054Z" fill="#1C1C1C" stroke="#F3F3F3"/>
<path d="M105.15 10.4054C105.15 11.8507 103.991 13.0141 102.571 13.0141C101.152 13.0141 99.9924 11.8507 99.9924 10.4054C99.9924 8.96005 101.152 7.79663 102.571 7.79663C103.991 7.79663 105.15 8.96005 105.15 10.4054Z" fill="#1C1C1C" stroke="#F3F3F3"/>
<path d="M84.6238 10.4054C84.6238 11.8507 83.4646 13.0141 82.0448 13.0141C80.625 13.0141 79.4658 11.8507 79.4658 10.4054C79.4658 8.96005 80.625 7.79663 82.0448 7.79663C83.4646 7.79663 84.6238 8.96005 84.6238 10.4054Z" fill="#1C1C1C" stroke="#F3F3F3"/>
<path d="M77.9526 10.4056C77.9526 11.8509 76.7935 13.0143 75.3737 13.0143C73.9538 13.0143 72.7947 11.8509 72.7947 10.4056C72.7947 8.9603 73.9538 7.79688 75.3737 7.79688C76.7935 7.79688 77.9526 8.9603 77.9526 10.4056Z" fill="#1C1C1C" stroke="#F3F3F3"/>
<path d="M91.2949 17.141C91.2949 18.5863 90.1357 19.7497 88.7159 19.7497C87.2961 19.7497 86.137 18.5863 86.137 17.141C86.137 15.6957 87.2961 14.5322 88.7159 14.5322C90.1357 14.5322 91.2949 15.6957 91.2949 17.141Z" fill="#1C1C1C" stroke="#F3F3F3"/>
<path d="M91.2949 24.3946C91.2949 25.8399 90.1357 27.0033 88.7159 27.0033C87.2961 27.0033 86.137 25.8399 86.137 24.3946C86.137 22.9493 87.2961 21.7859 88.7159 21.7859C90.1357 21.7859 91.2949 22.9493 91.2949 24.3946Z" fill="#1C1C1C" stroke="#F3F3F3"/>
<path d="M91.2949 31.6485C91.2949 33.0938 90.1357 34.2573 88.7159 34.2573C87.2961 34.2573 86.137 33.0938 86.137 31.6485C86.137 30.2032 87.2961 29.0398 88.7159 29.0398C90.1357 29.0398 91.2949 30.2032 91.2949 31.6485Z" fill="#1C1C1C" stroke="#F3F3F3"/>
<path d="M91.2949 38.9022C91.2949 40.3475 90.1357 41.5109 88.7159 41.5109C87.2961 41.5109 86.137 40.3475 86.137 38.9022C86.137 37.4569 87.2961 36.2935 88.7159 36.2935C90.1357 36.2935 91.2949 37.4569 91.2949 38.9022Z" fill="#1C1C1C" stroke="#F3F3F3"/>
<path d="M91.2949 46.1559C91.2949 47.6012 90.1357 48.7646 88.7159 48.7646C87.2961 48.7646 86.137 47.6012 86.137 46.1559C86.137 44.7105 87.2961 43.5471 88.7159 43.5471C90.1357 43.5471 91.2949 44.7105 91.2949 46.1559Z" fill="#1C1C1C" stroke="#F3F3F3"/>
<path d="M112.766 2.63355H125.731C127.388 2.63355 128.731 3.97669 128.731 5.63355V50.4095C128.731 52.0664 127.388 53.4095 125.731 53.4095H112.766V2.63355Z" fill="white"/>
<path d="M112.766 2.63355H125.731C127.388 2.63355 128.731 3.97669 128.731 5.63355V50.4095C128.731 52.0664 127.388 53.4095 125.731 53.4095H112.766V2.63355Z" fill="white"/>
<path d="M140.555 21.2514C142.212 21.2514 143.555 22.5945 143.555 24.2514V31.2275C143.555 32.8843 142.212 34.2275 140.555 34.2275L115.766 34.2275C114.109 34.2275 112.766 32.8843 112.766 31.2275L112.766 24.2514C112.766 22.5945 114.109 21.2514 115.766 21.2514H140.555Z" fill="white"/>
<path d="M140.555 21.2514C142.212 21.2514 143.555 22.5945 143.555 24.2514V31.2275C143.555 32.8843 142.212 34.2275 140.555 34.2275L115.766 34.2275C114.109 34.2275 112.766 32.8843 112.766 31.2275L112.766 24.2514C112.766 22.5945 114.109 21.2514 115.766 21.2514H140.555Z" fill="white"/>
<path d="M140.555 2.63355C142.212 2.63355 143.555 3.97669 143.555 5.63355V12.6096C143.555 14.2665 142.212 15.6096 140.555 15.6096L115.766 15.6096C114.109 15.6096 112.766 14.2665 112.766 12.6096L112.766 2.63355H140.555Z" fill="white"/>
<path d="M140.555 2.63355C142.212 2.63355 143.555 3.97669 143.555 5.63355V12.6096C143.555 14.2665 142.212 15.6096 140.555 15.6096L115.766 15.6096C114.109 15.6096 112.766 14.2665 112.766 12.6096L112.766 2.63355H140.555Z" fill="white"/>
<path d="M140.555 40.4334C142.212 40.4334 143.555 41.7766 143.555 43.4334V50.4095C143.555 52.0664 142.212 53.4095 140.555 53.4095H112.766L112.766 43.4334C112.766 41.7766 114.109 40.4334 115.766 40.4334H140.555Z" fill="white"/>
<path d="M140.555 40.4334C142.212 40.4334 143.555 41.7766 143.555 43.4334V50.4095C143.555 52.0664 142.212 53.4095 140.555 53.4095H112.766L112.766 43.4334C112.766 41.7766 114.109 40.4334 115.766 40.4334H140.555Z" fill="white"/>
<path d="M112.266 2.13355H112.266V2.63354L112.266 12.6096C112.266 12.6162 112.266 12.6228 112.266 12.6294V24.2289C112.266 24.2364 112.266 24.2439 112.266 24.2514L112.266 31.2275C112.266 31.235 112.266 31.2425 112.266 31.2501V43.4137C112.266 43.4203 112.266 43.4269 112.266 43.4335L112.266 53.4095V53.9095H112.766H125.731H140.555C142.488 53.9095 144.055 52.3425 144.055 50.4095V43.4334C144.055 41.5004 142.488 39.9334 140.555 39.9334H129.231V34.7275H140.555C142.488 34.7275 144.055 33.1605 144.055 31.2275V24.2514C144.055 22.3184 142.488 20.7514 140.555 20.7514H129.231V16.1096H140.555C142.488 16.1096 144.055 14.5426 144.055 12.6096V5.63355C144.055 3.70055 142.488 2.13355 140.555 2.13355H125.731H112.766H112.266Z" stroke="black" stroke-opacity="0.5"/>
<path d="M114.306 4.70605H128.674V51.337H114.306V4.70605Z" fill="#2C2C2C"/>
<path d="M114.306 4.70605H128.674V51.337H114.306V4.70605Z" fill="#2C2C2C"/>
<path d="M142.016 4.18799L142.016 16.1048L114.305 16.1048L114.305 4.18799L142.016 4.18799Z" fill="#2C2C2C"/>
<path d="M142.016 4.18799L142.016 16.1048L114.305 16.1048L114.305 4.18799L142.016 4.18799Z" fill="#2C2C2C"/>
<path d="M142.016 21.8042L142.016 33.721L114.305 33.721L114.305 21.8042L142.016 21.8042Z" fill="#2C2C2C"/>
<path d="M142.016 21.8042L142.016 33.721L114.305 33.721L114.305 21.8042L142.016 21.8042Z" fill="#2C2C2C"/>
<path d="M142.016 39.4204L142.016 51.3372L114.305 51.3372L114.305 39.4204L142.016 39.4204Z" fill="#2C2C2C"/>
<path d="M142.016 39.4204L142.016 51.3372L114.305 51.3372L114.305 39.4204L142.016 39.4204Z" fill="#2C2C2C"/>
<path d="M124.07 10.4051C124.07 11.8504 122.91 13.0138 121.491 13.0138C120.071 13.0138 118.912 11.8504 118.912 10.4051C118.912 8.95981 120.071 7.79639 121.491 7.79639C122.91 7.79639 124.07 8.95981 124.07 10.4051Z" fill="#1C1C1C" stroke="#F3F3F3"/>
<path d="M130.74 10.4051C130.74 11.8504 129.581 13.0138 128.161 13.0138C126.741 13.0138 125.582 11.8504 125.582 10.4051C125.582 8.95981 126.741 7.79639 128.161 7.79639C129.581 7.79639 130.74 8.95981 130.74 10.4051Z" fill="#1C1C1C" stroke="#F3F3F3"/>
<path d="M130.74 28.0213C130.74 29.4666 129.581 30.6301 128.161 30.6301C126.741 30.6301 125.582 29.4666 125.582 28.0213C125.582 26.576 126.741 25.4126 128.161 25.4126C129.581 25.4126 130.74 26.576 130.74 28.0213Z" fill="#1C1C1C" stroke="#F3F3F3"/>
<path d="M130.74 45.6375C130.74 47.0829 129.581 48.2463 128.161 48.2463C126.741 48.2463 125.582 47.0829 125.582 45.6375C125.582 44.1922 126.741 43.0288 128.161 43.0288C129.581 43.0288 130.74 44.1922 130.74 45.6375Z" fill="#1C1C1C" stroke="#F3F3F3"/>
<path d="M137.411 10.4051C137.411 11.8504 136.252 13.0138 134.832 13.0138C133.412 13.0138 132.253 11.8504 132.253 10.4051C132.253 8.95981 133.412 7.79639 134.832 7.79639C136.252 7.79639 137.411 8.95981 137.411 10.4051Z" fill="#1C1C1C" stroke="#F3F3F3"/>
<path d="M137.411 28.0213C137.411 29.4666 136.252 30.6301 134.832 30.6301C133.412 30.6301 132.253 29.4666 132.253 28.0213C132.253 26.576 133.412 25.4126 134.832 25.4126C136.252 25.4126 137.411 26.576 137.411 28.0213Z" fill="#1C1C1C" stroke="#F3F3F3"/>
<path d="M137.411 45.6375C137.411 47.0829 136.252 48.2463 134.832 48.2463C133.412 48.2463 132.253 47.0829 132.253 45.6375C132.253 44.1922 133.412 43.0288 134.832 43.0288C136.252 43.0288 137.411 44.1922 137.411 45.6375Z" fill="#1C1C1C" stroke="#F3F3F3"/>
<path d="M124.069 17.1407C124.069 18.586 122.91 19.7495 121.49 19.7495C120.07 19.7495 118.911 18.586 118.911 17.1407C118.911 15.6954 120.07 14.532 121.49 14.532C122.91 14.532 124.069 15.6954 124.069 17.1407Z" fill="#1C1C1C" stroke="#F3F3F3"/>
<path d="M124.069 24.3946C124.069 25.8399 122.91 27.0033 121.49 27.0033C120.07 27.0033 118.911 25.8399 118.911 24.3946C118.911 22.9493 120.07 21.7859 121.49 21.7859C122.91 21.7859 124.069 22.9493 124.069 24.3946Z" fill="#1C1C1C" stroke="#F3F3F3"/>
<path d="M124.069 31.6483C124.069 33.0936 122.91 34.257 121.49 34.257C120.07 34.257 118.911 33.0936 118.911 31.6483C118.911 30.203 120.07 29.0396 121.49 29.0396C122.91 29.0396 124.069 30.203 124.069 31.6483Z" fill="#1C1C1C" stroke="#F3F3F3"/>
<path d="M124.069 38.9019C124.069 40.3473 122.91 41.5107 121.49 41.5107C120.07 41.5107 118.911 40.3473 118.911 38.9019C118.911 37.4566 120.07 36.2932 121.49 36.2932C122.91 36.2932 124.069 37.4566 124.069 38.9019Z" fill="#1C1C1C" stroke="#F3F3F3"/>
<path d="M124.069 46.1556C124.069 47.6009 122.91 48.7643 121.49 48.7643C120.07 48.7643 118.911 47.6009 118.911 46.1556C118.911 44.7103 120.07 43.5469 121.49 43.5469C122.91 43.5469 124.069 44.7103 124.069 46.1556Z" fill="#1C1C1C" stroke="#F3F3F3"/>
<path d="M148.336 7.65214C147.181 5.65214 148.624 3.15137 150.934 3.15137H163.286C164.337 3.15137 165.312 3.70137 165.855 4.6012L192.253 48.3409C193.46 50.3403 192.02 52.8911 189.685 52.8911H176.205C175.133 52.8911 174.143 52.3196 173.607 51.3918L148.336 7.65214Z" fill="white"/>
<path d="M191.501 5.48893C192.1 4.4527 191.36 3.15137 190.172 3.15137H174.473C173.936 3.15137 173.438 3.43389 173.158 3.89689L145.015 50.5279C144.389 51.5637 145.128 52.8911 146.329 52.8911H163.231C163.778 52.8911 164.284 52.5974 164.56 52.1199L191.501 5.48893Z" fill="white"/>
<path d="M147.903 7.90227L158.787 26.7405L144.587 50.2695C143.765 51.6313 144.73 53.3911 146.329 53.3911H163.231C163.958 53.3911 164.629 53.0008 164.993 52.37L169.294 44.9261L173.174 51.642C173.799 52.7244 174.955 53.3911 176.205 53.3911H189.685C192.41 53.3911 194.089 50.4152 192.682 48.0825L179.801 26.7405L191.934 5.73906C192.721 4.37671 191.753 2.65137 190.172 2.65137H174.473C173.759 2.65137 173.099 3.02686 172.73 3.63853L169.294 9.33204L166.283 4.34283C165.649 3.29304 164.512 2.65137 163.286 2.65137H150.934C148.239 2.65137 146.555 5.56894 147.903 7.90227Z" stroke="black" stroke-opacity="0.5"/>
<path d="M148.302 4.70581H164.467L191.921 51.5959L174.987 51.8549L148.302 4.70581Z" fill="#2C2C2C"/>
<path d="M190.382 4.70581H174.217L146.763 51.5959L163.697 51.8549L190.382 4.70581Z" fill="#2C2C2C"/>
<path d="M160.055 9.33969C160.055 10.785 158.896 11.9484 157.476 11.9484C156.056 11.9484 154.897 10.785 154.897 9.33969C154.897 7.89438 156.056 6.73096 157.476 6.73096C158.896 6.73096 160.055 7.89438 160.055 9.33969Z" fill="#1C1C1C" stroke="#F3F3F3"/>
<path d="M163.487 14.2247C164.27 15.4305 163.935 17.0458 162.745 17.8336C161.554 18.6215 159.954 18.2873 159.171 17.0815C158.388 15.8757 158.723 14.2605 159.913 13.4726C161.104 12.6847 162.704 13.0189 163.487 14.2247Z" fill="#1C1C1C" stroke="#F3F3F3"/>
<path d="M167.144 20.3761C167.927 21.5819 167.592 23.1971 166.402 23.985C165.212 24.7729 163.611 24.4386 162.828 23.2328C162.045 22.0271 162.38 20.4118 163.57 19.624C164.761 18.8361 166.361 19.1703 167.144 20.3761Z" fill="#1C1C1C" stroke="#F3F3F3"/>
<path d="M170.605 26.9603C171.388 28.1661 171.053 29.7813 169.863 30.5692C168.673 31.3571 167.072 31.0229 166.289 29.8171C165.506 28.6113 165.841 26.996 167.031 26.2082C168.222 25.4203 169.822 25.7545 170.605 26.9603Z" fill="#1C1C1C" stroke="#F3F3F3"/>
<path d="M175.057 33.5448C175.84 34.7506 175.505 36.3658 174.315 37.1537C173.125 37.9416 171.524 37.6073 170.741 36.4016C169.958 35.1958 170.293 33.5805 171.484 32.7926C172.674 32.0048 174.274 32.339 175.057 33.5448Z" fill="#1C1C1C" stroke="#F3F3F3"/>
<path d="M179.509 40.1293C180.292 41.3351 179.957 42.9503 178.767 43.7382C177.576 44.526 175.976 44.1918 175.193 42.986C174.41 41.7802 174.745 40.165 175.935 39.3771C177.126 38.5892 178.726 38.9235 179.509 40.1293Z" fill="#1C1C1C" stroke="#F3F3F3"/>
<path d="M183.834 48.065C183.834 49.5103 182.675 50.6738 181.255 50.6738C179.835 50.6738 178.676 49.5103 178.676 48.065C178.676 46.6197 179.835 45.4563 181.255 45.4563C182.675 45.4563 183.834 46.6197 183.834 48.065Z" fill="#1C1C1C" stroke="#F3F3F3"/>
<path d="M177.684 9.33969C177.684 10.785 178.843 11.9484 180.263 11.9484C181.683 11.9484 182.842 10.785 182.842 9.33969C182.842 7.89438 181.683 6.73096 180.263 6.73096C178.843 6.73096 177.684 7.89438 177.684 9.33969Z" fill="#1C1C1C" stroke="#F3F3F3"/>
<path d="M174.251 14.2247C173.468 15.4305 173.803 17.0458 174.993 17.8336C176.184 18.6215 177.784 18.2873 178.567 17.0815C179.35 15.8757 179.015 14.2605 177.825 13.4726C176.634 12.6847 175.034 13.0189 174.251 14.2247Z" fill="#1C1C1C" stroke="#F3F3F3"/>
<path d="M170.594 20.3761C169.811 21.5819 170.146 23.1971 171.337 23.985C172.527 24.7729 174.127 24.4386 174.91 23.2328C175.693 22.0271 175.358 20.4118 174.168 19.624C172.978 18.8361 171.377 19.1703 170.594 20.3761Z" fill="#1C1C1C" stroke="#F3F3F3"/>
<path d="M162.682 33.5448C161.899 34.7506 162.234 36.3658 163.424 37.1537C164.614 37.9416 166.215 37.6073 166.998 36.4016C167.781 35.1958 167.446 33.5805 166.256 32.7926C165.065 32.0048 163.465 32.339 162.682 33.5448Z" fill="#1C1C1C" stroke="#F3F3F3"/>
<path d="M158.23 40.1293C157.447 41.3351 157.782 42.9503 158.972 43.7382C160.163 44.526 161.763 44.1918 162.546 42.986C163.329 41.7802 162.994 40.165 161.804 39.3771C160.613 38.5893 159.013 38.9235 158.23 40.1293Z" fill="#1C1C1C" stroke="#F3F3F3"/>
<path d="M153.905 48.065C153.905 49.5103 155.064 50.6738 156.484 50.6738C157.904 50.6738 159.063 49.5103 159.063 48.065C159.063 46.6197 157.904 45.4563 156.484 45.4563C155.064 45.4563 153.905 46.6197 153.905 48.065Z" fill="#1C1C1C" stroke="#F3F3F3"/>
<path d="M217.876 14H216.714V5.698H211.254V14H210.092V4.662H217.876V14ZM223.349 14.168C222.397 14.168 221.636 13.7713 221.067 12.978V16.576H220.017V7.238H221.067V8.246C221.319 7.89133 221.645 7.60667 222.047 7.392C222.448 7.17733 222.882 7.07 223.349 7.07C224.245 7.07 224.968 7.392 225.519 8.036C226.079 8.67067 226.359 9.52933 226.359 10.612C226.359 11.6947 226.079 12.558 225.519 13.202C224.968 13.846 224.245 14.168 223.349 14.168ZM223.083 13.23C223.745 13.23 224.273 12.9873 224.665 12.502C225.057 12.0073 225.253 11.3773 225.253 10.612C225.253 9.84667 225.057 9.22133 224.665 8.736C224.273 8.25067 223.745 8.008 223.083 8.008C222.681 8.008 222.289 8.11533 221.907 8.33C221.533 8.53533 221.253 8.78733 221.067 9.086V12.138C221.253 12.446 221.533 12.7073 221.907 12.922C222.289 13.1273 222.681 13.23 223.083 13.23ZM233.405 13.146C232.798 13.8273 231.991 14.168 230.983 14.168C229.975 14.168 229.163 13.8273 228.547 13.146C227.94 12.4647 227.637 11.62 227.637 10.612C227.637 9.604 227.94 8.764 228.547 8.092C229.163 7.41067 229.975 7.07 230.983 7.07C231.991 7.07 232.798 7.41067 233.405 8.092C234.021 8.764 234.329 9.604 234.329 10.612C234.329 11.62 234.021 12.4647 233.405 13.146ZM229.331 12.474C229.741 12.978 230.292 13.23 230.983 13.23C231.673 13.23 232.219 12.978 232.621 12.474C233.022 11.9607 233.223 11.34 233.223 10.612C233.223 9.884 233.022 9.268 232.621 8.764C232.219 8.26 231.673 8.008 230.983 8.008C230.292 8.008 229.741 8.26467 229.331 8.778C228.929 9.282 228.729 9.89333 228.729 10.612C228.729 11.34 228.929 11.9607 229.331 12.474ZM235.242 15.722V13.132C235.588 13.0667 235.858 12.8613 236.054 12.516C236.25 12.1613 236.409 11.5127 236.53 10.57L236.964 7.238H241.668V13.076H242.452V15.722H241.402V14H236.292V15.722H235.242ZM237.888 8.162L237.58 10.696C237.422 11.8813 237.095 12.6747 236.6 13.076H240.618V8.162H237.888ZM249.166 14H248.116V13.23C247.547 13.8553 246.8 14.168 245.876 14.168C245.251 14.168 244.7 13.9673 244.224 13.566C243.748 13.1647 243.51 12.6187 243.51 11.928C243.51 11.2187 243.743 10.6727 244.21 10.29C244.686 9.898 245.241 9.702 245.876 9.702C246.837 9.702 247.584 10.01 248.116 10.626V9.408C248.116 8.96 247.957 8.61 247.64 8.358C247.323 8.106 246.912 7.98 246.408 7.98C245.615 7.98 244.924 8.29267 244.336 8.918L243.846 8.19C244.565 7.44333 245.465 7.07 246.548 7.07C247.323 7.07 247.953 7.25667 248.438 7.63C248.923 8.00333 249.166 8.57733 249.166 9.352V14ZM246.254 13.412C247.094 13.412 247.715 13.132 248.116 12.572V11.298C247.715 10.738 247.094 10.458 246.254 10.458C245.769 10.458 245.367 10.598 245.05 10.878C244.742 11.1487 244.588 11.5033 244.588 11.942C244.588 12.3713 244.742 12.726 245.05 13.006C245.367 13.2767 245.769 13.412 246.254 13.412ZM251.761 14H250.417L253.427 10.304L250.431 7.238H251.761L254.673 10.22V7.238H255.723V10.206L258.635 7.238H259.965L256.955 10.304L259.979 14H258.635L256.199 10.962L255.723 11.438V14H254.673V11.438L254.197 10.962L251.761 14ZM266.502 14H265.452V13.23C264.882 13.8553 264.136 14.168 263.212 14.168C262.586 14.168 262.036 13.9673 261.56 13.566C261.084 13.1647 260.846 12.6187 260.846 11.928C260.846 11.2187 261.079 10.6727 261.546 10.29C262.022 9.898 262.577 9.702 263.212 9.702C264.173 9.702 264.92 10.01 265.452 10.626V9.408C265.452 8.96 265.293 8.61 264.976 8.358C264.658 8.106 264.248 7.98 263.744 7.98C262.95 7.98 262.26 8.29267 261.672 8.918L261.182 8.19C261.9 7.44333 262.801 7.07 263.884 7.07C264.658 7.07 265.288 7.25667 265.774 7.63C266.259 8.00333 266.502 8.57733 266.502 9.352V14ZM263.59 13.412C264.43 13.412 265.05 13.132 265.452 12.572V11.298C265.05 10.738 264.43 10.458 263.59 10.458C263.104 10.458 262.703 10.598 262.386 10.878C262.078 11.1487 261.924 11.5033 261.924 11.942C261.924 12.3713 262.078 12.726 262.386 13.006C262.703 13.2767 263.104 13.412 263.59 13.412ZM270.021 13.664C270.021 14.0747 269.913 14.4667 269.699 14.84C269.484 15.2227 269.209 15.5353 268.873 15.778L268.355 15.344C268.588 15.1947 268.789 14.994 268.957 14.742C269.134 14.4993 269.237 14.266 269.265 14.042C269.227 14.0607 269.162 14.07 269.069 14.07C268.873 14.07 268.709 14.0047 268.579 13.874C268.457 13.734 268.397 13.5613 268.397 13.356C268.397 13.1507 268.467 12.9733 268.607 12.824C268.756 12.6747 268.933 12.6 269.139 12.6C269.381 12.6 269.587 12.698 269.755 12.894C269.932 13.0807 270.021 13.3373 270.021 13.664ZM274.645 15.722V13.132C274.99 13.0667 275.261 12.8613 275.457 12.516C275.653 12.1613 275.811 11.5127 275.933 10.57L276.367 7.238H281.071V13.076H281.855V15.722H280.805V14H275.695V15.722H274.645ZM277.291 8.162L276.983 10.696C276.824 11.8813 276.497 12.6747 276.003 13.076H280.021V8.162H277.291ZM288.666 13.146C288.06 13.8273 287.252 14.168 286.244 14.168C285.236 14.168 284.424 13.8273 283.808 13.146C283.202 12.4647 282.898 11.62 282.898 10.612C282.898 9.604 283.202 8.764 283.808 8.092C284.424 7.41067 285.236 7.07 286.244 7.07C287.252 7.07 288.06 7.41067 288.666 8.092C289.282 8.764 289.59 9.604 289.59 10.612C289.59 11.62 289.282 12.4647 288.666 13.146ZM284.592 12.474C285.003 12.978 285.554 13.23 286.244 13.23C286.935 13.23 287.481 12.978 287.882 12.474C288.284 11.9607 288.484 11.34 288.484 10.612C288.484 9.884 288.284 9.268 287.882 8.764C287.481 8.26 286.935 8.008 286.244 8.008C285.554 8.008 285.003 8.26467 284.592 8.778C284.191 9.282 283.99 9.89333 283.99 10.612C283.99 11.34 284.191 11.9607 284.592 12.474ZM294.284 14.168C293.285 14.168 292.473 13.832 291.848 13.16C291.223 12.4787 290.91 11.6293 290.91 10.612C290.91 9.59467 291.223 8.75 291.848 8.078C292.473 7.406 293.285 7.07 294.284 7.07C295.329 7.07 296.155 7.462 296.762 8.246L296.062 8.89C295.633 8.302 295.059 8.008 294.34 8.008C293.631 8.008 293.061 8.25067 292.632 8.736C292.212 9.22133 292.002 9.84667 292.002 10.612C292.002 11.3773 292.212 12.0073 292.632 12.502C293.061 12.9873 293.631 13.23 294.34 13.23C295.049 13.23 295.623 12.936 296.062 12.348L296.762 12.992C296.155 13.776 295.329 14.168 294.284 14.168ZM300.516 14H299.466V8.162H297.506V7.238H302.49V8.162H300.516V14ZM309.144 14H308.094V13.23C307.525 13.8553 306.778 14.168 305.854 14.168C305.229 14.168 304.678 13.9673 304.202 13.566C303.726 13.1647 303.488 12.6187 303.488 11.928C303.488 11.2187 303.722 10.6727 304.188 10.29C304.664 9.898 305.22 9.702 305.854 9.702C306.816 9.702 307.562 10.01 308.094 10.626V9.408C308.094 8.96 307.936 8.61 307.618 8.358C307.301 8.106 306.89 7.98 306.386 7.98C305.593 7.98 304.902 8.29267 304.314 8.918L303.824 8.19C304.543 7.44333 305.444 7.07 306.526 7.07C307.301 7.07 307.931 7.25667 308.416 7.63C308.902 8.00333 309.144 8.57733 309.144 9.352V14ZM306.232 13.412C307.072 13.412 307.693 13.132 308.094 12.572V11.298C307.693 10.738 307.072 10.458 306.232 10.458C305.747 10.458 305.346 10.598 305.028 10.878C304.72 11.1487 304.566 11.5033 304.566 11.942C304.566 12.3713 304.72 12.726 305.028 13.006C305.346 13.2767 305.747 13.412 306.232 13.412ZM315.043 14H311.249V7.238H314.973C315.561 7.238 316.023 7.39667 316.359 7.714C316.705 8.03133 316.877 8.45133 316.877 8.974C316.877 9.35667 316.77 9.688 316.555 9.968C316.35 10.2387 316.093 10.4207 315.785 10.514C316.131 10.598 316.42 10.7987 316.653 11.116C316.896 11.4333 317.017 11.7833 317.017 12.166C317.017 12.7167 316.84 13.16 316.485 13.496C316.14 13.832 315.659 14 315.043 14ZM314.833 13.076C315.169 13.076 315.435 12.9827 315.631 12.796C315.827 12.6093 315.925 12.3573 315.925 12.04C315.925 11.7507 315.827 11.5033 315.631 11.298C315.435 11.0927 315.169 10.99 314.833 10.99H312.299V13.076H314.833ZM314.791 10.066C315.109 10.066 315.356 9.982 315.533 9.814C315.711 9.63667 315.799 9.408 315.799 9.128C315.799 8.82933 315.711 8.596 315.533 8.428C315.356 8.25067 315.109 8.162 314.791 8.162H312.299V10.066H314.791ZM324.951 14H323.607L321.171 10.962L320.051 12.068V14H319.001V7.238H320.051V10.836L323.607 7.238H324.937L321.941 10.304L324.951 14ZM331.471 14H330.421V13.23C329.851 13.8553 329.105 14.168 328.181 14.168C327.555 14.168 327.005 13.9673 326.529 13.566C326.053 13.1647 325.815 12.6187 325.815 11.928C325.815 11.2187 326.048 10.6727 326.515 10.29C326.991 9.898 327.546 9.702 328.181 9.702C329.142 9.702 329.889 10.01 330.421 10.626V9.408C330.421 8.96 330.262 8.61 329.945 8.358C329.627 8.106 329.217 7.98 328.713 7.98C327.919 7.98 327.229 8.29267 326.641 8.918L326.151 8.19C326.869 7.44333 327.77 7.07 328.853 7.07C329.627 7.07 330.257 7.25667 330.743 7.63C331.228 8.00333 331.471 8.57733 331.471 9.352V14ZM328.559 13.412C329.399 13.412 330.019 13.132 330.421 12.572V11.298C330.019 10.738 329.399 10.458 328.559 10.458C328.073 10.458 327.672 10.598 327.355 10.878C327.047 11.1487 326.893 11.5033 326.893 11.942C326.893 12.3713 327.047 12.726 327.355 13.006C327.672 13.2767 328.073 13.412 328.559 13.412ZM334.989 13.664C334.989 14.0747 334.882 14.4667 334.667 14.84C334.453 15.2227 334.177 15.5353 333.841 15.778L333.323 15.344C333.557 15.1947 333.757 14.994 333.925 14.742C334.103 14.4993 334.205 14.266 334.233 14.042C334.196 14.0607 334.131 14.07 334.037 14.07C333.841 14.07 333.678 14.0047 333.547 13.874C333.426 13.734 333.365 13.5613 333.365 13.356C333.365 13.1507 333.435 12.9733 333.575 12.824C333.725 12.6747 333.902 12.6 334.107 12.6C334.35 12.6 334.555 12.698 334.723 12.894C334.901 13.0807 334.989 13.3373 334.989 13.664ZM209.672 35.646L209.84 34.694C210.008 34.7687 210.199 34.806 210.414 34.806C210.657 34.806 210.857 34.7547 211.016 34.652C211.175 34.5493 211.31 34.3627 211.422 34.092L211.87 33.07L209.042 26.238H210.176L212.43 31.782L214.67 26.238H215.818L212.43 34.372C212.057 35.268 211.394 35.7253 210.442 35.744C210.162 35.744 209.905 35.7113 209.672 35.646ZM219.895 33.168C218.897 33.168 218.085 32.832 217.459 32.16C216.834 31.4787 216.521 30.6293 216.521 29.612C216.521 28.5947 216.834 27.75 217.459 27.078C218.085 26.406 218.897 26.07 219.895 26.07C220.941 26.07 221.767 26.462 222.373 27.246L221.673 27.89C221.244 27.302 220.67 27.008 219.951 27.008C219.242 27.008 218.673 27.2507 218.243 27.736C217.823 28.2213 217.613 28.8467 217.613 29.612C217.613 30.3773 217.823 31.0073 218.243 31.502C218.673 31.9873 219.242 32.23 219.951 32.23C220.661 32.23 221.235 31.936 221.673 31.348L222.373 31.992C221.767 32.776 220.941 33.168 219.895 33.168ZM226.127 33H225.077V27.162H223.117V26.238H228.101V27.162H226.127V33ZM234.756 33H233.706V32.23C233.136 32.8553 232.39 33.168 231.466 33.168C230.84 33.168 230.29 32.9673 229.814 32.566C229.338 32.1647 229.1 31.6187 229.1 30.928C229.1 30.2187 229.333 29.6727 229.8 29.29C230.276 28.898 230.831 28.702 231.466 28.702C232.427 28.702 233.174 29.01 233.706 29.626V28.408C233.706 27.96 233.547 27.61 233.23 27.358C232.912 27.106 232.502 26.98 231.998 26.98C231.204 26.98 230.514 27.2927 229.926 27.918L229.436 27.19C230.154 26.4433 231.055 26.07 232.138 26.07C232.912 26.07 233.542 26.2567 234.028 26.63C234.513 27.0033 234.756 27.5773 234.756 28.352V33ZM231.844 32.412C232.684 32.412 233.304 32.132 233.706 31.572V30.298C233.304 29.738 232.684 29.458 231.844 29.458C231.358 29.458 230.957 29.598 230.64 29.878C230.332 30.1487 230.178 30.5033 230.178 30.942C230.178 31.3713 230.332 31.726 230.64 32.006C230.957 32.2767 231.358 32.412 231.844 32.412ZM237.911 33H236.861V26.238H237.911V29.052H241.439V26.238H242.489V33H241.439V29.976H237.911V33ZM249.961 32.146C249.354 32.8273 248.547 33.168 247.539 33.168C246.531 33.168 245.719 32.8273 245.103 32.146C244.496 31.4647 244.193 30.62 244.193 29.612C244.193 28.604 244.496 27.764 245.103 27.092C245.719 26.4107 246.531 26.07 247.539 26.07C248.547 26.07 249.354 26.4107 249.961 27.092C250.577 27.764 250.885 28.604 250.885 29.612C250.885 30.62 250.577 31.4647 249.961 32.146ZM245.887 31.474C246.298 31.978 246.848 32.23 247.539 32.23C248.23 32.23 248.776 31.978 249.177 31.474C249.578 30.9607 249.779 30.34 249.779 29.612C249.779 28.884 249.578 28.268 249.177 27.764C248.776 27.26 248.23 27.008 247.539 27.008C246.848 27.008 246.298 27.2647 245.887 27.778C245.486 28.282 245.285 28.8933 245.285 29.612C245.285 30.34 245.486 30.9607 245.887 31.474ZM256.391 33H252.597V26.238H256.321C256.909 26.238 257.371 26.3967 257.707 26.714C258.052 27.0313 258.225 27.4513 258.225 27.974C258.225 28.3567 258.118 28.688 257.903 28.968C257.698 29.2387 257.441 29.4207 257.133 29.514C257.478 29.598 257.768 29.7987 258.001 30.116C258.244 30.4333 258.365 30.7833 258.365 31.166C258.365 31.7167 258.188 32.16 257.833 32.496C257.488 32.832 257.007 33 256.391 33ZM256.181 32.076C256.517 32.076 256.783 31.9827 256.979 31.796C257.175 31.6093 257.273 31.3573 257.273 31.04C257.273 30.7507 257.175 30.5033 256.979 30.298C256.783 30.0927 256.517 29.99 256.181 29.99H253.647V32.076H256.181ZM256.139 29.066C256.456 29.066 256.704 28.982 256.881 28.814C257.058 28.6367 257.147 28.408 257.147 28.128C257.147 27.8293 257.058 27.596 256.881 27.428C256.704 27.2507 256.456 27.162 256.139 27.162H253.647V29.066H256.139ZM266.299 33H264.955L262.519 29.962L261.399 31.068V33H260.349V26.238H261.399V29.836L264.955 26.238H266.285L263.289 29.304L266.299 33ZM272.818 33H271.768V32.23C271.199 32.8553 270.452 33.168 269.528 33.168C268.903 33.168 268.352 32.9673 267.876 32.566C267.4 32.1647 267.162 31.6187 267.162 30.928C267.162 30.2187 267.396 29.6727 267.862 29.29C268.338 28.898 268.894 28.702 269.528 28.702C270.49 28.702 271.236 29.01 271.768 29.626V28.408C271.768 27.96 271.61 27.61 271.292 27.358C270.975 27.106 270.564 26.98 270.06 26.98C269.267 26.98 268.576 27.2927 267.988 27.918L267.498 27.19C268.217 26.4433 269.118 26.07 270.2 26.07C270.975 26.07 271.605 26.2567 272.09 26.63C272.576 27.0033 272.818 27.5773 272.818 28.352V33ZM269.906 32.412C270.746 32.412 271.367 32.132 271.768 31.572V30.298C271.367 29.738 270.746 29.458 269.906 29.458C269.421 29.458 269.02 29.598 268.702 29.878C268.394 30.1487 268.24 30.5033 268.24 30.942C268.24 31.3713 268.394 31.726 268.702 32.006C269.02 32.2767 269.421 32.412 269.906 32.412ZM284.482 33H283.138L280.702 29.962L279.582 31.068V33H278.532V26.238H279.582V29.836L283.138 26.238H284.468L281.472 29.304L284.482 33ZM291.002 33H289.952V32.23C289.382 32.8553 288.636 33.168 287.712 33.168C287.086 33.168 286.536 32.9673 286.06 32.566C285.584 32.1647 285.346 31.6187 285.346 30.928C285.346 30.2187 285.579 29.6727 286.046 29.29C286.522 28.898 287.077 28.702 287.712 28.702C288.673 28.702 289.42 29.01 289.952 29.626V28.408C289.952 27.96 289.793 27.61 289.476 27.358C289.158 27.106 288.748 26.98 288.244 26.98C287.45 26.98 286.76 27.2927 286.172 27.918L285.682 27.19C286.4 26.4433 287.301 26.07 288.384 26.07C289.158 26.07 289.788 26.2567 290.274 26.63C290.759 27.0033 291.002 27.5773 291.002 28.352V33ZM288.09 32.412C288.93 32.412 289.55 32.132 289.952 31.572V30.298C289.55 29.738 288.93 29.458 288.09 29.458C287.604 29.458 287.203 29.598 286.886 29.878C286.578 30.1487 286.424 30.5033 286.424 30.942C286.424 31.3713 286.578 31.726 286.886 32.006C287.203 32.2767 287.604 32.412 288.09 32.412ZM296.439 33.168C295.487 33.168 294.726 32.7713 294.157 31.978V35.576H293.107V26.238H294.157V27.246C294.409 26.8913 294.735 26.6067 295.137 26.392C295.538 26.1773 295.972 26.07 296.439 26.07C297.335 26.07 298.058 26.392 298.609 27.036C299.169 27.6707 299.449 28.5293 299.449 29.612C299.449 30.6947 299.169 31.558 298.609 32.202C298.058 32.846 297.335 33.168 296.439 33.168ZM296.173 32.23C296.835 32.23 297.363 31.9873 297.755 31.502C298.147 31.0073 298.343 30.3773 298.343 29.612C298.343 28.8467 298.147 28.2213 297.755 27.736C297.363 27.2507 296.835 27.008 296.173 27.008C295.771 27.008 295.379 27.1153 294.997 27.33C294.623 27.5353 294.343 27.7873 294.157 28.086V31.138C294.343 31.446 294.623 31.7073 294.997 31.922C295.379 32.1273 295.771 32.23 296.173 32.23ZM307.068 33H305.724L303.288 29.962L302.168 31.068V33H301.118V26.238H302.168V29.836L305.724 26.238H307.054L304.058 29.304L307.068 33ZM313.588 33H312.538V32.23C311.968 32.8553 311.222 33.168 310.298 33.168C309.672 33.168 309.122 32.9673 308.646 32.566C308.17 32.1647 307.932 31.6187 307.932 30.928C307.932 30.2187 308.165 29.6727 308.632 29.29C309.108 28.898 309.663 28.702 310.298 28.702C311.259 28.702 312.006 29.01 312.538 29.626V28.408C312.538 27.96 312.379 27.61 312.062 27.358C311.744 27.106 311.334 26.98 310.83 26.98C310.036 26.98 309.346 27.2927 308.758 27.918L308.268 27.19C308.986 26.4433 309.887 26.07 310.97 26.07C311.744 26.07 312.374 26.2567 312.86 26.63C313.345 27.0033 313.588 27.5773 313.588 28.352V33ZM310.676 32.412C311.516 32.412 312.136 32.132 312.538 31.572V30.298C312.136 29.738 311.516 29.458 310.676 29.458C310.19 29.458 309.789 29.598 309.472 29.878C309.164 30.1487 309.01 30.5033 309.01 30.942C309.01 31.3713 309.164 31.726 309.472 32.006C309.789 32.2767 310.19 32.412 310.676 32.412ZM318.675 33.168C317.676 33.168 316.864 32.832 316.239 32.16C315.613 31.4787 315.301 30.6293 315.301 29.612C315.301 28.5947 315.613 27.75 316.239 27.078C316.864 26.406 317.676 26.07 318.675 26.07C319.72 26.07 320.546 26.462 321.153 27.246L320.453 27.89C320.023 27.302 319.449 27.008 318.731 27.008C318.021 27.008 317.452 27.2507 317.023 27.736C316.603 28.2213 316.393 28.8467 316.393 29.612C316.393 30.3773 316.603 31.0073 317.023 31.502C317.452 31.9873 318.021 32.23 318.731 32.23C319.44 32.23 320.014 31.936 320.453 31.348L321.153 31.992C320.546 32.776 319.72 33.168 318.675 33.168ZM323.674 33H322.624V26.238H323.674V29.052H327.202V26.238H328.252V33H327.202V29.976H323.674V33ZM330.349 26.238H331.399V28.856H333.933C334.605 28.856 335.127 29.0567 335.501 29.458C335.874 29.85 336.061 30.34 336.061 30.928C336.061 31.516 335.869 32.0107 335.487 32.412C335.113 32.804 334.595 33 333.933 33H330.349V26.238ZM333.821 29.78H331.399V32.076H333.821C334.194 32.076 334.479 31.9733 334.675 31.768C334.88 31.5533 334.983 31.2733 334.983 30.928C334.983 30.5827 334.88 30.3073 334.675 30.102C334.479 29.8873 334.194 29.78 333.821 29.78ZM338.217 33H337.167V26.238H338.217V33ZM345.916 33H344.698L342.668 30.228L340.638 33H339.434L342.024 29.528L339.574 26.238H340.792L342.668 28.814L344.544 26.238H345.762L343.312 29.528L345.916 33ZM211.352 50.474C211.763 50.978 212.313 51.23 213.004 51.23C213.695 51.23 214.241 50.978 214.642 50.474C215.043 49.9607 215.244 49.3353 215.244 48.598C215.244 47.8793 215.043 47.268 214.642 46.764C214.241 46.26 213.695 46.008 213.004 46.008C212.313 46.008 211.763 46.26 211.352 46.764C210.951 47.268 210.75 47.8793 210.75 48.598C210.75 49.3353 210.951 49.9607 211.352 50.474ZM213.004 52.168C211.987 52.168 211.175 51.8087 210.568 51.09C209.961 50.3713 209.658 49.4427 209.658 48.304C209.658 46.6987 209.947 45.5133 210.526 44.748C211.105 43.9733 211.996 43.5067 213.2 43.348C213.919 43.236 214.413 43.1287 214.684 43.026C214.964 42.9233 215.104 42.802 215.104 42.662H216.126C216.126 42.9233 216.047 43.152 215.888 43.348C215.729 43.5347 215.501 43.684 215.202 43.796C214.913 43.908 214.637 43.9967 214.376 44.062C214.124 44.118 213.821 44.1693 213.466 44.216C212.533 44.3467 211.856 44.6033 211.436 44.986C211.025 45.3687 210.755 45.8773 210.624 46.512C211.24 45.5507 212.089 45.07 213.172 45.07C214.105 45.07 214.866 45.4107 215.454 46.092C216.042 46.7733 216.336 47.6087 216.336 48.598C216.336 49.606 216.033 50.4553 215.426 51.146C214.819 51.8273 214.012 52.168 213.004 52.168ZM223.408 52H222.358V51.23C221.789 51.8553 221.042 52.168 220.118 52.168C219.493 52.168 218.942 51.9673 218.466 51.566C217.99 51.1647 217.752 50.6187 217.752 49.928C217.752 49.2187 217.985 48.6727 218.452 48.29C218.928 47.898 219.483 47.702 220.118 47.702C221.079 47.702 221.826 48.01 222.358 48.626V47.408C222.358 46.96 222.199 46.61 221.882 46.358C221.565 46.106 221.154 45.98 220.65 45.98C219.857 45.98 219.166 46.2927 218.578 46.918L218.088 46.19C218.807 45.4433 219.707 45.07 220.79 45.07C221.565 45.07 222.195 45.2567 222.68 45.63C223.165 46.0033 223.408 46.5773 223.408 47.352V52ZM220.496 51.412C221.336 51.412 221.957 51.132 222.358 50.572V49.298C221.957 48.738 221.336 48.458 220.496 48.458C220.011 48.458 219.609 48.598 219.292 48.878C218.984 49.1487 218.83 49.5033 218.83 49.942C218.83 50.3713 218.984 50.726 219.292 51.006C219.609 51.2767 220.011 51.412 220.496 51.412ZM228.495 52.168C227.496 52.168 226.684 51.832 226.059 51.16C225.434 50.4787 225.121 49.6293 225.121 48.612C225.121 47.5947 225.434 46.75 226.059 46.078C226.684 45.406 227.496 45.07 228.495 45.07C229.54 45.07 230.366 45.462 230.973 46.246L230.273 46.89C229.844 46.302 229.27 46.008 228.551 46.008C227.842 46.008 227.272 46.2507 226.843 46.736C226.423 47.2213 226.213 47.8467 226.213 48.612C226.213 49.3773 226.423 50.0073 226.843 50.502C227.272 50.9873 227.842 51.23 228.551 51.23C229.26 51.23 229.834 50.936 230.273 50.348L230.973 50.992C230.366 51.776 229.54 52.168 228.495 52.168ZM235.427 52.168C234.428 52.168 233.616 51.832 232.991 51.16C232.365 50.4787 232.053 49.6293 232.053 48.612C232.053 47.5947 232.365 46.75 232.991 46.078C233.616 45.406 234.428 45.07 235.427 45.07C236.472 45.07 237.298 45.462 237.905 46.246L237.205 46.89C236.775 46.302 236.201 46.008 235.483 46.008C234.773 46.008 234.204 46.2507 233.775 46.736C233.355 47.2213 233.145 47.8467 233.145 48.612C233.145 49.3773 233.355 50.0073 233.775 50.502C234.204 50.9873 234.773 51.23 235.483 51.23C236.192 51.23 236.766 50.936 237.205 50.348L237.905 50.992C237.298 51.776 236.472 52.168 235.427 52.168ZM242.428 52.168C241.42 52.168 240.594 51.8413 239.95 51.188C239.306 50.5253 238.984 49.6667 238.984 48.612C238.984 47.6227 239.302 46.7873 239.936 46.106C240.571 45.4153 241.364 45.07 242.316 45.07C243.315 45.07 244.104 45.4153 244.682 46.106C245.27 46.7873 245.564 47.6507 245.564 48.696V48.962H240.09C240.137 49.6247 240.38 50.18 240.818 50.628C241.257 51.076 241.826 51.3 242.526 51.3C243.366 51.3 244.062 51.0153 244.612 50.446L245.116 51.132C244.426 51.8227 243.53 52.168 242.428 52.168ZM244.528 48.192C244.519 47.6133 244.323 47.0953 243.94 46.638C243.558 46.1713 243.012 45.938 242.302 45.938C241.63 45.938 241.098 46.1667 240.706 46.624C240.324 47.0813 240.118 47.604 240.09 48.192H244.528ZM248.273 52H247.265V45.238H248.315V50.404L251.857 45.238H252.893V52H251.843V46.736L248.273 52ZM252.529 43.236C251.922 44.0573 251.106 44.468 250.079 44.468C249.062 44.468 248.24 44.0573 247.615 43.236L248.133 42.788C248.618 43.46 249.267 43.796 250.079 43.796C250.9 43.796 251.544 43.46 252.011 42.788L252.529 43.236ZM256.039 52H254.989V45.238H256.039V48.052H259.567V45.238H260.617V52H259.567V48.976H256.039V52ZM268.09 51.146C267.483 51.8273 266.676 52.168 265.668 52.168C264.66 52.168 263.848 51.8273 263.232 51.146C262.625 50.4647 262.322 49.62 262.322 48.612C262.322 47.604 262.625 46.764 263.232 46.092C263.848 45.4107 264.66 45.07 265.668 45.07C266.676 45.07 267.483 45.4107 268.09 46.092C268.706 46.764 269.014 47.604 269.014 48.612C269.014 49.62 268.706 50.4647 268.09 51.146ZM264.016 50.474C264.427 50.978 264.977 51.23 265.668 51.23C266.359 51.23 266.905 50.978 267.306 50.474C267.707 49.9607 267.908 49.34 267.908 48.612C267.908 47.884 267.707 47.268 267.306 46.764C266.905 46.26 266.359 46.008 265.668 46.008C264.977 46.008 264.427 46.2647 264.016 46.778C263.615 47.282 263.414 47.8933 263.414 48.612C263.414 49.34 263.615 49.9607 264.016 50.474ZM274.52 52H270.726V45.238H274.45C275.038 45.238 275.5 45.3967 275.836 45.714C276.181 46.0313 276.354 46.4513 276.354 46.974C276.354 47.3567 276.246 47.688 276.032 47.968C275.826 48.2387 275.57 48.4207 275.262 48.514C275.607 48.598 275.896 48.7987 276.13 49.116C276.372 49.4333 276.494 49.7833 276.494 50.166C276.494 50.7167 276.316 51.16 275.962 51.496C275.616 51.832 275.136 52 274.52 52ZM274.31 51.076C274.646 51.076 274.912 50.9827 275.108 50.796C275.304 50.6093 275.402 50.3573 275.402 50.04C275.402 49.7507 275.304 49.5033 275.108 49.298C274.912 49.0927 274.646 48.99 274.31 48.99H271.776V51.076H274.31ZM274.268 48.066C274.585 48.066 274.832 47.982 275.01 47.814C275.187 47.6367 275.276 47.408 275.276 47.128C275.276 46.8293 275.187 46.596 275.01 46.428C274.832 46.2507 274.585 46.162 274.268 46.162H271.776V48.066H274.268ZM283.291 52H282.129V42.662H283.291V52ZM293.207 52H292.087L286.641 44.552V52H285.479V42.662H286.669L292.045 49.956V42.662H293.207V52ZM298.863 52H297.701V43.698H294.747V42.662H301.831V43.698H298.863V52ZM309.493 52H303.375V42.662H309.493V43.698H304.537V46.708H309.395V47.744H304.537V50.964H309.493V52ZM319.2 52H317.8L314.818 48.024L311.836 52H310.422L314.062 47.212L310.632 42.662H312.046L314.818 46.4L317.576 42.662H318.99L315.574 47.198L319.2 52Z" fill="#476273"/>
</svg>
