<svg width="143" height="22" viewBox="0 0 143 22" fill="none" xmlns="http://www.w3.org/2000/svg">
<path d="M2.16 7.244C1.848 7.244 1.572 7.13 1.332 6.902C1.104 6.674 0.99 6.398 0.99 6.074C0.99 5.75 1.104 5.474 1.332 5.246C1.572 5.018 1.848 4.904 2.16 4.904C2.484 4.904 2.76 5.018 2.988 5.246C3.216 5.474 3.33 5.75 3.33 6.074C3.33 6.398 3.216 6.674 2.988 6.902C2.76 7.13 2.484 7.244 2.16 7.244ZM3.114 17H1.224V8.306H3.114V17ZM13.1588 17H11.2688V11.564C11.2688 10.364 10.6868 9.764 9.5228 9.764C9.0668 9.764 8.6408 9.878 8.2448 10.106C7.8488 10.334 7.5308 10.61 7.2908 10.934V17H5.4008V8.306H7.2908V9.494C7.6148 9.11 8.0468 8.78 8.5868 8.504C9.1268 8.228 9.7148 8.09 10.3508 8.09C11.2748 8.09 11.9708 8.33 12.4388 8.81C12.9188 9.29 13.1588 9.98 13.1588 10.88V17ZM18.0587 17.216C17.3267 17.216 16.7687 17.024 16.3847 16.64C16.0127 16.256 15.8267 15.704 15.8267 14.984V9.962H14.3867V8.306H15.8267V5.93H17.7167V8.306H19.4807V9.962H17.7167V14.516C17.7167 14.828 17.7887 15.08 17.9327 15.272C18.0767 15.452 18.2807 15.542 18.5447 15.542C18.9287 15.542 19.2107 15.44 19.3907 15.236L19.8407 16.658C19.4447 17.03 18.8507 17.216 18.0587 17.216ZM25.0457 17.216C23.7257 17.216 22.6337 16.796 21.7697 15.956C20.9177 15.104 20.4917 14 20.4917 12.644C20.4917 11.372 20.9057 10.298 21.7337 9.422C22.5737 8.534 23.6297 8.09 24.9017 8.09C26.1857 8.09 27.2177 8.534 27.9977 9.422C28.7897 10.31 29.1857 11.444 29.1857 12.824V13.274H22.4717C22.5437 13.958 22.8257 14.528 23.3177 14.984C23.8097 15.44 24.4517 15.668 25.2437 15.668C25.6877 15.668 26.1317 15.584 26.5757 15.416C27.0317 15.248 27.4097 15.014 27.7097 14.714L28.5737 15.956C27.6977 16.796 26.5217 17.216 25.0457 17.216ZM27.3497 11.942C27.3257 11.342 27.1037 10.808 26.6837 10.34C26.2757 9.872 25.6817 9.638 24.9017 9.638C24.1577 9.638 23.5757 9.872 23.1557 10.34C22.7357 10.796 22.5017 11.33 22.4537 11.942H27.3497ZM38.5003 17H36.3763L34.1263 13.796L31.8583 17H29.7523L32.9383 12.536L29.9323 8.306H32.0563L34.1263 11.258L36.1783 8.306H38.3023L35.2963 12.536L38.5003 17ZM48.633 19.016H38.373V17.72H48.633V19.016ZM58.6281 19.016H48.3681V17.72H58.6281V19.016ZM66.7513 17H64.6453V14.282H58.9213V12.59L63.8533 4.994H66.7513V12.428H68.3533V14.282H66.7513V17ZM64.6453 12.428V6.884L60.9913 12.428H64.6453ZM74.3817 17.216C73.5297 17.216 72.7797 17.054 72.1317 16.73C71.4837 16.394 70.9677 15.938 70.5837 15.362C70.1997 14.786 69.9117 14.138 69.7197 13.418C69.5277 12.686 69.4317 11.888 69.4317 11.024C69.4317 9.212 69.8937 7.724 70.8177 6.56C71.7417 5.396 73.0437 4.814 74.7237 4.814C76.1157 4.814 77.2677 5.258 78.1797 6.146L77.1897 7.748C76.5177 7.04 75.6957 6.686 74.7237 6.686C73.7637 6.686 72.9957 7.07 72.4197 7.838C71.8437 8.606 71.5557 9.542 71.5557 10.646C71.5557 10.802 71.5617 10.916 71.5737 10.988C71.8737 10.544 72.3177 10.154 72.9057 9.818C73.4937 9.482 74.1237 9.314 74.7957 9.314C75.9357 9.314 76.8897 9.656 77.6577 10.34C78.4257 11.012 78.8097 11.96 78.8097 13.184C78.8097 14.324 78.4017 15.284 77.5857 16.064C76.7697 16.832 75.7017 17.216 74.3817 17.216ZM74.2737 15.344C75.0177 15.344 75.6057 15.134 76.0377 14.714C76.4697 14.282 76.6857 13.796 76.6857 13.256C76.6857 12.56 76.4517 12.032 75.9837 11.672C75.5157 11.3 74.9277 11.114 74.2197 11.114C73.7157 11.114 73.2297 11.246 72.7617 11.51C72.2937 11.762 71.9037 12.104 71.5917 12.536C71.6637 13.304 71.9157 13.964 72.3477 14.516C72.7797 15.068 73.4217 15.344 74.2737 15.344ZM89.5452 19.016H79.2852V17.72H89.5452V19.016ZM99.5404 19.016H89.2804V17.72H99.5404V19.016ZM108.69 17H106.314L103.65 13.418L102.444 14.66V17H100.554V4.994H102.444V12.5L106.278 8.306H108.618L105 12.248L108.69 17ZM117.621 17H115.731V15.848C114.915 16.76 113.889 17.216 112.653 17.216C110.793 17.216 109.863 16.298 109.863 14.462V8.306H111.753V13.778C111.753 14.414 111.903 14.87 112.203 15.146C112.503 15.41 112.935 15.542 113.499 15.542C113.955 15.542 114.381 15.434 114.777 15.218C115.173 15.002 115.491 14.732 115.731 14.408V8.306H117.621V17ZM121.801 17H119.911V8.306H121.801V9.584C122.137 9.152 122.557 8.798 123.061 8.522C123.565 8.246 124.087 8.108 124.627 8.108V9.98C124.459 9.944 124.261 9.926 124.033 9.926C123.637 9.926 123.211 10.046 122.755 10.286C122.311 10.514 121.993 10.778 121.801 11.078V17ZM128.956 17.216C127.396 17.216 126.154 16.766 125.23 15.866L126.094 14.498C126.418 14.834 126.856 15.122 127.408 15.362C127.96 15.602 128.506 15.722 129.046 15.722C129.598 15.722 130.018 15.614 130.306 15.398C130.606 15.182 130.756 14.9 130.756 14.552C130.756 14.24 130.576 14 130.216 13.832C129.856 13.652 129.418 13.514 128.902 13.418C128.386 13.31 127.87 13.184 127.354 13.04C126.838 12.884 126.4 12.614 126.04 12.23C125.68 11.846 125.5 11.348 125.5 10.736C125.5 9.992 125.806 9.368 126.418 8.864C127.03 8.348 127.864 8.09 128.92 8.09C130.252 8.09 131.38 8.498 132.304 9.314L131.512 10.646C131.236 10.334 130.87 10.082 130.414 9.89C129.958 9.698 129.466 9.602 128.938 9.602C128.446 9.602 128.05 9.704 127.75 9.908C127.462 10.1 127.318 10.352 127.318 10.664C127.318 10.904 127.444 11.102 127.696 11.258C127.96 11.402 128.284 11.51 128.668 11.582C129.064 11.654 129.49 11.756 129.946 11.888C130.402 12.008 130.822 12.152 131.206 12.32C131.602 12.488 131.926 12.764 132.178 13.148C132.442 13.52 132.574 13.976 132.574 14.516C132.574 15.308 132.256 15.956 131.62 16.46C130.984 16.964 130.096 17.216 128.956 17.216ZM142.447 17H140.071L137.407 13.418L136.201 14.66V17H134.311V4.994H136.201V12.5L140.035 8.306H142.375L138.757 12.248L142.447 17Z" fill="black"/>
</svg>
