<svg width="195" height="54" viewBox="0 0 195 54" fill="none" xmlns="http://www.w3.org/2000/svg">
<rect x="1" y="1.11523" width="16.9344" height="49.7397" rx="3" fill="white"/>
<rect x="0.5" y="0.615234" width="17.9344" height="50.7397" rx="3.5" stroke="black" stroke-opacity="0.5"/>
<rect x="2.53955" y="2.66919" width="13.8554" height="46.631" fill="#2C2C2C"/>
<path d="M12.3025 7.85068C12.3025 9.29599 11.1433 10.4594 9.72351 10.4594C8.3037 10.4594 7.14453 9.29599 7.14453 7.85068C7.14453 6.40537 8.3037 5.24194 9.72351 5.24194C11.1433 5.24194 12.3025 6.40537 12.3025 7.85068Z" fill="#1C1C1C" stroke="#F3F3F3"/>
<path d="M12.3025 14.5865C12.3025 16.0318 11.1433 17.1952 9.72351 17.1952C8.3037 17.1952 7.14453 16.0318 7.14453 14.5865C7.14453 13.1412 8.3037 11.9778 9.72351 11.9778C11.1433 11.9778 12.3025 13.1412 12.3025 14.5865Z" fill="#1C1C1C" stroke="#F3F3F3"/>
<path d="M12.3025 21.8402C12.3025 23.2855 11.1433 24.4489 9.72351 24.4489C8.3037 24.4489 7.14453 23.2855 7.14453 21.8402C7.14453 20.3949 8.3037 19.2314 9.72351 19.2314C11.1433 19.2314 12.3025 20.3949 12.3025 21.8402Z" fill="#1C1C1C" stroke="#F3F3F3"/>
<path d="M12.3025 29.0936C12.3025 30.5389 11.1433 31.7023 9.72351 31.7023C8.3037 31.7023 7.14453 30.5389 7.14453 29.0936C7.14453 27.6483 8.3037 26.4849 9.72351 26.4849C11.1433 26.4849 12.3025 27.6483 12.3025 29.0936Z" fill="#1C1C1C" stroke="#F3F3F3"/>
<path d="M12.3025 36.3475C12.3025 37.7928 11.1433 38.9562 9.72351 38.9562C8.3037 38.9562 7.14453 37.7928 7.14453 36.3475C7.14453 34.9022 8.3037 33.7388 9.72351 33.7388C11.1433 33.7388 12.3025 34.9022 12.3025 36.3475Z" fill="#1C1C1C" stroke="#F3F3F3"/>
<path d="M12.3025 43.6012C12.3025 45.0465 11.1433 46.2099 9.72351 46.2099C8.3037 46.2099 7.14453 45.0465 7.14453 43.6012C7.14453 42.1559 8.3037 40.9924 9.72351 40.9924C11.1433 40.9924 12.3025 42.1559 12.3025 43.6012Z" fill="#1C1C1C" stroke="#F3F3F3"/>
<path d="M20.5 1.63354H36.9212L65.6584 51.3733H49.2372L20.5 1.63354Z" fill="white"/>
<path d="M49.2372 5.18014C49.2372 3.52328 50.5803 2.18014 52.2372 2.18014H62.6584C64.3152 2.18014 65.6584 3.52328 65.6584 5.18014V51.3733H49.2372V5.18014Z" fill="white"/>
<path d="M20.5 1.63354H36.9212L65.6584 51.3733H49.2372L20.5 1.63354Z" fill="white"/>
<path d="M20.5 1.63354H36.9212V47.8267C36.9212 49.4835 35.5781 50.8267 33.9212 50.8267H23.5C21.8431 50.8267 20.5 49.4835 20.5 47.8267V1.63354Z" fill="white"/>
<path d="M19.6337 1.13354L20 1.7676V47.8267C20 49.7597 21.567 51.3267 23.5 51.3267H33.9212C35.8542 51.3267 37.4212 49.7597 37.4212 47.8267V31.9212L48.7372 51.5073V51.8733H48.9486H49.2372H65.6584H66.1584H66.5247L66.1584 51.2392V5.18014C66.1584 3.24714 64.5914 1.68014 62.6584 1.68014H52.2372C50.3042 1.68014 48.7372 3.24714 48.7372 5.18014V21.0857L37.4212 1.49949V1.13354H37.2098H36.9212H20.5H20H19.6337Z" stroke="black" stroke-opacity="0.5"/>
<path d="M21.5269 2.66943H35.3823L64.376 49.8185H50.5206L21.5269 2.66943Z" fill="#2C2C2C"/>
<path d="M50.5206 3.18756H64.376V49.8185H50.5206V3.18756Z" fill="#2C2C2C"/>
<path d="M21.5269 2.66943H35.3823L64.376 49.8185H50.5206L21.5269 2.66943Z" fill="#2C2C2C"/>
<path d="M21.5269 2.66943H35.3823V49.3004H21.5269V2.66943Z" fill="#2C2C2C"/>
<path d="M31.2908 8.88705C31.2908 10.3324 30.1316 11.4958 28.7118 11.4958C27.292 11.4958 26.1328 10.3324 26.1328 8.88705C26.1328 7.44174 27.292 6.27832 28.7118 6.27832C30.1316 6.27832 31.2908 7.44174 31.2908 8.88705Z" fill="#1C1C1C" stroke="#F3F3F3"/>
<path d="M60.0271 8.88705C60.0271 10.3324 58.8679 11.4958 57.4481 11.4958C56.0283 11.4958 54.8691 10.3324 54.8691 8.88705C54.8691 7.44174 56.0283 6.27832 57.4481 6.27832C58.8679 6.27832 60.0271 7.44174 60.0271 8.88705Z" fill="#1C1C1C" stroke="#F3F3F3"/>
<path d="M36.7053 12.7806C37.4882 13.9864 37.1534 15.6017 35.963 16.3895C34.7726 17.1774 33.1721 16.8432 32.3892 15.6374C31.6063 14.4316 31.9411 12.8164 33.1315 12.0285C34.3218 11.2406 35.9224 11.5749 36.7053 12.7806Z" fill="#1C1C1C" stroke="#F3F3F3"/>
<path d="M31.2898 15.6229C31.2898 17.0682 30.1306 18.2316 28.7108 18.2316C27.291 18.2316 26.1318 17.0682 26.1318 15.6229C26.1318 14.1776 27.291 13.0142 28.7108 13.0142C30.1306 13.0142 31.2898 14.1776 31.2898 15.6229Z" fill="#1C1C1C" stroke="#F3F3F3"/>
<path d="M60.0271 15.6229C60.0271 17.0682 58.8679 18.2316 57.4481 18.2316C56.0283 18.2316 54.8691 17.0682 54.8691 15.6229C54.8691 14.1776 56.0283 13.0142 57.4481 13.0142C58.8679 13.0142 60.0271 14.1776 60.0271 15.6229Z" fill="#1C1C1C" stroke="#F3F3F3"/>
<path d="M40.363 18.9318C41.1459 20.1375 40.8111 21.7528 39.6207 22.5407C38.4303 23.3285 36.8298 22.9943 36.0469 21.7885C35.264 20.5827 35.5988 18.9675 36.7892 18.1796C37.9795 17.3917 39.5801 17.726 40.363 18.9318Z" fill="#1C1C1C" stroke="#F3F3F3"/>
<path d="M31.2898 22.8766C31.2898 24.3219 30.1306 25.4853 28.7108 25.4853C27.291 25.4853 26.1318 24.3219 26.1318 22.8766C26.1318 21.4312 27.291 20.2678 28.7108 20.2678C30.1306 20.2678 31.2898 21.4312 31.2898 22.8766Z" fill="#1C1C1C" stroke="#F3F3F3"/>
<path d="M60.0271 22.8766C60.0271 24.3219 58.8679 25.4853 57.4481 25.4853C56.0283 25.4853 54.8691 24.3219 54.8691 22.8766C54.8691 21.4312 56.0283 20.2678 57.4481 20.2678C58.8679 20.2678 60.0271 21.4312 60.0271 22.8766Z" fill="#1C1C1C" stroke="#F3F3F3"/>
<path d="M44.8147 25.5162C45.5976 26.722 45.2627 28.3373 44.0724 29.1251C42.882 29.913 41.2814 29.5788 40.4985 28.373C39.7157 27.1672 40.0505 25.552 41.2408 24.7641C42.4312 23.9762 44.0318 24.3104 44.8147 25.5162Z" fill="#1C1C1C" stroke="#F3F3F3"/>
<path d="M31.2898 30.1305C31.2898 31.5758 30.1306 32.7392 28.7108 32.7392C27.291 32.7392 26.1318 31.5758 26.1318 30.1305C26.1318 28.6852 27.291 27.5217 28.7108 27.5217C30.1306 27.5217 31.2898 28.6852 31.2898 30.1305Z" fill="#1C1C1C" stroke="#F3F3F3"/>
<path d="M60.0271 30.1305C60.0271 31.5758 58.8679 32.7392 57.4481 32.7392C56.0283 32.7392 54.8691 31.5758 54.8691 30.1305C54.8691 28.6852 56.0283 27.5217 57.4481 27.5217C58.8679 27.5217 60.0271 28.6852 60.0271 30.1305Z" fill="#1C1C1C" stroke="#F3F3F3"/>
<path d="M49.2663 32.1009C50.0492 33.3067 49.7144 34.922 48.524 35.7099C47.3336 36.4977 45.7331 36.1635 44.9502 34.9577C44.1673 33.7519 44.5021 32.1367 45.6925 31.3488C46.8828 30.5609 48.4834 30.8952 49.2663 32.1009Z" fill="#1C1C1C" stroke="#F3F3F3"/>
<path d="M31.2898 37.3839C31.2898 38.8292 30.1306 39.9926 28.7108 39.9926C27.291 39.9926 26.1318 38.8292 26.1318 37.3839C26.1318 35.9386 27.291 34.7751 28.7108 34.7751C30.1306 34.7751 31.2898 35.9386 31.2898 37.3839Z" fill="#1C1C1C" stroke="#F3F3F3"/>
<path d="M60.0271 37.3839C60.0271 38.8292 58.8679 39.9926 57.4481 39.9926C56.0283 39.9926 54.8691 38.8292 54.8691 37.3839C54.8691 35.9386 56.0283 34.7751 57.4481 34.7751C58.8679 34.7751 60.0271 35.9386 60.0271 37.3839Z" fill="#1C1C1C" stroke="#F3F3F3"/>
<path d="M53.719 38.6852C54.5019 39.891 54.167 41.5062 52.9767 42.2941C51.7863 43.0819 50.1857 42.7477 49.4028 41.5419C48.62 40.3361 48.9548 38.7209 50.1451 37.933C51.3355 37.1452 52.9361 37.4794 53.719 38.6852Z" fill="#1C1C1C" stroke="#F3F3F3"/>
<path d="M31.2898 44.6378C31.2898 46.0831 30.1306 47.2465 28.7108 47.2465C27.291 47.2465 26.1318 46.0831 26.1318 44.6378C26.1318 43.1925 27.291 42.0291 28.7108 42.0291C30.1306 42.0291 31.2898 43.1925 31.2898 44.6378Z" fill="#1C1C1C" stroke="#F3F3F3"/>
<path d="M60.0271 44.6378C60.0271 46.0831 58.8679 47.2465 57.4481 47.2465C56.0283 47.2465 54.8691 46.0831 54.8691 44.6378C54.8691 43.1925 56.0283 42.0291 57.4481 42.0291C58.8679 42.0291 60.0271 43.1925 60.0271 44.6378Z" fill="#1C1C1C" stroke="#F3F3F3"/>
<path d="M80.5059 5.66983C80.5059 4.01297 81.8491 2.66983 83.5059 2.66983H94.4403C96.0972 2.66983 97.4403 4.01298 97.4403 5.66983V49.4095C97.4403 51.0664 96.0972 52.4095 94.4403 52.4095H83.5059C81.8491 52.4095 80.5059 51.0664 80.5059 49.4095V5.66983Z" fill="white"/>
<path d="M80.5059 3.70608C80.5059 2.84762 81.1952 2.15171 82.0454 2.15171H95.9008C96.7511 2.15171 97.4403 2.84762 97.4403 3.70608V50.337C97.4403 51.1955 96.7511 51.8914 95.9008 51.8914H82.0454C81.1952 51.8914 80.5059 51.1955 80.5059 50.337V3.70608Z" fill="white"/>
<path d="M107.28 1.63355C108.131 1.63355 108.82 2.32946 108.82 3.18791L108.82 15.6228C108.82 16.4813 108.131 17.1772 107.28 17.1772L69.7294 17.1772C68.8792 17.1772 68.1899 16.4813 68.1899 15.6228V3.18791C68.1899 2.32946 68.8792 1.63354 69.7294 1.63354L107.28 1.63355Z" fill="white"/>
<path d="M107.973 1.63355C108.675 1.63355 109.243 2.26619 109.243 3.04661V15.7641C109.243 16.5446 108.675 17.1772 107.973 17.1772L69.8829 17.1772C69.1816 17.1772 68.6132 16.5446 68.6132 15.7641L68.6132 3.0466C68.6132 2.26619 69.1816 1.63354 69.8829 1.63354L107.973 1.63355Z" fill="white"/>
<path d="M97.9403 49.4095V17.6772H107.28C107.28 17.6772 107.281 17.6772 107.281 17.6772H107.973C109 17.6772 109.743 16.769 109.743 15.7641V3.04661C109.743 2.04171 109 1.13355 107.973 1.13355H107.28L69.8829 1.13354C69.8828 1.13354 69.8827 1.13354 69.8827 1.13354H69.7294C68.5985 1.13354 67.6899 2.05786 67.6899 3.18791V15.6228C67.6899 16.7529 68.5985 17.6772 69.7294 17.6772H69.8829H80.0059V49.4095V50.337C80.0059 51.3114 80.6814 52.1328 81.5925 52.3407C82.1424 52.7004 82.7997 52.9095 83.5059 52.9095H94.4403C95.1465 52.9095 95.8038 52.7004 96.3538 52.3407C97.2648 52.1328 97.9403 51.3114 97.9403 50.337V49.4095Z" stroke="black" stroke-opacity="0.5"/>
<path d="M82.0449 4.22412H95.9003V50.8551H82.0449V4.22412Z" fill="#2C2C2C"/>
<path d="M82.0449 4.22412H95.9003V50.8551H82.0449V4.22412Z" fill="#2C2C2C"/>
<path d="M107.704 3.70605L107.704 15.6229L69.2163 15.6229L69.2163 3.70605L107.704 3.70605Z" fill="#2C2C2C"/>
<path d="M107.704 3.70605L107.704 15.6229L69.2163 15.6229L69.2163 3.70605L107.704 3.70605Z" fill="#2C2C2C"/>
<path d="M91.2952 9.40536C91.2952 10.8507 90.136 12.0141 88.7162 12.0141C87.2964 12.0141 86.1372 10.8507 86.1372 9.40536C86.1372 7.96005 87.2964 6.79663 88.7162 6.79663C90.136 6.79663 91.2952 7.96005 91.2952 9.40536Z" fill="#1C1C1C" stroke="#F3F3F3"/>
<path d="M97.9665 9.40536C97.9665 10.8507 96.8074 12.0141 95.3876 12.0141C93.9678 12.0141 92.8086 10.8507 92.8086 9.40536C92.8086 7.96005 93.9678 6.79663 95.3876 6.79663C96.8074 6.79663 97.9665 7.96005 97.9665 9.40536Z" fill="#1C1C1C" stroke="#F3F3F3"/>
<path d="M105.151 9.40536C105.151 10.8507 103.991 12.0141 102.572 12.0141C101.152 12.0141 99.9927 10.8507 99.9927 9.40536C99.9927 7.96005 101.152 6.79663 102.572 6.79663C103.991 6.79663 105.151 7.96005 105.151 9.40536Z" fill="#1C1C1C" stroke="#F3F3F3"/>
<path d="M84.6238 9.40536C84.6238 10.8507 83.4646 12.0141 82.0448 12.0141C80.625 12.0141 79.4658 10.8507 79.4658 9.40536C79.4658 7.96005 80.625 6.79663 82.0448 6.79663C83.4646 6.79663 84.6238 7.96005 84.6238 9.40536Z" fill="#1C1C1C" stroke="#F3F3F3"/>
<path d="M77.9529 9.4056C77.9529 10.8509 76.7937 12.0143 75.3739 12.0143C73.9541 12.0143 72.7949 10.8509 72.7949 9.4056C72.7949 7.9603 73.9541 6.79688 75.3739 6.79688C76.7937 6.79688 77.9529 7.9603 77.9529 9.4056Z" fill="#1C1C1C" stroke="#F3F3F3"/>
<path d="M91.2952 16.141C91.2952 17.5863 90.136 18.7497 88.7162 18.7497C87.2964 18.7497 86.1372 17.5863 86.1372 16.141C86.1372 14.6957 87.2964 13.5322 88.7162 13.5322C90.136 13.5322 91.2952 14.6957 91.2952 16.141Z" fill="#1C1C1C" stroke="#F3F3F3"/>
<path d="M91.2952 23.3946C91.2952 24.8399 90.136 26.0033 88.7162 26.0033C87.2964 26.0033 86.1372 24.8399 86.1372 23.3946C86.1372 21.9493 87.2964 20.7859 88.7162 20.7859C90.136 20.7859 91.2952 21.9493 91.2952 23.3946Z" fill="#1C1C1C" stroke="#F3F3F3"/>
<path d="M91.2952 30.6485C91.2952 32.0938 90.136 33.2573 88.7162 33.2573C87.2964 33.2573 86.1372 32.0938 86.1372 30.6485C86.1372 29.2032 87.2964 28.0398 88.7162 28.0398C90.136 28.0398 91.2952 29.2032 91.2952 30.6485Z" fill="#1C1C1C" stroke="#F3F3F3"/>
<path d="M91.2952 37.9022C91.2952 39.3475 90.136 40.5109 88.7162 40.5109C87.2964 40.5109 86.1372 39.3475 86.1372 37.9022C86.1372 36.4569 87.2964 35.2935 88.7162 35.2935C90.136 35.2935 91.2952 36.4569 91.2952 37.9022Z" fill="#1C1C1C" stroke="#F3F3F3"/>
<path d="M91.2952 45.1559C91.2952 46.6012 90.136 47.7646 88.7162 47.7646C87.2964 47.7646 86.1372 46.6012 86.1372 45.1559C86.1372 43.7105 87.2964 42.5471 88.7162 42.5471C90.136 42.5471 91.2952 43.7105 91.2952 45.1559Z" fill="#1C1C1C" stroke="#F3F3F3"/>
<path d="M112.766 1.63355H125.731C127.388 1.63355 128.731 2.97669 128.731 4.63355V49.4095C128.731 51.0664 127.388 52.4095 125.731 52.4095H112.766V1.63355Z" fill="white"/>
<path d="M112.766 1.63355H125.731C127.388 1.63355 128.731 2.97669 128.731 4.63355V49.4095C128.731 51.0664 127.388 52.4095 125.731 52.4095H112.766V1.63355Z" fill="white"/>
<path d="M140.555 20.2514C142.212 20.2514 143.555 21.5945 143.555 23.2514V30.2275C143.555 31.8843 142.212 33.2275 140.555 33.2275L115.766 33.2275C114.109 33.2275 112.766 31.8843 112.766 30.2275L112.766 23.2514C112.766 21.5945 114.109 20.2514 115.766 20.2514H140.555Z" fill="white"/>
<path d="M140.555 20.2514C142.212 20.2514 143.555 21.5945 143.555 23.2514V30.2275C143.555 31.8843 142.212 33.2275 140.555 33.2275L115.766 33.2275C114.109 33.2275 112.766 31.8843 112.766 30.2275L112.766 23.2514C112.766 21.5945 114.109 20.2514 115.766 20.2514H140.555Z" fill="white"/>
<path d="M140.555 1.63355C142.212 1.63355 143.555 2.97669 143.555 4.63355V11.6096C143.555 13.2665 142.212 14.6096 140.555 14.6096L115.766 14.6096C114.109 14.6096 112.766 13.2665 112.766 11.6096L112.766 1.63355H140.555Z" fill="white"/>
<path d="M140.555 1.63355C142.212 1.63355 143.555 2.97669 143.555 4.63355V11.6096C143.555 13.2665 142.212 14.6096 140.555 14.6096L115.766 14.6096C114.109 14.6096 112.766 13.2665 112.766 11.6096L112.766 1.63355H140.555Z" fill="white"/>
<path d="M140.555 39.4334C142.212 39.4334 143.555 40.7766 143.555 42.4334V49.4095C143.555 51.0664 142.212 52.4095 140.555 52.4095H112.766L112.766 42.4334C112.766 40.7766 114.109 39.4334 115.766 39.4334H140.555Z" fill="white"/>
<path d="M140.555 39.4334C142.212 39.4334 143.555 40.7766 143.555 42.4334V49.4095C143.555 51.0664 142.212 52.4095 140.555 52.4095H112.766L112.766 42.4334C112.766 40.7766 114.109 39.4334 115.766 39.4334H140.555Z" fill="white"/>
<path d="M112.266 1.13355H112.266V1.63354L112.266 11.6096C112.266 11.6162 112.266 11.6228 112.266 11.6294V23.2289C112.266 23.2364 112.266 23.2439 112.266 23.2514L112.266 30.2275C112.266 30.235 112.266 30.2425 112.266 30.2501V42.4137C112.266 42.4203 112.266 42.4269 112.266 42.4335L112.266 52.4095V52.9095H112.766H125.731H140.555C142.488 52.9095 144.055 51.3425 144.055 49.4095V42.4334C144.055 40.5004 142.488 38.9334 140.555 38.9334H129.231V33.7275H140.555C142.488 33.7275 144.055 32.1605 144.055 30.2275V23.2514C144.055 21.3184 142.488 19.7514 140.555 19.7514H129.231V15.1096H140.555C142.488 15.1096 144.055 13.5426 144.055 11.6096V4.63355C144.055 2.70055 142.488 1.13355 140.555 1.13355H125.731H112.766H112.266Z" stroke="black" stroke-opacity="0.5"/>
<path d="M114.306 3.70605H128.674V50.337H114.306V3.70605Z" fill="#2C2C2C"/>
<path d="M114.306 3.70605H128.674V50.337H114.306V3.70605Z" fill="#2C2C2C"/>
<path d="M142.016 3.18799L142.016 15.1048L114.305 15.1048L114.305 3.18799L142.016 3.18799Z" fill="#2C2C2C"/>
<path d="M142.016 3.18799L142.016 15.1048L114.305 15.1048L114.305 3.18799L142.016 3.18799Z" fill="#2C2C2C"/>
<path d="M142.016 20.8042L142.016 32.721L114.305 32.721L114.305 20.8042L142.016 20.8042Z" fill="#2C2C2C"/>
<path d="M142.016 20.8042L142.016 32.721L114.305 32.721L114.305 20.8042L142.016 20.8042Z" fill="#2C2C2C"/>
<path d="M142.016 38.4204L142.016 50.3372L114.305 50.3372L114.305 38.4204L142.016 38.4204Z" fill="#2C2C2C"/>
<path d="M142.016 38.4204L142.016 50.3372L114.305 50.3372L114.305 38.4204L142.016 38.4204Z" fill="#2C2C2C"/>
<path d="M124.069 9.40512C124.069 10.8504 122.91 12.0138 121.49 12.0138C120.07 12.0138 118.911 10.8504 118.911 9.40512C118.911 7.95981 120.07 6.79639 121.49 6.79639C122.91 6.79639 124.069 7.95981 124.069 9.40512Z" fill="#1C1C1C" stroke="#F3F3F3"/>
<path d="M130.74 9.40512C130.74 10.8504 129.581 12.0138 128.161 12.0138C126.741 12.0138 125.582 10.8504 125.582 9.40512C125.582 7.95981 126.741 6.79639 128.161 6.79639C129.581 6.79639 130.74 7.95981 130.74 9.40512Z" fill="#1C1C1C" stroke="#F3F3F3"/>
<path d="M130.74 27.0213C130.74 28.4666 129.581 29.6301 128.161 29.6301C126.741 29.6301 125.582 28.4666 125.582 27.0213C125.582 25.576 126.741 24.4126 128.161 24.4126C129.581 24.4126 130.74 25.576 130.74 27.0213Z" fill="#1C1C1C" stroke="#F3F3F3"/>
<path d="M130.74 44.6375C130.74 46.0829 129.581 47.2463 128.161 47.2463C126.741 47.2463 125.582 46.0829 125.582 44.6375C125.582 43.1922 126.741 42.0288 128.161 42.0288C129.581 42.0288 130.74 43.1922 130.74 44.6375Z" fill="#1C1C1C" stroke="#F3F3F3"/>
<path d="M137.41 9.40512C137.41 10.8504 136.251 12.0138 134.831 12.0138C133.412 12.0138 132.252 10.8504 132.252 9.40512C132.252 7.95981 133.412 6.79639 134.831 6.79639C136.251 6.79639 137.41 7.95981 137.41 9.40512Z" fill="#1C1C1C" stroke="#F3F3F3"/>
<path d="M137.41 27.0213C137.41 28.4666 136.251 29.6301 134.831 29.6301C133.412 29.6301 132.252 28.4666 132.252 27.0213C132.252 25.576 133.412 24.4126 134.831 24.4126C136.251 24.4126 137.41 25.576 137.41 27.0213Z" fill="#1C1C1C" stroke="#F3F3F3"/>
<path d="M137.41 44.6375C137.41 46.0829 136.251 47.2463 134.831 47.2463C133.412 47.2463 132.252 46.0829 132.252 44.6375C132.252 43.1922 133.412 42.0288 134.831 42.0288C136.251 42.0288 137.41 43.1922 137.41 44.6375Z" fill="#1C1C1C" stroke="#F3F3F3"/>
<path d="M124.069 16.1407C124.069 17.586 122.909 18.7495 121.49 18.7495C120.07 18.7495 118.911 17.586 118.911 16.1407C118.911 14.6954 120.07 13.532 121.49 13.532C122.909 13.532 124.069 14.6954 124.069 16.1407Z" fill="#1C1C1C" stroke="#F3F3F3"/>
<path d="M124.069 23.3946C124.069 24.8399 122.909 26.0033 121.49 26.0033C120.07 26.0033 118.911 24.8399 118.911 23.3946C118.911 21.9493 120.07 20.7859 121.49 20.7859C122.909 20.7859 124.069 21.9493 124.069 23.3946Z" fill="#1C1C1C" stroke="#F3F3F3"/>
<path d="M124.069 30.6483C124.069 32.0936 122.909 33.257 121.49 33.257C120.07 33.257 118.911 32.0936 118.911 30.6483C118.911 29.203 120.07 28.0396 121.49 28.0396C122.909 28.0396 124.069 29.203 124.069 30.6483Z" fill="#1C1C1C" stroke="#F3F3F3"/>
<path d="M124.069 37.9019C124.069 39.3473 122.909 40.5107 121.49 40.5107C120.07 40.5107 118.911 39.3473 118.911 37.9019C118.911 36.4566 120.07 35.2932 121.49 35.2932C122.909 35.2932 124.069 36.4566 124.069 37.9019Z" fill="#1C1C1C" stroke="#F3F3F3"/>
<path d="M124.069 45.1556C124.069 46.6009 122.909 47.7643 121.49 47.7643C120.07 47.7643 118.911 46.6009 118.911 45.1556C118.911 43.7103 120.07 42.5469 121.49 42.5469C122.909 42.5469 124.069 43.7103 124.069 45.1556Z" fill="#1C1C1C" stroke="#F3F3F3"/>
<path d="M148.337 6.65214C147.181 4.65214 148.624 2.15137 150.934 2.15137H163.287C164.338 2.15137 165.312 2.70137 165.855 3.6012L192.254 47.3409C193.46 49.3403 192.021 51.8911 189.685 51.8911H176.205C175.133 51.8911 174.143 51.3196 173.607 50.3918L148.337 6.65214Z" fill="white"/>
<path d="M191.502 4.48893C192.1 3.4527 191.36 2.15137 190.172 2.15137H174.473C173.936 2.15137 173.438 2.43389 173.159 2.89689L145.015 49.5279C144.39 50.5637 145.128 51.8911 146.329 51.8911H163.231C163.778 51.8911 164.285 51.5974 164.561 51.1199L191.502 4.48893Z" fill="white"/>
<path d="M147.904 6.90227L158.788 25.7405L144.587 49.2695C143.765 50.6313 144.73 52.3911 146.329 52.3911H163.231C163.959 52.3911 164.629 52.0008 164.994 51.37L169.294 43.9261L173.174 50.642C173.8 51.7244 174.955 52.3911 176.205 52.3911H189.685C192.41 52.3911 194.09 49.4152 192.682 47.0825L179.801 25.7405L191.935 4.73906C192.722 3.37671 191.753 1.65137 190.172 1.65137H174.473C173.76 1.65137 173.1 2.02686 172.731 2.63853L169.294 8.33204L166.283 3.34283C165.649 2.29304 164.513 1.65137 163.287 1.65137H150.934C148.24 1.65137 146.556 4.56894 147.904 6.90227Z" stroke="black" stroke-opacity="0.5"/>
<path d="M148.303 3.70581H164.467L191.922 50.5959L174.987 50.8549L148.303 3.70581Z" fill="#2C2C2C"/>
<path d="M190.382 3.70581H174.217L146.763 50.5959L163.697 50.8549L190.382 3.70581Z" fill="#2C2C2C"/>
<path d="M160.055 8.33969C160.055 9.785 158.896 10.9484 157.476 10.9484C156.056 10.9484 154.897 9.785 154.897 8.33969C154.897 6.89438 156.056 5.73096 157.476 5.73096C158.896 5.73096 160.055 6.89438 160.055 8.33969Z" fill="#1C1C1C" stroke="#F3F3F3"/>
<path d="M163.488 13.2247C164.27 14.4305 163.936 16.0458 162.745 16.8336C161.555 17.6215 159.954 17.2873 159.171 16.0815C158.389 14.8757 158.723 13.2605 159.914 12.4726C161.104 11.6847 162.705 12.0189 163.488 13.2247Z" fill="#1C1C1C" stroke="#F3F3F3"/>
<path d="M167.145 19.3761C167.928 20.5819 167.593 22.1971 166.402 22.985C165.212 23.7729 163.612 23.4386 162.829 22.2328C162.046 21.0271 162.381 19.4118 163.571 18.624C164.761 17.8361 166.362 18.1703 167.145 19.3761Z" fill="#1C1C1C" stroke="#F3F3F3"/>
<path d="M170.606 25.9603C171.389 27.1661 171.054 28.7813 169.863 29.5692C168.673 30.3571 167.072 30.0229 166.29 28.8171C165.507 27.6113 165.841 25.996 167.032 25.2082C168.222 24.4203 169.823 24.7545 170.606 25.9603Z" fill="#1C1C1C" stroke="#F3F3F3"/>
<path d="M175.058 32.5448C175.841 33.7506 175.506 35.3658 174.316 36.1537C173.125 36.9416 171.525 36.6073 170.742 35.4016C169.959 34.1958 170.294 32.5805 171.484 31.7926C172.674 31.0048 174.275 31.339 175.058 32.5448Z" fill="#1C1C1C" stroke="#F3F3F3"/>
<path d="M179.509 39.1293C180.292 40.3351 179.958 41.9503 178.767 42.7382C177.577 43.526 175.976 43.1918 175.193 41.986C174.41 40.7802 174.745 39.165 175.936 38.3771C177.126 37.5892 178.727 37.9235 179.509 39.1293Z" fill="#1C1C1C" stroke="#F3F3F3"/>
<path d="M183.834 47.065C183.834 48.5103 182.675 49.6738 181.255 49.6738C179.835 49.6738 178.676 48.5103 178.676 47.065C178.676 45.6197 179.835 44.4563 181.255 44.4563C182.675 44.4563 183.834 45.6197 183.834 47.065Z" fill="#1C1C1C" stroke="#F3F3F3"/>
<path d="M177.685 8.33969C177.685 9.785 178.844 10.9484 180.264 10.9484C181.684 10.9484 182.843 9.785 182.843 8.33969C182.843 6.89438 181.684 5.73096 180.264 5.73096C178.844 5.73096 177.685 6.89438 177.685 8.33969Z" fill="#1C1C1C" stroke="#F3F3F3"/>
<path d="M174.251 13.2247C173.468 14.4305 173.803 16.0458 174.994 16.8336C176.184 17.6215 177.784 17.2873 178.567 16.0815C179.35 14.8757 179.015 13.2605 177.825 12.4726C176.635 11.6847 175.034 12.0189 174.251 13.2247Z" fill="#1C1C1C" stroke="#F3F3F3"/>
<path d="M170.594 19.3761C169.812 20.5819 170.146 22.1971 171.337 22.985C172.527 23.7729 174.128 23.4386 174.911 22.2328C175.694 21.0271 175.359 19.4118 174.168 18.624C172.978 17.8361 171.377 18.1703 170.594 19.3761Z" fill="#1C1C1C" stroke="#F3F3F3"/>
<path d="M162.682 32.5448C161.899 33.7506 162.234 35.3658 163.424 36.1537C164.615 36.9416 166.215 36.6073 166.998 35.4016C167.781 34.1958 167.446 32.5805 166.256 31.7926C165.065 31.0048 163.465 31.339 162.682 32.5448Z" fill="#1C1C1C" stroke="#F3F3F3"/>
<path d="M158.23 39.1293C157.447 40.3351 157.782 41.9503 158.973 42.7382C160.163 43.526 161.763 43.1918 162.546 41.986C163.329 40.7802 162.994 39.165 161.804 38.3771C160.614 37.5893 159.013 37.9235 158.23 39.1293Z" fill="#1C1C1C" stroke="#F3F3F3"/>
<path d="M153.906 47.065C153.906 48.5103 155.065 49.6738 156.484 49.6738C157.904 49.6738 159.063 48.5103 159.063 47.065C159.063 45.6197 157.904 44.4563 156.484 44.4563C155.065 44.4563 153.906 45.6197 153.906 47.065Z" fill="#1C1C1C" stroke="#F3F3F3"/>
</svg>
