<?xml version="1.0" encoding="UTF-8"?>
<!DOCTYPE svg PUBLIC "-//W3C//DTD SVG 1.1//EN" "http://www.w3.org/Graphics/SVG/1.1/DTD/svg11.dtd">
<!-- Creator: CorelDRAW 2020 (64-Bit) -->
<svg xmlns="http://www.w3.org/2000/svg" xml:space="preserve" width="28px" height="15px" version="1.1" style="shape-rendering:geometricPrecision; text-rendering:geometricPrecision; image-rendering:optimizeQuality; fill-rule:evenodd; clip-rule:evenodd"
viewBox="0 0 1.06 0.57"
 xmlns:xlink="http://www.w3.org/1999/xlink"
 xmlns:xodm="http://www.corel.com/coreldraw/odm/2003">
 <defs>
  <style type="text/css">
   <![CDATA[
    .fil0 {fill:black;fill-rule:nonzero}
   ]]>
  </style>
 </defs>
 <g id="Camada_x0020_1">
  <metadata id="CorelCorpID_0Corel-Layer"/>
  <g id="iconfinder_multimedia-03_2849833.svg">
   <g id="_1" data-name="1">
    <path class="fil0" d="M1.06 0.04c0,-0.02 -0.01,-0.04 -0.04,-0.04 -0.01,0 -0.02,0 -0.03,0.01l-0.46 0.47 -0.46 -0.47c-0.01,-0.01 -0.02,-0.01 -0.03,-0.01 -0.02,0 -0.04,0.02 -0.04,0.04 0,0.01 0,0.02 0.01,0.03l0.49 0.49c0.01,0.01 0.02,0.01 0.03,0.01 0.01,0 0.02,0 0.03,-0.01l0.49 -0.49c0.01,-0.01 0.01,-0.02 0.01,-0.03 0,0 0,0 0,0l0 0z"/>
   </g>
  </g>
 </g>
</svg>
