<svg width="1712" height="1127" viewBox="0 0 1712 1127" fill="none" xmlns="http://www.w3.org/2000/svg">
<path d="M1510.95 1297.42C1433.83 1394.59 1183.71 1422.19 1068.29 1423.84C1025.16 1425.42 659.865 1415.16 529.222 1397.81C398.578 1380.46 294.57 1299.9 248.908 1247.84C203.246 1195.78 176.61 1068.12 182.952 911.948C189.294 755.777 163.926 662.818 129.68 563.662C95.4337 464.506 14.2569 345.519 1.57304 245.124C-11.1108 144.728 54.8453 59.2062 129.68 -18.8792C204.515 -96.9646 158.11 -208.467 301.438 -353.483C444.766 -498.499 705.527 -456.405 760.068 -491.11C814.608 -525.815 959.204 -538.209 1028.97 -524.575C1098.73 -510.941 1172.29 -508.462 1362.55 -393.193C1552.81 -277.924 1612.42 -92.0069 1659.35 59.2061C1706.28 210.419 1720.24 359.153 1707.55 475.661C1694.87 592.17 1677.11 732.228 1659.35 918.145C1641.6 1104.06 1607.35 1175.95 1510.95 1297.42Z" fill="#F2FAFF"/>
<path d="M1384.93 950.367C1325.83 1014.57 1134.14 1032.8 1045.69 1033.9C1012.64 1034.94 732.691 1028.16 632.572 1016.7C532.452 1005.23 452.745 952.005 417.752 917.611C382.759 883.217 362.346 798.871 367.206 695.689C372.067 592.508 352.626 531.09 326.381 465.578C300.136 400.066 237.926 321.452 228.206 255.121C218.485 188.79 269.031 132.286 326.381 80.6955C383.731 29.1048 348.169 -44.5647 458.009 -140.376C567.848 -236.187 767.684 -208.376 809.482 -231.305C851.279 -254.235 962.091 -262.424 1015.55 -253.416C1069.01 -244.408 1125.39 -242.77 1271.2 -166.612C1417 -90.4547 1462.69 32.3803 1498.65 132.286C1534.62 232.192 1545.31 330.46 1535.59 407.436C1525.87 484.413 1512.26 576.949 1498.65 699.784C1485.05 822.619 1458.8 870.115 1384.93 950.367Z" fill="url(#paint0_linear)"/>
<defs>
<linearGradient id="paint0_linear" x1="883" y1="-257" x2="883" y2="1034" gradientUnits="userSpaceOnUse">
<stop stop-color="#D8EDF9"/>
<stop offset="1" stop-color="white"/>
</linearGradient>
</defs>
</svg>
