<svg width="310" height="297" viewBox="0 0 310 297" fill="none" xmlns="http://www.w3.org/2000/svg">
<circle cx="147.567" cy="147.567" r="127" fill="#45BBD3" fill-opacity="0.3"/>
<circle cx="147.567" cy="147.567" r="113" fill="#45BBD3" fill-opacity="0.5"/>
<path d="M183.953 57.0259C134.604 35.4806 81.0042 59.7109 59.4588 109.06C37.9135 158.41 60.4532 215.882 109.803 237.427C159.152 258.972 212.752 234.742 234.297 185.393C255.843 136.043 233.303 78.5713 183.953 57.0259Z" fill="url(#paint0_linear)"/>
<path d="M263.823 198.711L240.529 127.118L242.301 140.766L242.045 155.455L239.244 171.202L234.297 185.393L226.777 199.633L217.706 211.949L206.924 222.732L194.947 231.503L263.823 198.711Z" fill="url(#paint1_linear)"/>
<path d="M151.633 107.952C150.55 109.168 149.108 109.777 147.308 109.777C145.508 109.777 144.058 109.168 142.958 107.952C141.875 106.735 141.333 105.227 141.333 103.427C141.333 101.627 141.875 100.127 142.958 98.9266C144.058 97.7099 145.508 97.1016 147.308 97.1016C149.108 97.1016 150.55 97.7099 151.633 98.9266C152.733 100.127 153.283 101.627 153.283 103.427C153.283 105.227 152.733 106.735 151.633 107.952ZM144.358 106.752C145.092 107.652 146.075 108.102 147.308 108.102C148.542 108.102 149.517 107.652 150.233 106.752C150.95 105.835 151.308 104.727 151.308 103.427C151.308 102.127 150.95 101.027 150.233 100.127C149.517 99.2266 148.542 98.7766 147.308 98.7766C146.075 98.7766 145.092 99.2349 144.358 100.152C143.642 101.052 143.283 102.143 143.283 103.427C143.283 104.727 143.642 105.835 144.358 106.752ZM160.415 109.477H158.54V99.0516H155.04V97.4016H163.94V99.0516H160.415V109.477ZM100.662 156.477H92.1124V137.307L87.6574 141.762L82.8424 136.767L93.3274 126.462H100.662V156.477ZM126.507 156.477H104.412V149.637C108.732 146.067 111.717 143.532 113.367 142.032C115.047 140.532 116.187 139.377 116.787 138.567C117.387 137.757 117.687 136.932 117.687 136.092C117.687 135.372 117.402 134.772 116.832 134.292C116.262 133.782 115.512 133.527 114.582 133.527C112.182 133.527 110.037 134.517 108.147 136.497L103.287 131.052C106.167 127.692 109.977 126.012 114.717 126.012C118.197 126.012 120.987 126.927 123.087 128.757C125.217 130.587 126.282 132.987 126.282 135.957C126.282 137.997 125.622 139.977 124.302 141.897C122.982 143.787 120.597 146.172 117.147 149.052H126.507V156.477ZM156.065 154.812C154.235 156.282 152.045 157.017 149.495 157.017C146.945 157.017 144.755 156.282 142.925 154.812C141.095 153.342 139.76 151.467 138.92 149.187C138.08 146.877 137.66 144.312 137.66 141.492C137.66 137.112 138.68 133.437 140.72 130.467C142.79 127.497 145.715 126.012 149.495 126.012C153.275 126.012 156.185 127.497 158.225 130.467C160.295 133.437 161.33 137.112 161.33 141.492C161.33 144.312 160.91 146.877 160.07 149.187C159.23 151.467 157.895 153.342 156.065 154.812ZM147.02 147.657C147.5 148.887 148.325 149.502 149.495 149.502C150.665 149.502 151.49 148.887 151.97 147.657C152.45 146.397 152.69 144.342 152.69 141.492C152.69 138.612 152.45 136.572 151.97 135.372C151.49 134.142 150.665 133.527 149.495 133.527C148.325 133.527 147.5 134.142 147.02 135.372C146.54 136.572 146.3 138.612 146.3 141.492C146.3 144.342 146.54 146.397 147.02 147.657ZM181.334 154.812C179.504 156.282 177.314 157.017 174.764 157.017C172.214 157.017 170.024 156.282 168.194 154.812C166.364 153.342 165.029 151.467 164.189 149.187C163.349 146.877 162.929 144.312 162.929 141.492C162.929 137.112 163.949 133.437 165.989 130.467C168.059 127.497 170.984 126.012 174.764 126.012C178.544 126.012 181.454 127.497 183.494 130.467C185.564 133.437 186.599 137.112 186.599 141.492C186.599 144.312 186.179 146.877 185.339 149.187C184.499 151.467 183.164 153.342 181.334 154.812ZM172.289 147.657C172.769 148.887 173.594 149.502 174.764 149.502C175.934 149.502 176.759 148.887 177.239 147.657C177.719 146.397 177.959 144.342 177.959 141.492C177.959 138.612 177.719 136.572 177.239 135.372C176.759 134.142 175.934 133.527 174.764 133.527C173.594 133.527 172.769 134.142 172.289 135.372C171.809 136.572 171.569 138.612 171.569 141.492C171.569 144.342 171.809 146.397 172.289 147.657ZM206.602 154.812C204.772 156.282 202.582 157.017 200.032 157.017C197.482 157.017 195.292 156.282 193.462 154.812C191.632 153.342 190.297 151.467 189.457 149.187C188.617 146.877 188.197 144.312 188.197 141.492C188.197 137.112 189.217 133.437 191.257 130.467C193.327 127.497 196.252 126.012 200.032 126.012C203.812 126.012 206.722 127.497 208.762 130.467C210.832 133.437 211.867 137.112 211.867 141.492C211.867 144.312 211.447 146.877 210.607 149.187C209.767 151.467 208.432 153.342 206.602 154.812ZM197.557 147.657C198.037 148.887 198.862 149.502 200.032 149.502C201.202 149.502 202.027 148.887 202.507 147.657C202.987 146.397 203.227 144.342 203.227 141.492C203.227 138.612 202.987 136.572 202.507 135.372C202.027 134.142 201.202 133.527 200.032 133.527C198.862 133.527 198.037 134.142 197.557 135.372C197.077 136.572 196.837 138.612 196.837 141.492C196.837 144.342 197.077 146.397 197.557 147.657ZM118.833 186.777C117.133 186.777 115.774 186.068 114.758 184.652V191.077H112.883V174.402H114.758V176.202C115.208 175.568 115.791 175.06 116.508 174.677C117.224 174.293 117.999 174.102 118.833 174.102C120.433 174.102 121.724 174.677 122.708 175.827C123.708 176.96 124.208 178.493 124.208 180.427C124.208 182.36 123.708 183.902 122.708 185.052C121.724 186.202 120.433 186.777 118.833 186.777ZM118.358 185.102C119.541 185.102 120.483 184.668 121.183 183.802C121.883 182.918 122.233 181.793 122.233 180.427C122.233 179.06 121.883 177.943 121.183 177.077C120.483 176.21 119.541 175.777 118.358 175.777C117.641 175.777 116.941 175.968 116.258 176.352C115.591 176.718 115.091 177.168 114.758 177.702V183.152C115.091 183.702 115.591 184.168 116.258 184.552C116.941 184.918 117.641 185.102 118.358 185.102ZM126.514 191.202L126.814 189.502C127.114 189.635 127.456 189.702 127.839 189.702C128.273 189.702 128.631 189.61 128.914 189.427C129.198 189.243 129.439 188.91 129.639 188.427L130.439 186.602L125.389 174.402H127.414L131.439 184.302L135.439 174.402H137.489L131.439 188.927C130.773 190.527 129.589 191.343 127.889 191.377C127.389 191.377 126.931 191.318 126.514 191.202ZM141.77 183.752C142.504 184.652 143.487 185.102 144.72 185.102C145.954 185.102 146.929 184.652 147.645 183.752C148.362 182.835 148.72 181.718 148.72 180.402C148.72 179.118 148.362 178.027 147.645 177.127C146.929 176.227 145.954 175.777 144.72 175.777C143.487 175.777 142.504 176.227 141.77 177.127C141.054 178.027 140.695 179.118 140.695 180.402C140.695 181.718 141.054 182.835 141.77 183.752ZM144.72 186.777C142.904 186.777 141.454 186.135 140.37 184.852C139.287 183.568 138.745 181.91 138.745 179.877C138.745 177.01 139.262 174.893 140.295 173.527C141.329 172.143 142.92 171.31 145.07 171.027C146.354 170.827 147.237 170.635 147.72 170.452C148.22 170.268 148.47 170.052 148.47 169.802H150.295C150.295 170.268 150.154 170.677 149.87 171.027C149.587 171.36 149.179 171.627 148.645 171.827C148.129 172.027 147.637 172.185 147.17 172.302C146.72 172.402 146.179 172.493 145.545 172.577C143.879 172.81 142.67 173.268 141.92 173.952C141.187 174.635 140.704 175.543 140.47 176.677C141.57 174.96 143.087 174.102 145.02 174.102C146.687 174.102 148.045 174.71 149.095 175.927C150.145 177.143 150.67 178.635 150.67 180.402C150.67 182.202 150.129 183.718 149.045 184.952C147.962 186.168 146.52 186.777 144.72 186.777ZM152.449 186.777V185.227C153.016 185.227 153.482 184.852 153.849 184.102C154.216 183.352 154.516 182.102 154.749 180.352L155.524 174.402H163.924V186.477H162.049V176.052H157.174L156.624 180.577C156.357 182.793 155.891 184.385 155.224 185.352C154.557 186.302 153.632 186.777 152.449 186.777ZM173.118 186.777C171.318 186.777 169.843 186.193 168.693 185.027C167.543 183.843 166.968 182.31 166.968 180.427C166.968 178.66 167.535 177.168 168.668 175.952C169.801 174.718 171.218 174.102 172.918 174.102C174.701 174.102 176.11 174.718 177.143 175.952C178.193 177.168 178.718 178.71 178.718 180.577V181.052H168.943C169.026 182.235 169.46 183.227 170.243 184.027C171.026 184.827 172.043 185.227 173.293 185.227C174.793 185.227 176.035 184.718 177.018 183.702L177.918 184.927C176.685 186.16 175.085 186.777 173.118 186.777ZM176.868 179.677C176.851 178.643 176.501 177.718 175.818 176.902C175.135 176.068 174.16 175.652 172.893 175.652C171.693 175.652 170.743 176.06 170.043 176.877C169.36 177.693 168.993 178.627 168.943 179.677H176.868ZM183.555 186.477H181.755V174.402H183.63V183.627L189.955 174.402H191.805V186.477H189.93V177.077L183.555 186.477ZM191.155 170.827C190.072 172.293 188.613 173.027 186.78 173.027C184.963 173.027 183.497 172.293 182.38 170.827L183.305 170.027C184.172 171.227 185.33 171.827 186.78 171.827C188.247 171.827 189.397 171.227 190.23 170.027L191.155 170.827Z" fill="white"/>
<defs>
<linearGradient id="paint0_linear" x1="263.98" y1="198.352" x2="59.4588" y2="109.06" gradientUnits="userSpaceOnUse">
<stop stop-color="#44C1D2"/>
<stop offset="1" stop-color="#46B4D3"/>
</linearGradient>
<linearGradient id="paint1_linear" x1="263.98" y1="198.352" x2="59.4588" y2="109.06" gradientUnits="userSpaceOnUse">
<stop stop-color="#44C1D2"/>
<stop offset="1" stop-color="#46B4D3"/>
</linearGradient>
</defs>
</svg>
