<svg width="10" height="11" viewBox="0 0 10 11" fill="none" xmlns="http://www.w3.org/2000/svg">
<g clip-path="url(#clip0)">
<path d="M4.60976 8.07457L0.160569 3.64414C0.0569105 3.54096 -4.48664e-08 3.40542 -3.84696e-08 3.25976C-3.20728e-08 3.1141 0.0569106 2.97654 0.160569 2.87539L0.487805 2.54765C0.70122 2.33524 1.04878 2.33524 1.2622 2.54765L5 6.26801L8.73984 2.54361C8.8435 2.44043 8.97968 2.38379 9.12602 2.38379C9.27236 2.38379 9.41057 2.44043 9.5122 2.54361L9.83943 2.86932C9.94309 2.97249 10 3.10803 10 3.25369C10 3.39935 9.94309 3.53692 9.83943 3.63807L5.38618 8.07457C5.28252 8.17775 5.14431 8.23439 4.99797 8.23237C4.85163 8.23237 4.71341 8.17775 4.60976 8.07457Z" fill="#265C7E" fill-opacity="0.85"/>
</g>
<defs>
<clipPath id="clip0">
<rect width="9.95331" height="10" fill="white" transform="matrix(-4.39164e-08 1 1 4.35073e-08 0 0.332275)"/>
</clipPath>
</defs>
</svg>
