<svg width="10" height="14" viewBox="0 0 10 14" fill="none" xmlns="http://www.w3.org/2000/svg">
<path d="M8.88997 7.54634L2.65826 13.7752C2.51314 13.9203 2.32249 14 2.11761 14C1.91273 14 1.71924 13.9203 1.57696 13.7752L1.11599 13.3171C0.817205 13.0183 0.817205 12.5317 1.11599 12.2329L6.34891 7L1.11029 1.76422C0.965173 1.6191 0.885498 1.42845 0.885498 1.22357C0.885498 1.0187 0.965173 0.825199 1.11029 0.682923L1.56842 0.224792C1.71355 0.0796709 1.9042 -3.8147e-06 2.10908 -3.8147e-06C2.31395 -3.8147e-06 2.50745 0.0796709 2.64973 0.224792L8.88997 6.45935C9.03509 6.60447 9.11477 6.79797 9.11192 7.00284C9.11192 7.20772 9.03509 7.40122 8.88997 7.54634Z" fill="url(#paint0_linear)"/>
<defs>
<linearGradient id="paint0_linear" x1="4.99875" y1="14" x2="4.99875" y2="-3.8147e-06" gradientUnits="userSpaceOnUse">
<stop stop-color="#47A4D4"/>
<stop offset="1" stop-color="#44BFD2"/>
</linearGradient>
</defs>
</svg>
