<?xml version="1.0" encoding="UTF-8"?>
<!DOCTYPE svg PUBLIC "-//W3C//DTD SVG 1.1//EN" "http://www.w3.org/Graphics/SVG/1.1/DTD/svg11.dtd">
<!-- Creator: CorelDRAW 2020 (64-Bit) -->
<svg xmlns="http://www.w3.org/2000/svg" xml:space="preserve" width="32px" height="37px" version="1.1" style="shape-rendering:geometricPrecision; text-rendering:geometricPrecision; image-rendering:optimizeQuality; fill-rule:evenodd; clip-rule:evenodd"
viewBox="0 0 7.57 8.75"
 xmlns:xlink="http://www.w3.org/1999/xlink"
 xmlns:xodm="http://www.corel.com/coreldraw/odm/2003">
 <defs>
  <style type="text/css">
   <![CDATA[
    .fil0 {fill:#B681E0;fill-rule:nonzero}
    .fil1 {fill:white;fill-rule:nonzero}
   ]]>
  </style>
 </defs>
 <g id="Camada_x0020_1">
  <metadata id="CorelCorpID_0Corel-Layer"/>
  <path class="fil0" d="M7.57 5.09c0,2.11 -1.7,3.66 -3.79,3.66 -2.09,0 -3.78,-1.71 -3.78,-3.82 0,-1.26 0.6,-2.32 1.53,-2.97l0 0 2.24 -1.96 2.18 1.96 0 0c0.98,0.69 1.62,1.83 1.62,3.13zm-5.54 -3.42l0 0 0 0 0 0zm0.55 -0.22l0 0 0 0 0 0zm0.58 -0.13l0 0 0 0 0 0zm1.2 -0.01l0.01 0 -0.01 0 0 0zm0.61 0.15l0 0 0 0 0 0zm0.52 0.22l0.01 0 -0.01 0 0 0z"/>
  <path class="fil1" d="M5.36 5.14c-0.1,0.84 -0.7,0.89 -0.81,0.93 -0.04,0.02 -0.48,0.13 -1.02,0.09l-0.59 0.66 0 -0.76 0 0c-0.79,-0.22 -0.77,-1.08 -0.76,-1.52 0.01,-0.45 0.09,-0.81 0.33,-1.06 0.44,-0.41 1.33,-0.35 1.33,-0.35 0.76,0.01 1.12,0.24 1.2,0.32 0.28,0.24 0.42,0.83 0.32,1.69zm-0.11 -1.9c-0.1,-0.09 -0.5,-0.4 -1.4,-0.4 0,0 -1.05,-0.06 -1.56,0.42 -0.29,0.29 -0.39,0.72 -0.4,1.26 -0.01,0.53 -0.02,1.54 0.92,1.81l0 0.41c0,0 -0.01,0.17 0.1,0.21 0.13,0.04 0.2,-0.09 0.33,-0.23 0.07,-0.08 0.16,-0.19 0.23,-0.27 0.64,0.06 1.13,-0.07 1.19,-0.09 0.13,-0.04 0.86,-0.14 0.98,-1.14 0.12,-1.03 -0.06,-1.69 -0.39,-1.98z"/>
  <path class="fil1" d="M4.68 5.27c0,0 -0.13,-0.1 -0.18,-0.15 -0.06,-0.04 -0.15,-0.1 -0.2,-0.12 -0.08,-0.05 -0.17,-0.02 -0.21,0.03l-0.08 0.1c-0.03,0.05 -0.1,0.04 -0.11,0.03 -0.12,-0.03 -0.24,-0.1 -0.36,-0.22 -0.13,-0.12 -0.2,-0.25 -0.23,-0.38l0 -0.01c-0.01,-0.05 0,-0.08 0.02,-0.11l0 -0.01c0.06,-0.05 0.15,-0.11 0.17,-0.16 0.03,-0.1 -0.13,-0.31 -0.16,-0.34 0,0 -0.12,-0.16 -0.16,-0.19 -0.04,-0.04 -0.12,-0.06 -0.19,-0.02l0 0c-0.21,0.14 -0.28,0.22 -0.26,0.34l0.01 0.05c0.1,0.34 0.3,0.7 0.61,1.01 0.3,0.31 0.62,0.5 0.94,0.63 0.08,0.02 0.17,0 0.26,-0.07 0.07,-0.07 0.12,-0.14 0.16,-0.21 0.04,-0.08 0.02,-0.15 -0.03,-0.2z"/>
  <path class="fil1" d="M4.18 4.54c-0.01,0 -0.02,-0.01 -0.02,-0.02 -0.01,-0.09 -0.03,-0.16 -0.07,-0.2 -0.04,-0.05 -0.1,-0.07 -0.18,-0.08 -0.01,0 -0.03,-0.01 -0.03,-0.02 0,-0.02 0.02,-0.03 0.03,-0.03 0.1,0.01 0.17,0.04 0.22,0.09 0.05,0.06 0.07,0.13 0.08,0.23 0,0.02 -0.01,0.03 -0.03,0.03z"/>
  <path class="fil1" d="M4.41 4.62c-0.01,0 -0.02,-0.01 -0.02,-0.02 0.01,-0.17 -0.04,-0.31 -0.14,-0.42 -0.05,-0.06 -0.11,-0.1 -0.18,-0.13 -0.07,-0.03 -0.15,-0.05 -0.24,-0.06 -0.01,0 -0.02,-0.01 -0.02,-0.02 0,-0.02 0.01,-0.03 0.03,-0.03 0.18,0.02 0.34,0.09 0.44,0.21 0.11,0.12 0.16,0.27 0.16,0.45 0,0.01 -0.01,0.02 -0.03,0.02z"/>
  <path class="fil1" d="M4.66 4.72c-0.01,0 -0.03,-0.01 -0.03,-0.03 0,-0.14 -0.02,-0.27 -0.06,-0.39 -0.04,-0.11 -0.11,-0.21 -0.19,-0.3 -0.08,-0.08 -0.18,-0.15 -0.28,-0.19 -0.1,-0.04 -0.22,-0.06 -0.34,-0.06 -0.02,0 -0.03,-0.01 -0.03,-0.02 0,-0.02 0.01,-0.03 0.03,-0.03 0.26,0.01 0.48,0.09 0.65,0.27 0.09,0.09 0.16,0.2 0.21,0.32 0.04,0.12 0.06,0.26 0.06,0.41 0,0.01 -0.01,0.02 -0.02,0.02z"/>
 </g>
</svg>
