<svg width="42" height="42" viewBox="0 0 42 42" fill="none" xmlns="http://www.w3.org/2000/svg">
<circle cx="21" cy="21" r="20" fill="url(#paint0_linear)" stroke="url(#paint1_linear)" stroke-width="2"/>
<path d="M27.125 18.125C27.125 16.6332 26.5324 15.2024 25.4775 14.1475C24.4226 13.0926 22.9918 12.5 21.5 12.5C20.0082 12.5 18.5774 13.0926 17.5225 14.1475C16.4676 15.2024 15.875 16.6332 15.875 18.125C15.875 18.4234 15.9935 18.7095 16.2045 18.9205C16.4155 19.1315 16.7016 19.25 17 19.25C17.2984 19.25 17.5845 19.1315 17.7955 18.9205C18.0065 18.7095 18.125 18.4234 18.125 18.125C18.125 17.4575 18.3229 16.805 18.6938 16.25C19.0646 15.6949 19.5917 15.2624 20.2084 15.0069C20.8251 14.7515 21.5037 14.6846 22.1584 14.8149C22.8131 14.9451 23.4145 15.2665 23.8865 15.7385C24.3585 16.2105 24.6799 16.8119 24.8101 17.4666C24.9404 18.1213 24.8735 18.7999 24.6181 19.4166C24.3626 20.0333 23.9301 20.5604 23.375 20.9312C22.82 21.3021 22.1675 21.5 21.5 21.5C21.2016 21.5 20.9155 21.6185 20.7045 21.8295C20.4935 22.0405 20.375 22.3266 20.375 22.625V24.875C20.375 25.1734 20.4935 25.4595 20.7045 25.6705C20.9155 25.8815 21.2016 26 21.5 26C21.7984 26 22.0845 25.8815 22.2955 25.6705C22.5065 25.4595 22.625 25.1734 22.625 24.875V23.6375C23.8955 23.3782 25.0374 22.6878 25.8575 21.6833C26.6775 20.6787 27.1253 19.4217 27.125 18.125Z" fill="white"/>
<path d="M21.5 31C22.3284 31 23 30.3284 23 29.5C23 28.6716 22.3284 28 21.5 28C20.6716 28 20 28.6716 20 29.5C20 30.3284 20.6716 31 21.5 31Z" fill="white"/>
<defs>
<linearGradient id="paint0_linear" x1="0" y1="21" x2="42" y2="21" gradientUnits="userSpaceOnUse">
<stop stop-color="#479DD4"/>
<stop offset="1" stop-color="#43C3D1"/>
</linearGradient>
<linearGradient id="paint1_linear" x1="1.36904e-07" y1="21" x2="42" y2="21" gradientUnits="userSpaceOnUse">
<stop stop-color="#479DD4"/>
<stop offset="1" stop-color="#43C3D1"/>
</linearGradient>
</defs>
</svg>
