<svg width="73" height="78" viewBox="0 0 73 78" fill="none" xmlns="http://www.w3.org/2000/svg">
<path d="M64 43.0704C64 60.9261 49.6731 74 32 74C14.3269 74 0 59.5251 0 41.6694C0 23.8137 14.3269 10.7398 32 10.7398C49.6731 10.7398 64 25.2147 64 43.0704Z" fill="#44C1D2" fill-opacity="0.2"/>
<path d="M31.8715 0L50.3467 16.5778L46.4742 14.2284L42.0224 12.3572L36.9179 11.1193L32 10.7398L26.7292 11.1359L21.8333 12.2585L17.1741 14.1043L12.9629 16.5806L31.8715 0Z" fill="#44C1D2" fill-opacity="0.2"/>
<circle cx="32" cy="41" r="20" stroke="url(#paint0_linear)" stroke-opacity="0.65" stroke-width="2"/>
<circle cx="52" cy="57" r="20" fill="url(#paint1_linear)" stroke="url(#paint2_linear)" stroke-width="2"/>
<g clip-path="url(#clip0)">
<path d="M64.9239 60.3318C64.735 59.9263 64.2536 59.7513 63.8478 59.9401L54.1503 64.4619C53.4962 63.6396 52.4908 63.1371 51.4142 63.1371C51.1771 63.1371 50.9439 63.1633 50.7147 63.2103L43.7013 48.1705L39.0218 46.9041C38.5914 46.7878 38.1452 47.0426 38.0283 47.4743C37.9115 47.9059 38.1668 48.3509 38.5985 48.4678L42.5515 49.5377L49.2473 63.8964C48.0106 64.8778 47.5545 66.6138 48.2503 68.1067C48.8216 69.3321 50.0648 70.1239 51.417 70.1239C51.929 70.1239 52.4254 70.0135 52.8919 69.7956C53.7372 69.4014 54.3787 68.7017 54.6975 67.825C54.9219 67.2084 54.9639 66.5567 54.8344 65.9298L64.5319 61.408C64.9377 61.2189 65.113 60.7373 64.9239 60.3318ZM53.1758 67.2709C53.0046 67.7406 52.6612 68.1159 52.2076 68.3273C51.9568 68.4445 51.6909 68.5036 51.4175 68.5036C50.6918 68.5036 50.0249 68.0789 49.7188 67.422C49.2825 66.4855 49.6887 65.3688 50.6247 64.9323C50.8753 64.8154 51.1412 64.7566 51.4144 64.7566C52.14 64.7566 52.8069 65.181 53.1133 65.8386C53.3243 66.2923 53.3466 66.8009 53.1758 67.2709Z" fill="white"/>
<path d="M52.3496 62.5187C52.4403 62.7136 52.6045 62.8641 52.8064 62.9377C52.896 62.9701 52.99 62.9866 53.0834 62.9866C53.2006 62.9866 53.3175 62.9612 53.4257 62.9107L62.7477 58.5635C62.9426 58.4728 63.093 58.3084 63.1666 58.1064C63.2398 57.9045 63.2301 57.6818 63.1394 57.4871L59.1737 48.9829C58.9848 48.5777 58.5034 48.4024 58.0977 48.5912L48.7757 52.938C48.581 53.0287 48.4304 53.1932 48.3569 53.3951C48.2835 53.597 48.2932 53.8197 48.384 54.0144L52.3496 62.5187ZM58.0479 50.4018L61.3289 57.4375L53.4753 61.1002L50.1945 54.064L58.0479 50.4018Z" fill="white"/>
</g>
<defs>
<linearGradient id="paint0_linear" x1="11" y1="41" x2="53" y2="41" gradientUnits="userSpaceOnUse">
<stop stop-color="#479DD4"/>
<stop offset="1" stop-color="#43C3D1"/>
</linearGradient>
<linearGradient id="paint1_linear" x1="31" y1="57" x2="73" y2="57" gradientUnits="userSpaceOnUse">
<stop stop-color="#479DD4"/>
<stop offset="1" stop-color="#43C3D1"/>
</linearGradient>
<linearGradient id="paint2_linear" x1="31" y1="57" x2="73" y2="57" gradientUnits="userSpaceOnUse">
<stop stop-color="#479DD4"/>
<stop offset="1" stop-color="#43C3D1"/>
</linearGradient>
<clipPath id="clip0">
<rect width="27" height="27" fill="white" transform="translate(38 45)"/>
</clipPath>
</defs>
</svg>
