<svg width="73" height="78" viewBox="0 0 73 78" fill="none" xmlns="http://www.w3.org/2000/svg">
<path d="M64 43.0704C64 60.9261 49.6731 74 32 74C14.3269 74 0 59.5251 0 41.6694C0 23.8137 14.3269 10.7398 32 10.7398C49.6731 10.7398 64 25.2147 64 43.0704Z" fill="#44C1D2" fill-opacity="0.2"/>
<path d="M31.8715 0L50.3467 16.5778L46.4742 14.2284L42.0224 12.3572L36.9179 11.1193L32 10.7398L26.7292 11.1359L21.8333 12.2585L17.1741 14.1043L12.9629 16.5806L31.8715 0Z" fill="#44C1D2" fill-opacity="0.2"/>
<circle cx="32" cy="41" r="20" stroke="url(#paint0_linear)" stroke-opacity="0.65" stroke-width="2"/>
<circle cx="52" cy="57" r="20" fill="url(#paint1_linear)" stroke="url(#paint2_linear)" stroke-width="2"/>
<g clip-path="url(#clip0)">
<path d="M41.5432 50.6335C41.7749 50.7493 42.4314 51.0969 43.1486 50.2914C43.4355 49.8887 43.7223 49.486 44.0644 49.0888C44.4671 48.6309 44.4064 47.8861 43.9485 47.4834C43.4906 47.0807 42.7459 47.1414 42.3431 47.5993C41.9404 48.0571 41.5377 48.5757 41.1957 49.0888C40.8591 49.6018 41.0302 50.2859 41.5432 50.6335Z" fill="white"/>
<path d="M52.7367 45.2381C53.829 45.2381 54.9158 45.4091 55.9529 45.7566C56.6481 45.9608 57.1556 45.5249 57.3873 45.067C57.5583 44.4381 57.2163 43.8037 56.6425 43.6327C55.3792 43.23 54.1159 43.0038 52.7974 43.0038C52.1685 43.0038 51.6499 43.4617 51.6499 44.0961C51.6499 44.7305 52.1078 45.2381 52.7367 45.2381Z" fill="white"/>
<path d="M62.9537 52.2389C63.3564 53.2154 63.5826 54.247 63.6984 55.2786C63.6984 55.2786 63.7646 56.5585 64.9617 56.3709C66.1478 56.2165 65.9934 55.0524 65.9934 55.0524C65.8775 53.7891 65.5355 52.5258 65.0776 51.3783C64.7907 50.8046 64.1618 50.5177 63.5881 50.7494C63.0088 51.0363 62.722 51.6652 62.9537 52.2389Z" fill="white"/>
<path d="M58.8216 47.191C59.7374 47.8199 60.5429 48.5701 61.2324 49.4308C61.7455 50.0707 62.6116 49.8059 62.7827 49.6018C63.2405 49.199 63.3564 48.4543 62.9537 47.9964C62.1482 47.0199 61.1718 46.1042 60.085 45.3539C59.5664 45.0118 58.8823 45.1222 58.5348 45.6408C58.1872 46.1593 58.3031 46.8434 58.8216 47.191Z" fill="white"/>
<path d="M46.4254 47.0145C47.3412 46.4407 48.3783 45.9828 49.41 45.696C50.0389 45.5249 50.3864 44.8905 50.2154 44.3168C50.0444 43.6879 49.41 43.3403 48.8362 43.5113C47.5729 43.8534 46.3702 44.3719 45.2779 45.0615C44.7594 45.4036 44.5883 46.0932 44.9359 46.6117C45.1621 46.9593 45.6475 47.3013 46.4254 47.0145Z" fill="white"/>
<path d="M64.8459 57.8051C64.217 57.6341 63.6433 58.0368 63.5274 58.6657C63.4116 59.1843 63.0585 60.3924 63.053 60.5083C61.5359 64.4528 57.8948 67.2277 53.7132 67.6745C49.5977 68.1048 45.5925 66.2457 43.27 62.9026L45.3939 63.3715C45.9677 63.4873 46.5966 63.1398 46.7124 62.5109C46.8283 61.9371 46.4807 61.3082 45.8518 61.1924L41.3777 60.2159C41.0909 60.1607 40.1972 60.2159 39.9986 61.0765L39.0221 65.6113C38.9062 66.185 39.2538 66.8139 39.8827 66.9298C40.5833 67.0015 41.0854 66.5877 41.2619 66.014L41.6039 64.4583C44.1582 67.9173 48.7702 70.477 53.9449 69.9198C59.1637 69.3571 63.5881 65.843 65.3093 60.911C65.3645 60.7676 65.6238 59.5649 65.7121 59.1291C65.8831 58.4947 65.4803 57.9209 64.8459 57.8051Z" fill="white"/>
<path d="M48.0806 57.6342H53.3711C54.0001 57.6342 54.4635 57.1156 54.5186 56.4867V48.6419C54.5186 48.013 54.0001 47.4944 53.3711 47.4944C52.7422 47.4944 52.2237 48.013 52.2237 48.6419V55.3392H48.0806C47.4517 55.3392 46.9331 55.8578 46.9331 56.4867C46.9331 57.1156 47.4462 57.6342 48.0806 57.6342Z" fill="white"/>
</g>
<defs>
<linearGradient id="paint0_linear" x1="11" y1="41" x2="53" y2="41" gradientUnits="userSpaceOnUse">
<stop stop-color="#479DD4"/>
<stop offset="1" stop-color="#43C3D1"/>
</linearGradient>
<linearGradient id="paint1_linear" x1="31" y1="57" x2="73" y2="57" gradientUnits="userSpaceOnUse">
<stop stop-color="#479DD4"/>
<stop offset="1" stop-color="#43C3D1"/>
</linearGradient>
<linearGradient id="paint2_linear" x1="31" y1="57" x2="73" y2="57" gradientUnits="userSpaceOnUse">
<stop stop-color="#479DD4"/>
<stop offset="1" stop-color="#43C3D1"/>
</linearGradient>
<clipPath id="clip0">
<rect width="27" height="27" fill="white" transform="translate(39 43)"/>
</clipPath>
</defs>
</svg>
