<svg width="43" height="42" viewBox="0 0 43 42" fill="none" xmlns="http://www.w3.org/2000/svg">
<g opacity="0.5">
<path d="M41.2463 21.001C41.2463 32.0412 32.2424 41.001 21.1232 41.001C10.0039 41.001 1 32.0412 1 21.001C1 9.96079 10.0039 1.00098 21.1232 1.00098C32.2424 1.00098 41.2463 9.96079 41.2463 21.001Z" stroke="white" stroke-width="2"/>
<path d="M27.2842 18.126C27.2842 16.6341 26.6881 15.2034 25.6271 14.1485C24.566 13.0936 23.1268 12.501 21.6263 12.501C20.1257 12.501 18.6865 13.0936 17.6254 14.1485C16.5644 15.2034 15.9683 16.6341 15.9683 18.126C15.9683 18.4243 16.0875 18.7105 16.2997 18.9215C16.5119 19.1325 16.7997 19.251 17.0999 19.251C17.4 19.251 17.6878 19.1325 17.9 18.9215C18.1122 18.7105 18.2315 18.4243 18.2315 18.126C18.2315 17.4585 18.4306 16.8059 18.8036 16.2509C19.1766 15.6959 19.7068 15.2633 20.3271 15.0079C20.9474 14.7524 21.63 14.6856 22.2885 14.8158C22.9471 14.9461 23.552 15.2675 24.0267 15.7395C24.5015 16.2115 24.8248 16.8129 24.9558 17.4675C25.0868 18.1222 25.0196 18.8008 24.7626 19.4175C24.5057 20.0342 24.0706 20.5613 23.5123 20.9322C22.954 21.303 22.2977 21.501 21.6263 21.501C21.3261 21.501 21.0383 21.6195 20.8261 21.8305C20.6139 22.0415 20.4947 22.3276 20.4947 22.626V24.876C20.4947 25.1743 20.6139 25.4605 20.8261 25.6715C21.0383 25.8825 21.3261 26.001 21.6263 26.001C21.9264 26.001 22.2142 25.8825 22.4264 25.6715C22.6386 25.4605 22.7578 25.1743 22.7578 24.876V23.6385C24.0358 23.3791 25.1844 22.6888 26.0093 21.6842C26.8341 20.6797 27.2845 19.4227 27.2842 18.126V18.126Z" fill="white"/>
<path d="M21.626 31.001C22.4593 31.001 23.1348 30.3294 23.1348 29.501C23.1348 28.6725 22.4593 28.001 21.626 28.001C20.7927 28.001 20.1172 28.6725 20.1172 29.501C20.1172 30.3294 20.7927 31.001 21.626 31.001Z" fill="white"/>
</g>
</svg>
