<svg width="25" height="25" viewBox="0 0 25 25" fill="none" xmlns="http://www.w3.org/2000/svg">
<path d="M21.2739 3.60196C18.9323 1.28289 15.8184 0 12.5053 0C5.67969 0 0.0996436 5.50162 0.0996436 12.2861C0.0996436 14.4572 0.672594 16.5542 1.74376 18.4292L0 24.7943L6.57648 23.092C8.39497 24.0788 10.4377 24.5969 12.5053 24.5969C19.3309 24.5969 24.9109 19.0953 24.9109 12.3108C24.9109 9.00489 23.6155 5.92102 21.2739 3.60196ZM12.5053 22.4999C10.6619 22.4999 8.84337 22.0065 7.24907 21.069L6.87541 20.8469L2.98931 21.8831L4.03557 18.1085L3.78646 17.7137C2.76511 16.0854 2.21707 14.2105 2.21707 12.2861C2.19216 6.66115 6.82559 2.07236 12.5053 2.07236C15.2704 2.07236 17.8362 3.13321 19.8042 5.05754C21.7472 6.98187 22.8184 9.54765 22.8184 12.2861C22.8184 17.9111 18.185 22.4999 12.5053 22.4999ZM18.16 14.8519C17.8611 14.7039 16.3166 13.9637 16.0426 13.8651C15.7686 13.7664 15.5444 13.717 15.3451 14.0131C15.1458 14.3091 14.548 14.9999 14.3736 15.222C14.1992 15.4193 13.9999 15.444 13.701 15.296C13.4021 15.1479 12.3807 14.8272 11.2099 13.7664C10.2882 12.9522 9.66543 11.9407 9.49105 11.6447C9.31668 11.3486 9.46614 11.1759 9.61561 11.0279C9.76507 10.8799 9.91454 10.6578 10.0889 10.4851C10.2384 10.3124 10.2882 10.1891 10.3878 9.96705C10.4875 9.76969 10.4377 9.57232 10.3629 9.42429C10.2882 9.27627 9.66543 7.77134 9.41632 7.15457C9.16721 6.56247 8.9181 6.63648 8.71882 6.63648C8.54444 6.63648 8.32024 6.63648 8.12095 6.63648C7.92167 6.63648 7.57291 6.71049 7.29889 7.03121C7.02487 7.32726 6.20281 8.09206 6.20281 9.59699C6.20281 11.1019 7.3238 12.5575 7.47327 12.7795C7.62274 12.9769 9.66543 16.0854 12.7793 17.4177C13.5266 17.7384 14.0996 17.9111 14.548 18.0591C15.2953 18.2812 15.9679 18.2565 16.491 18.1825C17.0889 18.0838 18.3344 17.4423 18.5835 16.7269C18.8326 16.0114 18.8326 15.3947 18.7579 15.2713C18.6832 15.0739 18.4839 14.9999 18.16 14.8519Z" fill="white" fill-opacity="0.65"/>
</svg>
